<svg xmlns="http://www.w3.org/2000/svg" xmlns:xlink="http://www.w3.org/1999/xlink" viewBox="0 0 760 753"><defs><style>.cls-1{fill:url(#Water_4);}.cls-2{fill:#f6e8da;}</style><linearGradient id="Water_4" y1="376.5" x2="760" y2="376.5" gradientUnits="userSpaceOnUse"><stop offset="0" stop-color="#87b9ce"/><stop offset="0.5" stop-color="#3a9cb9"/><stop offset="1" stop-color="#0087a8"/></linearGradient></defs><g id="Слой_2" data-name="Слой 2"><g id="Слой_1-2" data-name="Слой 1"><rect class="cls-1" width="760" height="753"/><path class="cls-2" d="M287.38,104.1a3.16,3.16,0,0,0-2.93,2.18l-4.39.08,3.26-3.4a1,1,0,0,0,0-1.45,1,1,0,0,0-1.44,0l-4.66,4.87-9.14.15,3.47-5a2,2,0,1,0-.27-3.63,2,2,0,0,0-.9,1.15l-6,.78,4.27-7.57,6.52-1.82a1,1,0,1,0-.55-2l-4.55,1.27,2.21-3.92a3.16,3.16,0,1,0-1.78-1l-2.16,3.83-1.28-4.53a1,1,0,0,0-.48-.61,1,1,0,0,0-1.48,1.17L267,91.22,262.57,99l-2.52-5.38a2,2,0,1,0-2.76.06l-2.18,5.25-4.3-7.78,1.89-6.47a1,1,0,0,0-2-.57l-1.32,4.52-2.13-3.84a3.16,3.16,0,1,0-1.79,1l2.18,4-4.54-1.31a1,1,0,0,0-.56,2l6.5,1.87,4.38,7.93-6.62-.57a2,2,0,0,0-.79-.72,2,2,0,1,0,.28,3.47l3.47,4.53-9.4.16-4.83-4.7a1,1,0,1,0-1.42,1.46l3.37,3.29-4.39.08a3.13,3.13,0,1,0,0,2l4.5-.08-3.28,3.4a1,1,0,0,0,0,1.44,1,1,0,0,0,1.45,0l4.7-4.87,9.07-.16-3.28,4.71a2,2,0,0,0-1.72.16,2,2,0,1,0,3,2.18l5.77-.76-4.54,8.06-6.5,1.79a1,1,0,1,0,.55,2l4.54-1.24-2.16,3.82a3.15,3.15,0,1,0,1.78,1l2.21-3.92,1.27,4.55a1,1,0,1,0,2-.55l-1.82-6.52,4.61-8.17L258,121.6a2,2,0,1,0,3.41,1.47,2.08,2.08,0,0,0-.75-1.53l2-4.8,4.14,7.49-1.87,6.5a1,1,0,1,0,2,.57l1.31-4.54,2.18,3.94a3.14,3.14,0,1,0,1.78-1L270,125.87l4.53,1.29a1,1,0,0,0,1.26-.71,1,1,0,0,0-.7-1.26l-6.48-1.84-4.69-8.48,7.11.62a2,2,0,1,0,2.72-2.76,2,2,0,0,0-2,.13l-3.27-4.26,8.65-.15,4.86,4.7a1,1,0,1,0,1.42-1.47L280,108.4l4.51-.08a3.14,3.14,0,1,0,2.89-4.22Zm-18.16-2.77-3.54,5.06a6.82,6.82,0,0,0-2.55-4.23l0,0Zm-10.14,11a4.77,4.77,0,1,1,4.66-4.87A4.77,4.77,0,0,1,259.08,112.31Zm-.37-16.74,2.62,5.59a6.72,6.72,0,0,0-4.94.1l0,0Zm-4.08,6.75a6.82,6.82,0,0,0-2.39,4.37l-3.76-4.9Zm-5.89,11.44,3.42-4.88h.15a6.76,6.76,0,0,0,2.44,4l-.07.11Zm10.5,5.76-2.61-5.59a6.71,6.71,0,0,0,2.5.42,6.53,6.53,0,0,0,2-.34l.24.44Zm10.24-6.22-6.15-.53a6.83,6.83,0,0,0,2.36-4.12h.22Z"/><path class="cls-2" d="M592,508a3.14,3.14,0,0,0-2.93,2.17l-4.39.08,3.26-3.4a1,1,0,1,0-1.48-1.42l-4.66,4.87-9.13.15,3.47-5a2,2,0,0,0,1.81-.12,2,2,0,1,0-2.08-3.51A2,2,0,0,0,575,503l-6,.78,4.27-7.57,6.52-1.82a1,1,0,0,0-.55-2l-4.55,1.27,2.21-3.92a3.15,3.15,0,1,0-1.78-1L573,492.63l-1.28-4.53a1,1,0,0,0-.48-.61,1,1,0,0,0-.78-.09,1,1,0,0,0-.7,1.26l1.83,6.48-4.38,7.78-2.52-5.38a2,2,0,0,0,.63-1.51,2,2,0,1,0-4.08.09,2,2,0,0,0,.69,1.48l-2.18,5.26-4.31-7.79,1.89-6.47a1,1,0,0,0-.69-1.26,1,1,0,0,0-1.27.69L554,492.55l-2.12-3.84a3.14,3.14,0,1,0-1.79,1l2.18,3.94-4.54-1.31a1,1,0,0,0-.57,2l6.5,1.87,4.39,7.93-6.62-.57a2,2,0,1,0-.51,2.75l3.47,4.53L545,511l-4.82-4.7a1,1,0,0,0-1.42,1.47l3.37,3.28-4.39.08a3.14,3.14,0,1,0,0,2l4.5-.08-3.28,3.4a1,1,0,0,0,0,1.44,1,1,0,0,0,1.45,0l4.7-4.87,9.07-.16L551,517.55a2,2,0,0,0-1.72.16,2,2,0,1,0,2.08,3.51,2,2,0,0,0,.95-1.33l5.77-.76-4.55,8.06L547,529a1,1,0,0,0,.54,2l4.55-1.25-2.16,3.82a3.15,3.15,0,1,0,1.78,1l2.21-3.93,1.27,4.55a1,1,0,0,0,1.26.71,1,1,0,0,0,.71-1.26l-1.83-6.51,4.61-8.18,2.63,5.61a2.05,2.05,0,1,0,2.66,0l2-4.81,4.14,7.49-1.87,6.5a1,1,0,1,0,2,.57l1.31-4.54,2.17,3.94a3.15,3.15,0,1,0,1.79-1l-2.12-3.84,4.53,1.29a1.07,1.07,0,0,0,.77-.09,1,1,0,0,0-.21-1.88l-6.48-1.84-4.69-8.48,7.11.62a2.09,2.09,0,0,0,.89.9,2,2,0,1,0-.2-3.53l-3.26-4.26,8.65-.15,4.86,4.7A1,1,0,1,0,588,515.6l-3.4-3.28,4.5-.08A3.14,3.14,0,1,0,592,508Zm-18.17-2.78-3.53,5.06a6.84,6.84,0,0,0-2.55-4.23l0,0Zm-10.13,11a4.77,4.77,0,1,1,4.66-4.87A4.77,4.77,0,0,1,563.69,516.23Zm-.37-16.74,2.62,5.59a6.93,6.93,0,0,0-2.51-.42,6.77,6.77,0,0,0-2.43.52l0,0Zm-4.08,6.75a6.83,6.83,0,0,0-2.4,4.37l-3.75-4.9Zm-5.89,11.45,3.42-4.89h.15a6.76,6.76,0,0,0,2.44,4l-.07.12Zm10.5,5.75-2.61-5.59a6.71,6.71,0,0,0,2.5.42,6.53,6.53,0,0,0,2-.34l.24.44Zm10.24-6.22-6.15-.53a6.83,6.83,0,0,0,2.36-4.12h.22Z"/><path class="cls-2" d="M719.26,680.35a3.12,3.12,0,0,0-2.93,2.17l-4.39.08,3.26-3.4a1,1,0,0,0,.28-.72,1,1,0,0,0-.32-.73,1,1,0,0,0-1.44,0l-4.66,4.86-9.13.16,3.46-5a2,2,0,0,0,2.53-2.93,2,2,0,0,0-2.79-.71,2.05,2.05,0,0,0-.91,1.15l-5.94.79,4.27-7.58,6.51-1.82a1,1,0,0,0-.54-2L702,666.05l2.22-3.92a3.11,3.11,0,0,0,3.3-1.54,3.15,3.15,0,1,0-5.08.54L700.24,665,699,660.42a1,1,0,0,0-.47-.61A1,1,0,0,0,697,661l1.84,6.48-4.38,7.78-2.52-5.38a2,2,0,1,0-3.46-1.42,2.06,2.06,0,0,0,.69,1.48L687,675.18l-4.3-7.79,1.89-6.46a1,1,0,1,0-2-.58l-1.32,4.52L679.17,661a3.15,3.15,0,1,0-1.79,1l2.18,3.94L675,664.65a1,1,0,0,0-1.27.7,1,1,0,0,0,.7,1.26l6.5,1.88,4.39,7.93-6.63-.58a2,2,0,0,0-.79-.72,2,2,0,0,0-1.83,3.65,2,2,0,0,0,2.12-.18l3.47,4.53-9.41.16-4.82-4.69a1,1,0,1,0-1.43,1.46l3.38,3.28-4.39.08a3.16,3.16,0,1,0,0,2l4.5-.08-3.28,3.4a1,1,0,0,0,1.47,1.42l4.7-4.87,9.08-.15-3.29,4.7a2,2,0,0,0-1.72.16,2,2,0,1,0,2.09,3.51,2,2,0,0,0,.95-1.33l5.77-.76-4.55,8.06-6.49,1.79a1,1,0,0,0,.54,2l4.54-1.25-2.15,3.83a3.13,3.13,0,1,0,1.78,1l2.21-3.93,1.27,4.55a1,1,0,1,0,2-.54l-1.82-6.52,4.61-8.18,2.63,5.62a2,2,0,0,0-.68,1.55,2,2,0,1,0,4.08-.09,2,2,0,0,0-.75-1.52l2-4.81,4.14,7.5L696.75,707a1,1,0,0,0,.7,1.27,1,1,0,0,0,1.26-.7L700,703l2.18,3.94a3.14,3.14,0,1,0,5.08.58A3.11,3.11,0,0,0,704,706l-2.12-3.85,4.53,1.29a1,1,0,0,0,1.26-.71,1,1,0,0,0-.71-1.25l-6.48-1.84-4.68-8.48,7.1.61a2,2,0,0,0,3.64,0,2,2,0,0,0-2.94-2.62l-3.26-4.26,8.64-.15,4.87,4.71a1,1,0,0,0,1.42-1.47l-3.4-3.29,4.5-.07a3.15,3.15,0,1,0,2.9-4.22Zm-18.17-2.78-3.54,5.07A6.78,6.78,0,0,0,695,678.4l0,0Zm-10.13,11a4.76,4.76,0,1,1,4.66-4.87A4.77,4.77,0,0,1,691,688.55Zm-.37-16.74,2.61,5.6a6.68,6.68,0,0,0-2.5-.43,6.77,6.77,0,0,0-2.43.52l0,0Zm-4.09,6.76a6.8,6.8,0,0,0-2.39,4.37L680.35,678ZM680.62,690l3.41-4.89h.16a6.79,6.79,0,0,0,2.43,4l-.06.12Zm10.5,5.76-2.62-5.6a6.71,6.71,0,0,0,2.5.42,6.48,6.48,0,0,0,2-.34l.25.44Zm10.24-6.22L695.2,689a6.79,6.79,0,0,0,2.37-4.13h.21Z"/><path class="cls-2" d="M130.45,421.06a3.14,3.14,0,0,0-2.93,2.18l-4.39.08,3.25-3.41a1,1,0,0,0,.29-.72,1,1,0,0,0-1.76-.69l-4.66,4.86-9.13.16,3.46-5a2,2,0,1,0-1.17-2.48l-5.94.78,4.27-7.58,6.51-1.81a1,1,0,0,0,.71-1.26,1,1,0,0,0-1.26-.71l-4.55,1.27,2.21-3.93a3.13,3.13,0,1,0-1.78-1l-2.15,3.83-1.29-4.53a1,1,0,0,0-.48-.61,1,1,0,0,0-.78-.1,1,1,0,0,0-.7,1.26l1.84,6.48L105.63,416l-2.51-5.39a2,2,0,0,0,.62-1.51,2,2,0,0,0-4.08.09,2,2,0,0,0,.69,1.48l-2.18,5.26-4.3-7.79,1.89-6.46a1,1,0,1,0-2-.57l-1.32,4.52-2.12-3.85a3.15,3.15,0,1,0-1.79,1l2.18,3.94-4.54-1.31a1,1,0,0,0-.57,2l6.5,1.87,4.38,7.93-6.62-.58a2,2,0,0,0-3.53.2,2,2,0,0,0,3,2.56l3.47,4.53-9.41.16-4.83-4.7a1,1,0,0,0-1.44,0,1,1,0,0,0,0,1.45l3.38,3.29-4.39.07a3.16,3.16,0,1,0,0,2l4.5-.07-3.28,3.39a1,1,0,0,0,0,1.45,1,1,0,0,0,1.44,0l4.7-4.86,9.08-.16-3.29,4.7a2,2,0,1,0,1.32,2.34l5.77-.75L92,440.23,85.46,442a1,1,0,1,0,.54,2l4.54-1.25-2.16,3.83a3.15,3.15,0,1,0,1.78,1l2.22-3.92,1.26,4.55a1,1,0,0,0,2-.55l-1.82-6.52,4.61-8.18,2.63,5.62a2,2,0,1,0,3.4,1.46,2,2,0,0,0-.75-1.52l2-4.81,4.14,7.5-1.88,6.5a1,1,0,0,0,.7,1.26,1,1,0,0,0,1.26-.7l1.31-4.53,2.18,3.94a3.14,3.14,0,1,0,1.79-1l-2.13-3.84,4.54,1.28a1,1,0,0,0,.77-.09,1,1,0,0,0,.49-.61,1,1,0,0,0-.71-1.26l-6.48-1.84L107,431.83l7.1.61a2,2,0,0,0,.9.9,2,2,0,0,0,1.83-3.65,2,2,0,0,0-2,.13l-3.27-4.26,8.65-.15,4.87,4.7a1,1,0,0,0,1.42-1.47l-3.4-3.28,4.5-.08a3.15,3.15,0,1,0,2.9-4.22Zm-18.17-2.78-3.54,5.07a6.7,6.7,0,0,0-2.55-4.23l0,0Zm-10.13,11a4.77,4.77,0,1,1,4.66-4.87A4.77,4.77,0,0,1,102.15,429.27Zm-.37-16.74,2.61,5.59a6.67,6.67,0,0,0-2.5-.42,6.76,6.76,0,0,0-2.43.51l0,0Zm-4.09,6.75a6.8,6.8,0,0,0-2.39,4.37l-3.76-4.9Zm-5.88,11.44,3.41-4.88h.16a6.82,6.82,0,0,0,2.43,4l-.06.11Zm10.5,5.76-2.62-5.6a6.71,6.71,0,0,0,2.5.43,7.14,7.14,0,0,0,2-.34l.24.44Zm10.24-6.22-6.16-.53a6.79,6.79,0,0,0,2.37-4.13H109Z"/><path class="cls-2" d="M715.21,393a3.12,3.12,0,0,0-2.93,2.17l-4.39.08,3.26-3.4a1,1,0,0,0,.28-.72,1,1,0,0,0-.32-.73,1,1,0,0,0-1.44,0L705,395.26l-9.13.16,3.46-5a2,2,0,0,0,2.53-2.93,2,2,0,0,0-2.79-.71,2.05,2.05,0,0,0-.91,1.15l-5.94.79,4.27-7.58,6.51-1.82a1,1,0,0,0-.54-2l-4.56,1.27,2.21-3.92a3.11,3.11,0,0,0,3.31-1.54,3.15,3.15,0,1,0-5.08.54l-2.16,3.82L694.91,373a1.06,1.06,0,0,0-.48-.61,1,1,0,0,0-1.49,1.17l1.84,6.48-4.39,7.78-2.51-5.38a2,2,0,1,0-3.46-1.42,2.06,2.06,0,0,0,.69,1.48l-2.18,5.26-4.3-7.79,1.89-6.46a1,1,0,1,0-2-.58l-1.32,4.52-2.12-3.84a3.15,3.15,0,1,0-1.79,1l2.18,3.94L671,377.26a1,1,0,0,0-1.27.7,1,1,0,0,0,.7,1.26l6.5,1.88,4.38,7.93-6.62-.58a2,2,0,0,0-.79-.72,2,2,0,1,0-1.83,3.65,2,2,0,0,0,2.12-.18l3.47,4.53-9.41.16-4.82-4.69a1,1,0,1,0-1.43,1.46l3.38,3.28L661,396a3.16,3.16,0,1,0,0,2l4.5-.08-3.28,3.4a1,1,0,0,0,1.47,1.42l4.7-4.87,9.08-.15-3.29,4.7a2,2,0,0,0-1.72.16,2,2,0,1,0,3,2.18l5.77-.76-4.55,8.06-6.49,1.79a1,1,0,0,0,.54,2l4.54-1.25-2.16,3.83a3.13,3.13,0,1,0,1.79,1l2.21-3.93,1.27,4.55a1,1,0,0,0,2-.54L678.55,413l4.61-8.18,2.63,5.62a2,2,0,0,0-.68,1.55,2,2,0,1,0,4.08-.09,2,2,0,0,0-.75-1.52l2-4.81,4.14,7.5-1.88,6.49a1,1,0,0,0,.7,1.27,1,1,0,0,0,1.26-.7l1.31-4.54,2.18,3.94a3.14,3.14,0,1,0,5.08.58,3.11,3.11,0,0,0-3.29-1.56l-2.13-3.85,4.54,1.29a1,1,0,0,0,1.26-.71,1,1,0,0,0-.7-1.25l-6.49-1.85-4.68-8.47,7.1.61a2,2,0,0,0,3.64,0,2,2,0,0,0-2.94-2.62l-3.26-4.26,8.64-.15,4.87,4.7a1,1,0,1,0,1.42-1.46l-3.4-3.29,4.5-.07a3.15,3.15,0,1,0,2.9-4.22ZM697,390.18l-3.54,5.07A6.78,6.78,0,0,0,691,391v0Zm-10.13,11a4.76,4.76,0,1,1,4.66-4.87A4.77,4.77,0,0,1,686.91,401.16Zm-.37-16.74,2.61,5.6a6.68,6.68,0,0,0-2.5-.43,6.77,6.77,0,0,0-2.43.52l0,0Zm-4.09,6.76a6.8,6.8,0,0,0-2.39,4.37l-3.76-4.91Zm-5.88,11.44,3.41-4.89h.16a6.79,6.79,0,0,0,2.43,4l-.06.12Zm10.5,5.76-2.62-5.6a6.74,6.74,0,0,0,2.5.42,6.48,6.48,0,0,0,2-.34l.25.44Zm10.24-6.22-6.16-.53a6.82,6.82,0,0,0,2.37-4.13h.21Z"/><path class="cls-2" d="M126.09,684.26a3.16,3.16,0,0,0-2.93,2.18l-4.39.08,3.26-3.4a1,1,0,1,0-1.48-1.42l-4.65,4.87-9.14.16,3.47-5a2,2,0,1,0-.27-3.64,2,2,0,0,0-.9,1.15l-6,.78,4.27-7.57,6.52-1.82a1,1,0,1,0-.55-2L108.8,670l2.21-3.92a3.15,3.15,0,1,0-1.78-1l-2.16,3.82-1.28-4.53a1,1,0,0,0-.48-.61,1,1,0,0,0-.78-.09,1,1,0,0,0-.7,1.26l1.83,6.48-4.38,7.78-2.52-5.38a2,2,0,0,0,.63-1.51A2,2,0,1,0,96,673.84l-2.18,5.26-4.3-7.79,1.89-6.46a1,1,0,0,0-2-.58l-1.32,4.52L86,665a3.14,3.14,0,1,0-1.79,1l2.18,3.94-4.54-1.31a1,1,0,0,0-.56,2l6.5,1.88,4.38,7.92-6.62-.57a2,2,0,1,0-.51,2.75L88.51,687l-9.4.16-4.83-4.7A1,1,0,0,0,72.86,684l3.37,3.28-4.39.08a3.14,3.14,0,1,0,0,2l4.5-.08-3.28,3.4a1,1,0,0,0,0,1.44,1,1,0,0,0,1.45,0l4.7-4.87,9.07-.16-3.28,4.71a2,2,0,0,0-1.72.16,2,2,0,1,0,3,2.18l5.77-.76-4.54,8.06-6.5,1.79a1,1,0,0,0-.71,1.25,1,1,0,0,0,1.26.72l4.54-1.25L84,709.76a3.16,3.16,0,1,0,1.78,1L88,706.84l1.27,4.55a1,1,0,1,0,2-.55l-1.82-6.51,4.61-8.18,2.62,5.62a2,2,0,0,0-.67,1.55,2,2,0,1,0,4.08-.09,2.08,2.08,0,0,0-.75-1.53l2-4.8,4.14,7.49-1.87,6.5a1,1,0,1,0,2,.57l1.31-4.54,2.17,3.94a3.15,3.15,0,1,0,1.79-1L108.7,706l4.53,1.29a1.07,1.07,0,0,0,.77-.09,1,1,0,0,0-.21-1.88l-6.48-1.84L102.62,695l7.11.62a2.09,2.09,0,0,0,.89.9,2,2,0,0,0,1.83-3.65,2,2,0,0,0-2,.12l-3.27-4.26,8.65-.15,4.86,4.7a1,1,0,1,0,1.42-1.47l-3.4-3.28,4.51-.08a3.14,3.14,0,1,0,2.89-4.22Zm-18.16-2.77-3.54,5.07a6.84,6.84,0,0,0-2.55-4.24l0,0Zm-10.14,11a4.76,4.76,0,1,1,4.66-4.87A4.76,4.76,0,0,1,97.79,692.47Zm-.37-16.74,2.62,5.6a6.71,6.71,0,0,0-2.5-.43,6.82,6.82,0,0,0-2.44.52l0,0Zm-4.08,6.76A6.77,6.77,0,0,0,91,686.85L87.19,682Zm-5.89,11.44L90.87,689H91a6.76,6.76,0,0,0,2.44,4l-.07.12ZM98,699.68l-2.61-5.59a6.71,6.71,0,0,0,2.5.42,6.53,6.53,0,0,0,2-.34l.24.44Zm10.24-6.21-6.15-.54a6.83,6.83,0,0,0,2.36-4.12h.22Z"/><path class="cls-2" d="M232.9,45.59A2.06,2.06,0,0,0,231,47l-2.86.05,2.12-2.22a.66.66,0,0,0,.19-.47.64.64,0,0,0-.21-.47.66.66,0,0,0-.94,0l-3,3.17-6,.11L222.53,44a1.33,1.33,0,1,0-.17-2.38,1.3,1.3,0,0,0-.59.76l-3.88.51,2.79-5,4.25-1.19a.66.66,0,0,0,.46-.82.65.65,0,0,0-.82-.46l-3,.82L223,33.69a2.05,2.05,0,1,0-1.16-.65l-1.41,2.5-.83-3a.68.68,0,0,0-.83-.46.67.67,0,0,0-.46.82l1.2,4.23-2.86,5.09-1.64-3.52a1.35,1.35,0,0,0,.4-1,1.33,1.33,0,1,0-2.21,1l-1.42,3.43L209,37.13l1.23-4.23a.67.67,0,0,0-1.28-.37l-.86,2.95L206.71,33a2,2,0,1,0-1.17.65L207,36.19l-3-.85a.67.67,0,1,0-.37,1.28l4.25,1.22L210.74,43l-4.33-.37a1.22,1.22,0,0,0-.51-.47,1.33,1.33,0,0,0-1.2,2.38,1.32,1.32,0,0,0,1.38-.12l2.27,3-6.14.11-3.16-3.07a.66.66,0,0,0-.94,0,.68.68,0,0,0,0,.95l2.21,2.14-2.87.05a2.07,2.07,0,1,0,0,1.33l2.94-.05-2.14,2.22a.67.67,0,1,0,1,.93l3.07-3.18,5.93-.1-2.15,3.07a1.31,1.31,0,0,0-1.12.11,1.33,1.33,0,1,0,1.36,2.29,1.3,1.3,0,0,0,.62-.87l3.77-.5-3,5.27-4.24,1.17a.66.66,0,1,0,.35,1.28l3-.81-1.41,2.5a2,2,0,0,0-2.16,1,2.06,2.06,0,1,0,3.32-.35L208,60.34l.83,3a.67.67,0,0,0,.82.47.68.68,0,0,0,.46-.83L209,58.7l3-5.35L213.68,57a1.31,1.31,0,0,0-.44,1A1.33,1.33,0,1,0,215.41,57l1.31-3.14,2.7,4.9L218.2,63a.67.67,0,1,0,1.28.37l.85-3L221.76,63a2.05,2.05,0,0,0,2.51,3.18,2.05,2.05,0,0,0-1.35-3.82l-1.38-2.51,3,.84a.67.67,0,0,0,.5-.06.65.65,0,0,0,.32-.4.66.66,0,0,0-.46-.82l-4.23-1.21-3.06-5.54,4.64.41a1.3,1.3,0,0,0,.58.58,1.33,1.33,0,1,0-.13-2.3l-2.13-2.78,5.65-.1,3.18,3.07a.66.66,0,0,0,.92-1l-2.22-2.14,2.95,0a2.05,2.05,0,0,0,4-.74A2.06,2.06,0,0,0,232.9,45.59ZM221,43.78l-2.31,3.31a4.41,4.41,0,0,0-1.67-2.77l0,0ZM214.41,51a3.11,3.11,0,1,1,3.05-3.18A3.11,3.11,0,0,1,214.41,51ZM214.17,40l1.71,3.65a4.45,4.45,0,0,0-1.64-.28,4.71,4.71,0,0,0-1.59.34v0Zm-2.67,4.41a4.42,4.42,0,0,0-1.56,2.85l-2.46-3.2Zm-3.84,7.47,2.23-3.19h.1a4.43,4.43,0,0,0,1.59,2.61l0,.07Zm6.86,3.76L212.81,52a4.47,4.47,0,0,0,2.92.05l.16.29Zm6.69-4.06-4-.35a4.45,4.45,0,0,0,1.55-2.69h.14Z"/><path class="cls-2" d="M600,649.79a2,2,0,0,0-1.91,1.42l-2.87,0,2.13-2.22a.69.69,0,0,0,.18-.47.67.67,0,0,0-1.15-.45l-3,3.18-6,.1,2.27-3.24a1.33,1.33,0,1,0-.18-2.38,1.39,1.39,0,0,0-.59.76l-3.88.51,2.79-4.95,4.25-1.19a.67.67,0,0,0,.47-.82.66.66,0,0,0-.82-.46l-3,.83,1.45-2.57a2,2,0,1,0-1.17-.65l-1.4,2.5-.84-3a.68.68,0,0,0-.83-.46.66.66,0,0,0-.45.82l1.2,4.23-2.87,5.09-1.64-3.52a1.33,1.33,0,0,0-1-2.29,1.33,1.33,0,0,0-.85,2.33l-1.42,3.44-2.81-5.09,1.23-4.22a.65.65,0,0,0-.45-.83.67.67,0,0,0-.83.45l-.86,2.95-1.39-2.51a2,2,0,0,0-2.51-3.17,2.05,2.05,0,0,0,1.34,3.82l1.43,2.57-3-.85a.67.67,0,0,0-.37,1.28l4.25,1.22,2.86,5.18-4.32-.37a1.31,1.31,0,0,0-.52-.47,1.33,1.33,0,0,0-1.2,2.38,1.3,1.3,0,0,0,1.38-.12l2.27,3-6.14.11-3.15-3.07a.67.67,0,1,0-.93,1l2.2,2.14-2.87,0a2.05,2.05,0,0,0-4,.74,2.06,2.06,0,0,0,4,.6l2.94,0-2.15,2.21a.68.68,0,0,0,0,1,.66.66,0,0,0,.94,0l3.07-3.18,5.93-.1L573.16,656a1.33,1.33,0,1,0,.24,2.4,1.31,1.31,0,0,0,.61-.87l3.77-.49-3,5.26-4.24,1.17a.66.66,0,0,0,.36,1.28l3-.81-1.41,2.5a2,2,0,0,0-1.38,3.8,2.05,2.05,0,0,0,2.55-3.15l1.44-2.56.83,3a.67.67,0,0,0,.82.47.69.69,0,0,0,.47-.83L576,662.9l3-5.35,1.71,3.67a1.34,1.34,0,0,0-.44,1,1.34,1.34,0,0,0,2.67-.06,1.34,1.34,0,0,0-.49-1l1.3-3.14,2.7,4.9-1.22,4.25a.66.66,0,0,0,.46.82.65.65,0,0,0,.82-.46l.86-3,1.42,2.57a2.06,2.06,0,1,0,1.16-.64L588.6,664l3,.84a.66.66,0,0,0,.5-.06.65.65,0,0,0,.32-.4.66.66,0,0,0-.46-.82l-4.23-1.2-3.06-5.54,4.64.4a1.33,1.33,0,1,0,1.78-1.8,1.32,1.32,0,0,0-1.32.08l-2.14-2.78,5.65-.1,3.18,3.07a.66.66,0,0,0,.94,0,.66.66,0,0,0,0-.94l-2.22-2.14,2.94-.05a2.05,2.05,0,0,0,4-.74A2.06,2.06,0,0,0,600,649.79ZM588.09,648l-2.31,3.31a4.44,4.44,0,0,0-1.66-2.77v0Zm-6.62,7.17a3.11,3.11,0,1,1,3-3.18A3.1,3.1,0,0,1,581.47,655.15Zm-.24-10.93,1.71,3.65a4.44,4.44,0,0,0-1.63-.28,4.61,4.61,0,0,0-1.59.34l0,0Zm-2.67,4.41a4.46,4.46,0,0,0-1.56,2.85l-2.45-3.2Zm-3.84,7.47,2.23-3.19h.1a4.48,4.48,0,0,0,1.59,2.61l0,.07Zm6.86,3.76-1.71-3.65a4.23,4.23,0,0,0,1.63.27,4,4,0,0,0,1.3-.22l.15.29Zm6.69-4.06-4-.35a4.48,4.48,0,0,0,1.54-2.69h.14Z"/><path class="cls-2" d="M676.63,618.74a2,2,0,0,0-1.91,1.42l-2.87.05L674,618a.62.62,0,0,0,.18-.47.66.66,0,0,0-1.15-.45l-3,3.17-6,.1,2.27-3.24a1.33,1.33,0,1,0-.18-2.37,1.36,1.36,0,0,0-.59.75l-3.88.51,2.79-5,4.25-1.18a.67.67,0,1,0-.35-1.29l-3,.83,1.45-2.56a2.06,2.06,0,1,0-1.16-.66l-1.41,2.5-.84-3a.71.71,0,0,0-.32-.4.68.68,0,0,0-.51-.06.67.67,0,0,0-.45.83l1.2,4.23-2.87,5.08-1.64-3.51a1.33,1.33,0,1,0-1.81,0l-1.42,3.43-2.81-5.09,1.23-4.22a.66.66,0,0,0-.45-.83.68.68,0,0,0-.83.46l-.86,3-1.39-2.51a2.06,2.06,0,1,0-1.17.64l1.43,2.58-3-.86a.66.66,0,0,0-.82.46.67.67,0,0,0,.45.83l4.25,1.22,2.86,5.18-4.32-.38a1.39,1.39,0,0,0-.52-.47,1.33,1.33,0,1,0,.19,2.27l2.26,3-6.14.11-3.15-3.07a.66.66,0,1,0-.93.95l2.2,2.15-2.87,0a2,2,0,1,0,0,1.33l2.94-.05L642,624.24a.67.67,0,0,0,1,.93L646,622l5.93-.1L649.83,625a1.32,1.32,0,0,0-1.59,1.93,1.34,1.34,0,0,0,1.83.47,1.31,1.31,0,0,0,.61-.87l3.77-.5-3,5.27-4.24,1.16a.67.67,0,0,0-.46.82.66.66,0,0,0,.82.47l3-.82-1.41,2.5a2.06,2.06,0,1,0,1.17.66l1.44-2.57.83,3a.67.67,0,0,0,1.29-.36l-1.19-4.26,3-5.34,1.71,3.67a1.34,1.34,0,1,0,1.74,0l1.3-3.14,2.7,4.89-1.22,4.25a.67.67,0,0,0,.46.83.66.66,0,0,0,.82-.46l.86-3,1.42,2.57a2.06,2.06,0,1,0,1.17-.64L665.27,633l3,.84a.66.66,0,0,0,.5-.06.71.71,0,0,0,.32-.4.67.67,0,0,0-.46-.83l-4.23-1.2-3.06-5.54,4.64.4a1.3,1.3,0,0,0,.59.59,1.34,1.34,0,1,0-.13-2.3l-2.14-2.79,5.65-.09,3.18,3.07a.67.67,0,0,0,.93-1l-2.22-2.15,2.94,0a2.05,2.05,0,1,0,1.89-2.75Zm-11.87-1.82-2.31,3.31a4.41,4.41,0,0,0-1.66-2.76v0Zm-6.61,7.18a3.12,3.12,0,1,1,3-3.18A3.11,3.11,0,0,1,658.15,624.1Zm-.25-10.94,1.71,3.66a4.44,4.44,0,0,0-1.63-.28,4.19,4.19,0,0,0-1.59.34l0,0Zm-2.67,4.41a4.51,4.51,0,0,0-1.56,2.86l-2.45-3.2Zm-3.84,7.48,2.23-3.19h.1a4.44,4.44,0,0,0,1.59,2.61l0,.08Zm6.86,3.76-1.71-3.65a4.67,4.67,0,0,0,1.64.27,4.59,4.59,0,0,0,1.29-.22l.16.29Zm6.69-4.06-4-.35a4.38,4.38,0,0,0,1.54-2.7h.14Z"/><path class="cls-2" d="M233.76,301.16a2.06,2.06,0,0,0-1.92,1.42l-2.87.05,2.13-2.22a.66.66,0,0,0,.19-.47.64.64,0,0,0-.21-.47.66.66,0,0,0-.94,0l-3,3.17-6,.11,2.26-3.24a1.34,1.34,0,1,0-.76-1.63l-3.88.52,2.78-4.95,4.26-1.19a.67.67,0,0,0,.46-.82.65.65,0,0,0-.82-.46l-3,.82,1.44-2.56a2.05,2.05,0,1,0-1.16-.65l-1.41,2.49-.84-3a.64.64,0,0,0-.31-.39.6.6,0,0,0-.51-.06.66.66,0,0,0-.46.82l1.2,4.23-2.86,5.08-1.65-3.51a1.33,1.33,0,1,0-1.8,0l-1.43,3.43-2.81-5.08,1.24-4.23a.67.67,0,0,0-1.28-.37l-.86,2.95-1.39-2.51a2,2,0,1,0-1.17.65l1.42,2.57-3-.85a.67.67,0,1,0-.37,1.28l4.24,1.22,2.87,5.18-4.33-.37a1.22,1.22,0,0,0-.51-.47,1.33,1.33,0,1,0,.18,2.26l2.27,3-6.14.11L199.91,300a.66.66,0,0,0-.93.95l2.21,2.15-2.87.05a2.07,2.07,0,1,0,0,1.33l2.94-.05-2.14,2.22a.67.67,0,1,0,1,.93l3.07-3.18,5.93-.1L207,307.38a1.31,1.31,0,0,0-1.12.11,1.33,1.33,0,1,0,2,1.42l3.77-.5-3,5.27-4.24,1.17a.66.66,0,0,0-.47.82.67.67,0,0,0,.82.46l3-.81-1.41,2.5a2,2,0,0,0-2.16,1,2.06,2.06,0,1,0,3.32-.35l1.45-2.56.83,3a.66.66,0,0,0,.82.46.66.66,0,0,0,.46-.82l-1.19-4.26,3-5.34,1.72,3.67a1.31,1.31,0,0,0-.44,1,1.33,1.33,0,1,0,2.17-1.06l1.31-3.14,2.7,4.9-1.22,4.24a.67.67,0,1,0,1.28.37l.85-3,1.42,2.57a2.07,2.07,0,1,0,1.17-.64l-1.38-2.51,3,.84a.67.67,0,0,0,.5-.06.65.65,0,0,0,.32-.4.66.66,0,0,0-.46-.82l-4.23-1.21-3.06-5.54,4.64.4a1.27,1.27,0,0,0,.58.59,1.33,1.33,0,1,0-.13-2.3l-2.13-2.78L227,304l3.18,3.07a.66.66,0,1,0,.92-1L228.92,304l3-.05a2,2,0,0,0,2,1.35,2.06,2.06,0,1,0-.07-4.11Zm-11.87-1.81-2.31,3.31a4.41,4.41,0,0,0-1.67-2.77l0,0Zm-6.62,7.17a3.11,3.11,0,1,1,3-3.18A3.12,3.12,0,0,1,215.27,306.52ZM215,295.59l1.71,3.65a4.45,4.45,0,0,0-1.64-.28,4.71,4.71,0,0,0-1.59.34v0ZM212.36,300a4.42,4.42,0,0,0-1.56,2.85l-2.46-3.2Zm-3.84,7.47,2.23-3.19h.1a4.43,4.43,0,0,0,1.59,2.61l0,.07Zm6.86,3.76-1.71-3.65a4.47,4.47,0,0,0,2.92.05l.16.29Zm6.68-4.06-4-.35a4.45,4.45,0,0,0,1.55-2.69h.14Z"/><path class="cls-2" d="M385.1,472a2,2,0,0,0-1.91,1.42l-2.87.05,2.13-2.22a.64.64,0,0,0,.18-.48.66.66,0,0,0-1.14-.45l-3.05,3.18-6,.1,2.26-3.24a1.33,1.33,0,1,0-.17-2.37,1.28,1.28,0,0,0-.59.75l-3.89.51,2.79-4.95,4.26-1.18a.68.68,0,0,0,.46-.83.67.67,0,0,0-.82-.46l-3,.83,1.45-2.56a2.07,2.07,0,1,0-1.16-.66l-1.41,2.5-.84-3a.63.63,0,0,0-.31-.4.69.69,0,0,0-.51-.06.66.66,0,0,0-.46.82l1.2,4.24-2.87,5.08-1.64-3.51a1.33,1.33,0,1,0-2.26-.93,1.37,1.37,0,0,0,.45,1L364,468.63l-2.81-5.09,1.24-4.22a.67.67,0,1,0-1.29-.37l-.86,2.95-1.38-2.51a2.05,2.05,0,0,0-2.52-3.17,2,2,0,0,0,1.35,3.81l1.42,2.58-3-.86a.67.67,0,0,0-.37,1.28l4.25,1.23,2.86,5.18-4.32-.38a1.39,1.39,0,0,0-.52-.47,1.33,1.33,0,1,0,.19,2.27l2.27,3-6.15.1-3.15-3.07a.67.67,0,0,0-.93,1l2.2,2.15-2.87.05a2,2,0,0,0-2-1.36,2.06,2.06,0,1,0,2,2.69l2.94,0-2.14,2.22a.66.66,0,1,0,1,.92l3.06-3.17,5.93-.11-2.14,3.07a1.33,1.33,0,1,0,.86,1.53l3.77-.49-3,5.27-4.25,1.16a.67.67,0,0,0,.36,1.29l3-.82-1.41,2.5a2.06,2.06,0,1,0,1.16.66l1.45-2.57.82,3a.67.67,0,1,0,1.29-.35l-1.19-4.26,3-5.34,1.72,3.67a1.31,1.31,0,0,0-.45,1,1.34,1.34,0,1,0,2.67-.06,1.31,1.31,0,0,0-.49-1l1.3-3.14,2.71,4.89-1.23,4.25a.68.68,0,0,0,.46.83.67.67,0,0,0,.82-.46l.86-3,1.42,2.58a2,2,0,1,0,1.17-.65l-1.39-2.51,3,.84a.69.69,0,0,0,.51-.05.74.74,0,0,0,.32-.41.67.67,0,0,0-.46-.82l-4.24-1.2L369.77,479l4.64.4a1.3,1.3,0,0,0,.59.59,1.33,1.33,0,1,0-.13-2.31l-2.13-2.78,5.64-.1,3.18,3.08a.67.67,0,0,0,.93-1l-2.22-2.14,2.94-.05A2.05,2.05,0,1,0,385.1,472Zm-11.86-1.82-2.32,3.31a4.46,4.46,0,0,0-1.66-2.77v0Zm-6.62,7.18a3.12,3.12,0,1,1,3-3.18A3.12,3.12,0,0,1,366.62,477.37Zm-.25-10.94,1.71,3.65a4.61,4.61,0,0,0-1.63-.27,4.23,4.23,0,0,0-1.59.34v0Zm-2.66,4.41a4.42,4.42,0,0,0-1.56,2.86l-2.46-3.21Zm-3.85,7.48,2.23-3.19h.1a4.41,4.41,0,0,0,1.6,2.61l-.05.08Zm6.86,3.76L365,478.42a4.45,4.45,0,0,0,1.64.28,4.59,4.59,0,0,0,1.29-.22l.16.28Zm6.69-4.07-4-.34a4.45,4.45,0,0,0,1.55-2.7h.14Z"/><path class="cls-2" d="M83.88,625.09A2.06,2.06,0,0,0,82,626.52l-2.87.05,2.13-2.23a.65.65,0,0,0,.18-.47.67.67,0,0,0-.2-.47.68.68,0,0,0-.95,0l-3,3.18-6,.1,2.27-3.24a1.36,1.36,0,0,0,1.19-.08,1.34,1.34,0,0,0-1.37-2.3,1.39,1.39,0,0,0-.59.76l-3.88.51,2.79-5,4.26-1.19a.66.66,0,1,0-.36-1.28l-3,.83L74,613.19a2,2,0,0,0,2.16-1,2.06,2.06,0,1,0-3.32.35L71.46,615l-.84-3a.67.67,0,0,0-.31-.4.71.71,0,0,0-.52-.06.66.66,0,0,0-.45.82l1.2,4.24-2.87,5.08L66,618.24a1.31,1.31,0,0,0,.41-1,1.34,1.34,0,1,0-2.67.06,1.31,1.31,0,0,0,.45,1l-1.42,3.44L60,616.63l1.23-4.22a.65.65,0,0,0-.45-.83.68.68,0,0,0-.83.45l-.86,3-1.39-2.51a2.06,2.06,0,1,0-1.17.64L58,615.7l-3-.86a.67.67,0,0,0-.37,1.28l4.25,1.23,2.86,5.18-4.32-.38a1.39,1.39,0,0,0-.52-.47,1.33,1.33,0,1,0,.19,2.27l2.26,3-6.14.1L50,623.94a.67.67,0,1,0-.93,1l2.2,2.14-2.87.05a2,2,0,0,0-2-1.35,2.06,2.06,0,1,0,2,2.69l2.94,0-2.15,2.22a.66.66,0,1,0,1,.92l3.07-3.17,5.93-.11-2.14,3.07a1.37,1.37,0,0,0-1.13.11,1.33,1.33,0,1,0,2,1.42l3.76-.49-3,5.26-4.25,1.17a.67.67,0,0,0,.36,1.29l3-.82-1.41,2.5a2,2,0,1,0,1.17.65L59,639.84l.83,3a.67.67,0,0,0,.82.47.68.68,0,0,0,.47-.83l-1.19-4.25,3-5.34,1.71,3.66a1.37,1.37,0,0,0-.44,1,1.34,1.34,0,0,0,2.67-.06,1.31,1.31,0,0,0-.49-1l1.3-3.14,2.71,4.89-1.23,4.25a.67.67,0,0,0,1.28.37l.86-3,1.42,2.58a2,2,0,0,0,2.51,3.17,2.05,2.05,0,0,0-1.34-3.82l-1.39-2.51,3,.84a.66.66,0,0,0,.5-.06.65.65,0,0,0,.32-.4.66.66,0,0,0-.46-.82l-4.23-1.2-3.06-5.54,4.64.4a1.4,1.4,0,0,0,.59.59,1.33,1.33,0,1,0-.13-2.31L71.51,628l5.65-.1L80.34,631a.66.66,0,0,0,.94,0,.68.68,0,0,0,0-1l-2.22-2.14,2.94,0a2.05,2.05,0,1,0,1.89-2.76ZM72,623.28l-2.31,3.31A4.46,4.46,0,0,0,68,623.82v0Zm-6.61,7.18a3.12,3.12,0,1,1,3-3.19A3.12,3.12,0,0,1,65.4,630.46Zm-.25-10.94,1.71,3.65a4.65,4.65,0,0,0-1.63-.27,4.43,4.43,0,0,0-1.59.33l0,0Zm-2.66,4.41a4.45,4.45,0,0,0-1.57,2.85l-2.45-3.2Zm-3.85,7.47,2.23-3.19H61a4.48,4.48,0,0,0,1.59,2.61l0,.08Zm6.86,3.77-1.71-3.66a4.45,4.45,0,0,0,1.64.28,4.59,4.59,0,0,0,1.29-.22l.16.28Zm6.69-4.07-4-.34a4.41,4.41,0,0,0,1.54-2.7h.14Z"/><path class="cls-2" d="M180.14,270c5.24,0,5.24-8.12,0-8.12s-5.24,8.12,0,8.12Z"/><path class="cls-2" d="M53.44,384.25c5.24,0,5.24-8.12,0-8.12s-5.24,8.12,0,8.12Z"/><path class="cls-2" d="M116.79,474.27c2.62,0,2.62-4.06,0-4.06s-2.62,4.06,0,4.06Z"/><path class="cls-2" d="M506.65,196.5c2.61,0,2.61-4.06,0-4.06s-2.62,4.06,0,4.06Z"/><path class="cls-2" d="M664.21,183.91c5.24,0,5.24-8.12,0-8.12s-5.24,8.12,0,8.12Z"/><path class="cls-2" d="M690.2,203c2.62,0,2.62-4.06,0-4.06s-2.62,4.06,0,4.06Z"/><path class="cls-2" d="M514.77,45.84c5.24,0,5.24-8.13,0-8.13s-5.24,8.13,0,8.13Z"/><path class="cls-2" d="M451.42,91.32c5.23,0,5.23-8.12,0-8.12s-5.24,8.12,0,8.12Z"/><path class="cls-2" d="M729.19,427.16c2.62,0,2.62-4.06,0-4.06s-2.62,4.06,0,4.06Z"/><path class="cls-2" d="M662.59,486.05c5.24,0,5.24-8.13,0-8.13s-5.24,8.13,0,8.13Z"/><path class="cls-2" d="M614.94,614.91c5.24,0,5.24-8.12,0-8.12s-5.24,8.12,0,8.12Z"/><path class="cls-2" d="M698.33,583.1c2.61,0,2.61-4.06,0-4.06a2,2,0,0,0,0,4.06Z"/><path class="cls-2" d="M136.83,600.43c2.61,0,2.61-4.06,0-4.06a2,2,0,0,0,0,4.06Z"/><path class="cls-2" d="M151.89,229.19c5.24,0,5.24-8.13,0-8.13s-5.24,8.13,0,8.13Z"/><path class="cls-2" d="M132.49,307.91c5.24,0,5.24-8.13,0-8.13s-5.23,8.13,0,8.13Z"/><path class="cls-2" d="M170.3,133.89c5.24,0,5.24-8.12,0-8.12s-5.23,8.12,0,8.12Z"/><path class="cls-2" d="M257,284.08c5.24,0,5.24-8.12,0-8.12s-5.24,8.12,0,8.12Z"/><path class="cls-2" d="M518.83,27.56c2.62,0,2.62-4.06,0-4.06s-2.62,4.06,0,4.06Z"/><path class="cls-2" d="M546.17,92.94c5.24,0,5.24-8.12,0-8.12s-5.23,8.12,0,8.12Z"/><path class="cls-2" d="M550.24,74.67c2.61,0,2.61-4.06,0-4.06a2,2,0,0,0,0,4.06Z"/><path class="cls-2" d="M717.28,515.83c5.24,0,5.24-8.12,0-8.12s-5.24,8.12,0,8.12Z"/><path class="cls-2" d="M653.93,561.31c5.23,0,5.23-8.12,0-8.12s-5.24,8.12,0,8.12Z"/><path class="cls-2" d="M723.23,642.53c5.24,0,5.24-8.12,0-8.12s-5.23,8.12,0,8.12Z"/><path class="cls-2" d="M721.34,497.55c2.62,0,2.62-4.06,0-4.06s-2.62,4.06,0,4.06Z"/><path class="cls-2" d="M623.06,704.26c5.24,0,5.24-8.12,0-8.12s-5.24,8.12,0,8.12Z"/><path class="cls-2" d="M627.12,686c2.62,0,2.62-4.06,0-4.06s-2.62,4.06,0,4.06Z"/><path class="cls-2" d="M194,276.09c2.62,0,2.62-4.06,0-4.06s-2.62,4.06,0,4.06Z"/><path class="cls-2" d="M577.58,135.72c5.24,0,5.24-8.12,0-8.12s-5.24,8.12,0,8.12Z"/><path class="cls-2" d="M518,113c5.24,0,5.24-8.12,0-8.12s-5.24,8.12,0,8.12Z"/><path class="cls-2" d="M554.84,198c5.24,0,5.24-8.12,0-8.12s-5.24,8.12,0,8.12Z"/><path class="cls-2" d="M591.39,141.81c2.61,0,2.61-4.06,0-4.06s-2.62,4.06,0,4.06Z"/><path class="cls-2" d="M101.09,265.67c5.24,0,5.24-8.12,0-8.12s-5.24,8.12,0,8.12Z"/><path class="cls-2" d="M114.9,271.76c2.61,0,2.61-4.06,0-4.06s-2.62,4.06,0,4.06Z"/><path class="cls-2" d="M250,267.16c2.62,0,2.62-4.06,0-4.06s-2.62,4.06,0,4.06Z"/><path class="cls-2" d="M282.48,139.64c2.62,0,2.62-4.06,0-4.06s-2.62,4.06,0,4.06Z"/><path class="cls-2" d="M331.75,97.55c2.62,0,2.62-4.07,0-4.07s-2.62,4.07,0,4.07Z"/><path class="cls-2" d="M284.92,152.64c2.61,0,2.61-4.06,0-4.06a2,2,0,0,0,0,4.06Z"/><path class="cls-2" d="M624.15,323.2c2.61,0,2.61-4.06,0-4.06a2,2,0,0,0,0,4.06Z"/><path class="cls-2" d="M605.73,440c2.62,0,2.62-4.06,0-4.06s-2.62,4.06,0,4.06Z"/><path class="cls-2" d="M644.45,320c2.62,0,2.62-4.06,0-4.06s-2.62,4.06,0,4.06Z"/><path class="cls-2" d="M96.22,585.81c2.61,0,2.61-4.06,0-4.06a2,2,0,0,0,0,4.06Z"/><path class="cls-2" d="M81.6,570c5.23,0,5.23-8.12,0-8.12s-5.24,8.12,0,8.12Z"/><path class="cls-2" d="M144.41,652.28c5.23,0,5.23-8.12,0-8.12s-5.24,8.12,0,8.12Z"/><path class="cls-2" d="M57.77,477.93c5.24,0,5.24-8.13,0-8.13s-5.24,8.13,0,8.13Z"/><path class="cls-2" d="M58.31,716.85c2.62,0,2.62-4.06,0-4.06s-2.62,4.06,0,4.06Z"/><path class="cls-2" d="M43.69,701c5.24,0,5.24-8.12,0-8.12s-5.23,8.12,0,8.12Z"/><path class="cls-2" d="M637.14,346.35c5.24,0,5.24-8.12,0-8.12s-5.24,8.12,0,8.12Z"/><path class="cls-2" d="M580.83,414.57c5.24,0,5.24-8.12,0-8.12s-5.24,8.12,0,8.12Z"/><path class="cls-2" d="M716.76,289.09c-2.6.3-2.13,4.34.47,4s2.14-4.34-.47-4Z"/><path class="cls-2" d="M697,294.65c-2.6.3-2.13,4.33.47,4s2.14-4.33-.47-4Z"/><path class="cls-2" d="M701.2,267.59c-5.21.6-4.27,8.67.93,8.07s4.27-8.67-.93-8.07Z"/><path class="cls-2" d="M305.76,61c-5.2.6-4.27,8.67.93,8.06S311,60.4,305.76,61Z"/><path class="cls-2" d="M626,233.45c5.24,0,5.24-8.12,0-8.12s-5.24,8.12,0,8.12Z"/><path class="cls-2" d="M263.26,204.21c5.23,0,5.23-8.12,0-8.12s-5.24,8.12,0,8.12Z"/></g></g></svg>