<svg xmlns="http://www.w3.org/2000/svg" xmlns:xlink="http://www.w3.org/1999/xlink" viewBox="0 0 753 760"><defs><style>.cls-1{fill:url(#Water_4);}.cls-2{opacity:0.6;}.cls-3{fill:#f6e8da;}</style><linearGradient id="Water_4" x1="339.79" y1="-111.9" x2="1099.79" y2="-111.9" gradientTransform="translate(264.6 -339.79) rotate(90)" gradientUnits="userSpaceOnUse"><stop offset="0" stop-color="#87b9ce"/><stop offset="0.5" stop-color="#3a9cb9"/><stop offset="1" stop-color="#0087a8"/></linearGradient></defs><g id="Слой_2" data-name="Слой 2"><g id="Слой_1-2" data-name="Слой 1"><rect class="cls-1" width="753" height="760"/><g class="cls-2"><path class="cls-3" d="M284.38,104.6a3.16,3.16,0,0,0-2.93,2.18l-4.39.08,3.26-3.4a1,1,0,0,0,0-1.45,1,1,0,0,0-1.44,0l-4.66,4.87-9.14.15,3.47-5a2,2,0,1,0-.27-3.63,2,2,0,0,0-.9,1.15l-6,.78,4.27-7.57L272.19,91a1,1,0,1,0-.55-2l-4.55,1.27,2.21-3.92a3.16,3.16,0,1,0-1.78-1l-2.16,3.83-1.28-4.53a1,1,0,0,0-.48-.61,1,1,0,0,0-1.48,1.17L264,91.72l-4.38,7.78-2.52-5.38a2,2,0,1,0-2.76.06l-2.18,5.25-4.3-7.78,1.89-6.47a1,1,0,0,0-2-.57l-1.32,4.52-2.13-3.84a3.16,3.16,0,1,0-1.79,1l2.18,4-4.54-1.31a1,1,0,0,0-.56,2l6.5,1.87,4.38,7.93-6.62-.57a2,2,0,0,0-.79-.72,2,2,0,1,0,.28,3.47l3.47,4.53-9.4.16-4.83-4.7a1,1,0,1,0-1.42,1.46l3.37,3.29-4.39.08a3.13,3.13,0,1,0,0,2l4.5-.08-3.28,3.4a1,1,0,0,0,0,1.44,1,1,0,0,0,1.45,0l4.7-4.87,9.07-.16-3.28,4.71a2,2,0,0,0-1.72.16,2,2,0,1,0,3,2.18l5.77-.76-4.54,8.06-6.5,1.79a1,1,0,1,0,.55,2l4.54-1.24-2.16,3.82a3.15,3.15,0,1,0,1.78,1l2.21-3.92,1.27,4.55a1,1,0,1,0,2-.55l-1.82-6.52,4.61-8.17L255,122.1a2,2,0,1,0,3.41,1.47,2.08,2.08,0,0,0-.75-1.53l2-4.8,4.14,7.49-1.87,6.5a1,1,0,1,0,2,.57l1.31-4.54,2.18,3.94a3.14,3.14,0,1,0,1.78-1L267,126.37l4.53,1.29a1,1,0,0,0,1.26-.71,1,1,0,0,0-.7-1.26l-6.48-1.84-4.69-8.48L268,116a2,2,0,1,0,2.72-2.76,2,2,0,0,0-2,.13l-3.27-4.26,8.65-.15,4.86,4.7a1,1,0,1,0,1.42-1.47L277,108.9l4.51-.08a3.14,3.14,0,1,0,2.89-4.22Zm-18.16-2.77-3.54,5.06a6.82,6.82,0,0,0-2.55-4.23l0,0Zm-10.14,11a4.77,4.77,0,1,1,4.66-4.87A4.77,4.77,0,0,1,256.08,112.81Zm-.37-16.74,2.62,5.59a6.72,6.72,0,0,0-4.94.1l0,0Zm-4.08,6.75a6.82,6.82,0,0,0-2.39,4.37l-3.76-4.9Zm-5.89,11.44,3.42-4.88h.15a6.76,6.76,0,0,0,2.44,4l-.07.11Zm10.5,5.76-2.61-5.59a6.71,6.71,0,0,0,2.5.42,6.53,6.53,0,0,0,2-.34l.24.44Zm10.24-6.22-6.15-.53a6.83,6.83,0,0,0,2.36-4.12h.22Z" transform="translate(0 -3)"/><path class="cls-3" d="M589,508.53a3.14,3.14,0,0,0-2.93,2.17l-4.39.08,3.26-3.4a1,1,0,1,0-1.48-1.42l-4.66,4.87-9.13.15,3.47-5a2,2,0,0,0,1.81-.12,2,2,0,1,0-2.08-3.51,2,2,0,0,0-.9,1.15l-6,.78,4.27-7.57,6.52-1.82a1,1,0,0,0-.55-2l-4.55,1.27,2.21-3.92a3.15,3.15,0,1,0-1.78-1L570,493.13l-1.28-4.53a1,1,0,0,0-.48-.61,1,1,0,0,0-.78-.09,1,1,0,0,0-.7,1.26l1.83,6.48-4.38,7.78L561.66,498a2,2,0,0,0,.63-1.51,2,2,0,1,0-4.08.09,2,2,0,0,0,.69,1.48l-2.18,5.26-4.31-7.79,1.89-6.47a1,1,0,0,0-.69-1.26,1,1,0,0,0-1.27.69L551,493.05l-2.12-3.84a3.14,3.14,0,1,0-1.79,1l2.18,3.94-4.54-1.31a1,1,0,0,0-.57,2l6.5,1.87,4.39,7.93-6.62-.57a2,2,0,1,0-.51,2.75l3.47,4.53-9.41.16-4.82-4.7a1,1,0,0,0-1.42,1.47l3.37,3.28-4.39.08a3.14,3.14,0,1,0,0,2l4.5-.08L536,517a1,1,0,0,0,0,1.44,1,1,0,0,0,1.45,0l4.7-4.87,9.07-.16L548,518.05a2,2,0,0,0-1.72.16,2,2,0,1,0,2.08,3.51,2,2,0,0,0,.95-1.33l5.77-.76-4.55,8.06L544,529.48a1,1,0,0,0,.54,2l4.55-1.25L546.93,534a3.15,3.15,0,1,0,1.78,1l2.21-3.93,1.27,4.55a1,1,0,0,0,1.26.71,1,1,0,0,0,.71-1.26l-1.83-6.51,4.61-8.18,2.63,5.61a2.05,2.05,0,1,0,2.66,0l2-4.81,4.14,7.49-1.87,6.5a1,1,0,1,0,2,.57l1.31-4.54,2.17,3.94a3.15,3.15,0,1,0,1.79-1l-2.12-3.84,4.53,1.29a1.07,1.07,0,0,0,.77-.09,1,1,0,0,0-.21-1.88l-6.48-1.84-4.69-8.48,7.11.62a2.09,2.09,0,0,0,.89.9,2,2,0,1,0-.2-3.53L570.06,513l8.65-.15,4.86,4.7A1,1,0,1,0,585,516.1l-3.4-3.28,4.5-.08a3.14,3.14,0,1,0,2.9-4.21Zm-18.17-2.78-3.53,5.06a6.84,6.84,0,0,0-2.55-4.23l0,0Zm-10.13,11a4.77,4.77,0,1,1,4.66-4.87A4.77,4.77,0,0,1,560.69,516.73ZM560.32,500l2.62,5.59a6.93,6.93,0,0,0-2.51-.42,6.77,6.77,0,0,0-2.43.52l0,0Zm-4.08,6.75a6.83,6.83,0,0,0-2.4,4.37l-3.75-4.9Zm-5.89,11.45,3.42-4.89h.15a6.76,6.76,0,0,0,2.44,4l-.07.12Zm10.5,5.75-2.61-5.59a6.71,6.71,0,0,0,2.5.42,6.53,6.53,0,0,0,2-.34l.24.44Zm10.24-6.22-6.15-.53a6.83,6.83,0,0,0,2.36-4.12h.22Z" transform="translate(0 -3)"/><path class="cls-3" d="M716.26,680.85a3.12,3.12,0,0,0-2.93,2.17l-4.39.08,3.26-3.4a1,1,0,0,0,.28-.72,1,1,0,0,0-.32-.73,1,1,0,0,0-1.44,0l-4.66,4.86-9.13.16,3.46-5a2,2,0,0,0,2.53-2.93,2,2,0,0,0-2.79-.71,2.05,2.05,0,0,0-.91,1.15l-5.94.79,4.27-7.58,6.51-1.82a1,1,0,0,0-.54-2L699,666.55l2.22-3.92a3.11,3.11,0,0,0,3.3-1.54,3.15,3.15,0,1,0-5.08.54l-2.16,3.82L696,660.92a1,1,0,0,0-.47-.61,1,1,0,0,0-1.49,1.17l1.84,6.48-4.38,7.78-2.52-5.38a2,2,0,1,0-3.46-1.42,2.06,2.06,0,0,0,.69,1.48L684,675.68l-4.3-7.79,1.89-6.46a1,1,0,1,0-2-.58l-1.32,4.52-2.12-3.84a3.15,3.15,0,1,0-1.79,1l2.18,3.94L672,665.15a1,1,0,0,0-1.27.7,1,1,0,0,0,.7,1.26L678,669l4.39,7.93-6.63-.58a2,2,0,0,0-.79-.72,2,2,0,0,0-1.83,3.65,2,2,0,0,0,2.12-.18l3.47,4.53-9.41.16-4.82-4.69a1,1,0,1,0-1.43,1.46l3.38,3.28-4.39.08a3.16,3.16,0,1,0,0,2l4.5-.08-3.28,3.4a1,1,0,0,0,1.47,1.42l4.7-4.87,9.08-.15-3.29,4.7a2,2,0,0,0-1.72.16,2,2,0,1,0,2.09,3.51,2,2,0,0,0,.95-1.33l5.77-.76L677.76,700l-6.49,1.79a1,1,0,0,0,.54,2l4.54-1.25-2.15,3.83a3.13,3.13,0,1,0,1.78,1l2.21-3.93,1.27,4.55a1,1,0,1,0,2-.54l-1.82-6.52,4.61-8.18,2.63,5.62a2,2,0,0,0-.68,1.55,2,2,0,1,0,4.08-.09,2,2,0,0,0-.75-1.52l2-4.81,4.14,7.5-1.88,6.49a1,1,0,0,0,.7,1.27,1,1,0,0,0,1.26-.7L697,703.5l2.18,3.94a3.14,3.14,0,1,0,5.08.58,3.11,3.11,0,0,0-3.29-1.56l-2.12-3.85,4.53,1.29a1,1,0,0,0,1.26-.71,1,1,0,0,0-.71-1.25l-6.48-1.84-4.68-8.48,7.1.61a2,2,0,0,0,3.64,0,2,2,0,0,0-2.94-2.62l-3.26-4.26,8.64-.15,4.87,4.71a1,1,0,0,0,1.42-1.47l-3.4-3.29,4.5-.07a3.15,3.15,0,1,0,2.9-4.22Zm-18.17-2.78-3.54,5.07A6.78,6.78,0,0,0,692,678.9l0,0Zm-10.13,11a4.76,4.76,0,1,1,4.66-4.87A4.77,4.77,0,0,1,688,689.05Zm-.37-16.74,2.61,5.6a6.68,6.68,0,0,0-2.5-.43,6.77,6.77,0,0,0-2.43.52l0,0Zm-4.09,6.76a6.8,6.8,0,0,0-2.39,4.37l-3.76-4.91Zm-5.88,11.44,3.41-4.89h.16a6.79,6.79,0,0,0,2.43,4l-.06.12Zm10.5,5.76-2.62-5.6a6.71,6.71,0,0,0,2.5.42,6.48,6.48,0,0,0,2-.34l.25.44Zm10.24-6.22-6.16-.53a6.79,6.79,0,0,0,2.37-4.13h.21Z" transform="translate(0 -3)"/><path class="cls-3" d="M127.45,421.56a3.14,3.14,0,0,0-2.93,2.18l-4.39.08,3.25-3.41a1,1,0,0,0,.29-.72,1,1,0,0,0-1.76-.69l-4.66,4.86-9.13.16,3.46-5a2,2,0,1,0-1.17-2.48l-5.94.78,4.27-7.58,6.51-1.81a1,1,0,0,0,.71-1.26,1,1,0,0,0-1.26-.71l-4.55,1.27,2.21-3.93a3.13,3.13,0,1,0-1.78-1l-2.15,3.83-1.29-4.53a1,1,0,0,0-.48-.61,1,1,0,0,0-.78-.1,1,1,0,0,0-.7,1.26l1.84,6.48-4.39,7.79-2.51-5.39a2,2,0,0,0,.62-1.51,2,2,0,0,0-4.08.09,2,2,0,0,0,.69,1.48l-2.18,5.26-4.3-7.79,1.89-6.46a1,1,0,1,0-2-.57l-1.32,4.52-2.12-3.85a3.15,3.15,0,1,0-1.79,1l2.18,3.94-4.54-1.31a1,1,0,0,0-.57,2l6.5,1.87,4.38,7.93-6.62-.58a2,2,0,0,0-3.53.2,2,2,0,0,0,3,2.56l3.47,4.53-9.41.16-4.83-4.7a1,1,0,0,0-1.44,0,1,1,0,0,0,0,1.45l3.38,3.29-4.39.07a3.16,3.16,0,1,0,0,2l4.5-.07L74.45,430a1,1,0,0,0,0,1.45,1,1,0,0,0,1.44,0l4.7-4.86,9.08-.16-3.29,4.7a2,2,0,1,0,1.32,2.34l5.77-.75L89,440.73l-6.49,1.78a1,1,0,1,0,.54,2l4.54-1.25-2.16,3.83a3.15,3.15,0,1,0,1.78,1l2.22-3.92,1.26,4.55a1,1,0,0,0,2-.55l-1.82-6.52,4.61-8.18L98,439.06a2,2,0,1,0,3.4,1.46,2,2,0,0,0-.75-1.52l2-4.81,4.14,7.5-1.88,6.5a1,1,0,0,0,.7,1.26,1,1,0,0,0,1.26-.7l1.31-4.53,2.18,3.94a3.14,3.14,0,1,0,1.79-1l-2.13-3.84,4.54,1.28a1,1,0,0,0,.77-.09,1,1,0,0,0,.49-.61,1,1,0,0,0-.71-1.26l-6.48-1.84L104,432.33l7.1.61a2,2,0,0,0,.9.9,2,2,0,0,0,1.83-3.65,2,2,0,0,0-2,.13l-3.27-4.26,8.65-.15,4.87,4.7a1,1,0,0,0,1.42-1.47l-3.4-3.28,4.5-.08a3.15,3.15,0,1,0,2.9-4.22Zm-18.17-2.78-3.54,5.07a6.7,6.7,0,0,0-2.55-4.23l0,0Zm-10.13,11a4.77,4.77,0,1,1,4.66-4.87A4.77,4.77,0,0,1,99.15,429.77ZM98.78,413l2.61,5.59a6.67,6.67,0,0,0-2.5-.42,6.76,6.76,0,0,0-2.43.51l0,0Zm-4.09,6.75a6.8,6.8,0,0,0-2.39,4.37l-3.76-4.9Zm-5.88,11.44,3.41-4.88h.16a6.82,6.82,0,0,0,2.43,4l-.06.11ZM99.31,437l-2.62-5.6a6.71,6.71,0,0,0,2.5.43,7.14,7.14,0,0,0,2-.34l.24.44Zm10.24-6.22-6.16-.53a6.79,6.79,0,0,0,2.37-4.13H106Z" transform="translate(0 -3)"/><path class="cls-3" d="M712.21,393.46a3.12,3.12,0,0,0-2.93,2.17l-4.39.08,3.26-3.4a1,1,0,0,0,.28-.72,1,1,0,0,0-.32-.73,1,1,0,0,0-1.44,0L702,395.76l-9.13.16,3.46-5a2,2,0,0,0,2.53-2.93,2,2,0,0,0-2.79-.71,2.05,2.05,0,0,0-.91,1.15l-5.94.79,4.27-7.58,6.51-1.82a1,1,0,0,0-.54-2l-4.56,1.27,2.21-3.92a3.11,3.11,0,0,0,3.31-1.54,3.15,3.15,0,1,0-5.08.54l-2.16,3.82-1.28-4.53a1.06,1.06,0,0,0-.48-.61,1,1,0,0,0-1.49,1.17l1.84,6.48-4.39,7.78L684.88,383a2,2,0,1,0-3.46-1.42,2.06,2.06,0,0,0,.69,1.48l-2.18,5.26-4.3-7.79,1.89-6.46a1,1,0,1,0-2-.58L674.24,378l-2.12-3.84a3.15,3.15,0,1,0-1.79,1l2.18,3.94L668,377.76a1,1,0,0,0-1.27.7,1,1,0,0,0,.7,1.26l6.5,1.88,4.38,7.93-6.62-.58a2,2,0,0,0-.79-.72,2,2,0,1,0-1.83,3.65,2,2,0,0,0,2.12-.18l3.47,4.53-9.41.16-4.82-4.69a1,1,0,1,0-1.43,1.46l3.38,3.28-4.39.08a3.16,3.16,0,1,0,0,2l4.5-.08-3.28,3.4a1,1,0,0,0,1.47,1.42l4.7-4.87,9.08-.15-3.29,4.7a2,2,0,0,0-1.72.16,2,2,0,1,0,3,2.18l5.77-.76-4.55,8.06-6.49,1.79a1,1,0,0,0,.54,2l4.54-1.25L670.14,419a3.13,3.13,0,1,0,1.79,1l2.21-3.93,1.27,4.55a1,1,0,0,0,2-.54l-1.82-6.52,4.61-8.18,2.63,5.62a2,2,0,0,0-.68,1.55,2,2,0,1,0,4.08-.09,2,2,0,0,0-.75-1.52l2-4.81,4.14,7.5-1.88,6.49a1,1,0,0,0,.7,1.27,1,1,0,0,0,1.26-.7l1.31-4.54,2.18,3.94a3.14,3.14,0,1,0,5.08.58,3.11,3.11,0,0,0-3.29-1.56l-2.13-3.85,4.54,1.29a1,1,0,0,0,1.26-.71,1,1,0,0,0-.7-1.25l-6.49-1.85-4.68-8.47,7.1.61a2,2,0,0,0,3.64,0,2,2,0,0,0-2.94-2.62L693.28,398l8.64-.15,4.87,4.7a1,1,0,1,0,1.42-1.46l-3.4-3.29,4.5-.07a3.15,3.15,0,1,0,2.9-4.22ZM694,390.68l-3.54,5.07a6.78,6.78,0,0,0-2.54-4.24v0Zm-10.13,11a4.76,4.76,0,1,1,4.66-4.87A4.77,4.77,0,0,1,683.91,401.66Zm-.37-16.74,2.61,5.6a6.68,6.68,0,0,0-2.5-.43,6.77,6.77,0,0,0-2.43.52l0,0Zm-4.09,6.76a6.8,6.8,0,0,0-2.39,4.37l-3.76-4.91Zm-5.88,11.44,3.41-4.89h.16a6.79,6.79,0,0,0,2.43,4l-.06.12Zm10.5,5.76-2.62-5.6a6.74,6.74,0,0,0,2.5.42,6.48,6.48,0,0,0,2-.34l.25.44Zm10.24-6.22-6.16-.53a6.82,6.82,0,0,0,2.37-4.13h.21Z" transform="translate(0 -3)"/><path class="cls-3" d="M123.09,684.76a3.16,3.16,0,0,0-2.93,2.18l-4.39.08,3.26-3.4a1,1,0,1,0-1.48-1.42l-4.65,4.87-9.14.16,3.47-5a2,2,0,1,0-.27-3.64,2,2,0,0,0-.9,1.15l-6,.78,4.27-7.57,6.52-1.82a1,1,0,1,0-.55-2l-4.55,1.27,2.21-3.92a3.15,3.15,0,1,0-1.78-1l-2.16,3.82-1.28-4.53a1,1,0,0,0-.48-.61,1,1,0,0,0-.78-.09,1,1,0,0,0-.7,1.26l1.83,6.48-4.38,7.78-2.52-5.38a2,2,0,0,0,.63-1.51A2,2,0,1,0,93,674.34l-2.18,5.26-4.3-7.79,1.89-6.46a1,1,0,0,0-2-.58l-1.32,4.52L83,665.45a3.14,3.14,0,1,0-1.79,1l2.18,3.94-4.54-1.31a1,1,0,0,0-.56,2l6.5,1.88,4.38,7.92-6.62-.57A2,2,0,1,0,82,683l3.47,4.53-9.4.16L71.28,683a1,1,0,0,0-1.42,1.47l3.37,3.28-4.39.08a3.14,3.14,0,1,0,0,2l4.5-.08-3.28,3.4a1,1,0,0,0,0,1.44,1,1,0,0,0,1.45,0l4.7-4.87,9.07-.16-3.28,4.71a2,2,0,0,0-1.72.16,2,2,0,1,0,3,2.18l5.77-.76-4.54,8.06-6.5,1.79a1,1,0,0,0-.71,1.25,1,1,0,0,0,1.26.72l4.54-1.25L81,710.26a3.16,3.16,0,1,0,1.78,1L85,707.34l1.27,4.55a1,1,0,1,0,2-.55l-1.82-6.51,4.61-8.18,2.62,5.62a2,2,0,0,0-.67,1.55,2,2,0,1,0,4.08-.09,2.08,2.08,0,0,0-.75-1.53l2-4.8,4.14,7.49-1.87,6.5a1,1,0,1,0,2,.57l1.31-4.54,2.17,3.94a3.15,3.15,0,1,0,1.79-1l-2.12-3.84,4.53,1.29a1.07,1.07,0,0,0,.77-.09,1,1,0,0,0-.21-1.88L104.31,704l-4.69-8.48,7.11.62a2.09,2.09,0,0,0,.89.9,2,2,0,0,0,1.83-3.65,2,2,0,0,0-2,.12l-3.27-4.26,8.65-.15,4.86,4.7a1,1,0,1,0,1.42-1.47l-3.4-3.28,4.51-.08a3.14,3.14,0,1,0,2.89-4.22ZM104.93,682l-3.54,5.07a6.84,6.84,0,0,0-2.55-4.24l0,0ZM94.79,693a4.76,4.76,0,1,1,4.66-4.87A4.76,4.76,0,0,1,94.79,693Zm-.37-16.74,2.62,5.6a6.71,6.71,0,0,0-2.5-.43,6.82,6.82,0,0,0-2.44.52l0,0ZM90.34,683A6.77,6.77,0,0,0,88,687.35l-3.76-4.9Zm-5.89,11.44,3.42-4.89H88a6.76,6.76,0,0,0,2.44,4l-.07.12ZM95,700.18l-2.61-5.59a6.71,6.71,0,0,0,2.5.42,6.53,6.53,0,0,0,2-.34l.24.44ZM105.19,694,99,693.43a6.83,6.83,0,0,0,2.36-4.12h.22Z" transform="translate(0 -3)"/><path class="cls-3" d="M229.9,46.09A2.06,2.06,0,0,0,228,47.51l-2.86.05,2.12-2.22a.66.66,0,0,0,.19-.47.64.64,0,0,0-.21-.47.66.66,0,0,0-.94,0l-3,3.17-6,.11,2.26-3.24a1.33,1.33,0,1,0-.17-2.38,1.3,1.3,0,0,0-.59.76l-3.88.51,2.79-5,4.25-1.19a.66.66,0,0,0,.46-.82.65.65,0,0,0-.82-.46l-3,.82L220,34.19a2.05,2.05,0,1,0-1.16-.65L217.47,36l-.83-3a.68.68,0,0,0-.83-.46.67.67,0,0,0-.46.82l1.2,4.23-2.86,5.09-1.64-3.52a1.35,1.35,0,0,0,.4-1,1.33,1.33,0,1,0-2.21,1l-1.42,3.43L206,37.63l1.23-4.23A.67.67,0,0,0,206,33L205.1,36l-1.39-2.51a2,2,0,1,0-1.17.65L204,36.69l-3-.85a.67.67,0,1,0-.37,1.28l4.25,1.22,2.86,5.18-4.33-.37a1.22,1.22,0,0,0-.51-.47,1.33,1.33,0,0,0-1.2,2.38,1.32,1.32,0,0,0,1.38-.12l2.27,3-6.14.11-3.16-3.07a.66.66,0,0,0-.94,0,.68.68,0,0,0,0,.95L197.33,48l-2.87.05a2.07,2.07,0,1,0,0,1.33l2.94-.05-2.14,2.22a.67.67,0,1,0,1,.93l3.07-3.18,5.93-.1-2.15,3.07a1.31,1.31,0,0,0-1.12.11,1.33,1.33,0,1,0,1.36,2.29,1.3,1.3,0,0,0,.62-.87l3.77-.5-3,5.27-4.24,1.17a.66.66,0,1,0,.35,1.28l3-.81-1.41,2.5a2,2,0,0,0-2.16,1,2.06,2.06,0,1,0,3.32-.35L205,60.84l.83,3a.67.67,0,0,0,.82.47.68.68,0,0,0,.46-.83L206,59.2l3-5.35,1.71,3.67a1.31,1.31,0,0,0-.44,1,1.33,1.33,0,1,0,2.17-1.06l1.31-3.14,2.7,4.9-1.22,4.24a.67.67,0,1,0,1.28.37l.85-3,1.43,2.57a2.05,2.05,0,0,0,2.51,3.18,2.05,2.05,0,0,0-1.35-3.82l-1.38-2.51,3,.84a.67.67,0,0,0,.5-.06.65.65,0,0,0,.32-.4.66.66,0,0,0-.46-.82l-4.23-1.21-3.06-5.54,4.64.41a1.3,1.3,0,0,0,.58.58,1.33,1.33,0,1,0-.13-2.3L217.53,49l5.65-.1L226.36,52a.66.66,0,0,0,.92-1l-2.22-2.14,2.95,0a2.05,2.05,0,0,0,4-.74A2.06,2.06,0,0,0,229.9,46.09ZM218,44.28l-2.31,3.31a4.41,4.41,0,0,0-1.67-2.77l0,0Zm-6.62,7.17a3.11,3.11,0,1,1,3.05-3.18A3.11,3.11,0,0,1,211.41,51.45Zm-.24-10.93,1.71,3.65a4.45,4.45,0,0,0-1.64-.28,4.71,4.71,0,0,0-1.59.34v0Zm-2.67,4.41a4.42,4.42,0,0,0-1.56,2.85l-2.46-3.2Zm-3.84,7.47,2.23-3.19h.1a4.43,4.43,0,0,0,1.59,2.61l0,.07Zm6.86,3.76-1.71-3.65a4.47,4.47,0,0,0,2.92.05l.16.29Zm6.69-4.06-4-.35a4.45,4.45,0,0,0,1.55-2.69h.14Z" transform="translate(0 -3)"/><path class="cls-3" d="M597,650.29a2,2,0,0,0-1.91,1.42l-2.87,0,2.13-2.22a.69.69,0,0,0,.18-.47.67.67,0,0,0-1.15-.45l-3,3.18-6,.1,2.27-3.24a1.33,1.33,0,1,0-.18-2.38,1.39,1.39,0,0,0-.59.76l-3.88.51,2.79-4.95,4.25-1.19a.67.67,0,0,0,.47-.82.66.66,0,0,0-.82-.46l-3,.83,1.45-2.57a2,2,0,1,0-1.17-.65l-1.4,2.5-.84-3a.68.68,0,0,0-.83-.46.66.66,0,0,0-.45.82l1.2,4.23L580.75,647l-1.64-3.52a1.33,1.33,0,0,0-1-2.29,1.33,1.33,0,0,0-.85,2.33l-1.42,3.44-2.81-5.09,1.23-4.22a.65.65,0,0,0-.45-.83.67.67,0,0,0-.83.45l-.86,2.95-1.39-2.51a2,2,0,0,0-2.51-3.17,2.05,2.05,0,0,0,1.34,3.82l1.43,2.57-3-.85a.67.67,0,0,0-.37,1.28l4.25,1.22,2.86,5.18-4.32-.37a1.31,1.31,0,0,0-.52-.47,1.33,1.33,0,0,0-1.2,2.38,1.3,1.3,0,0,0,1.38-.12l2.27,3-6.14.11-3.15-3.07a.67.67,0,1,0-.93,1l2.2,2.14-2.87,0a2.05,2.05,0,0,0-4,.74,2.06,2.06,0,0,0,4,.6l2.94,0-2.15,2.21a.68.68,0,0,0,0,1,.66.66,0,0,0,.94,0l3.07-3.18,5.93-.1-2.14,3.07a1.33,1.33,0,1,0,.24,2.4A1.31,1.31,0,0,0,571,658l3.77-.49-3,5.26L567.57,664a.66.66,0,0,0,.36,1.28l3-.81-1.41,2.5a2,2,0,0,0-1.38,3.8,2.05,2.05,0,0,0,2.55-3.15l1.44-2.56.83,3a.67.67,0,0,0,.82.47.69.69,0,0,0,.47-.83L573,663.4l3-5.35,1.71,3.67a1.34,1.34,0,0,0-.44,1,1.34,1.34,0,0,0,2.67-.06,1.34,1.34,0,0,0-.49-1l1.3-3.14,2.7,4.9-1.22,4.25a.66.66,0,0,0,.46.82.65.65,0,0,0,.82-.46l.86-3,1.42,2.57A2.06,2.06,0,1,0,587,667l-1.38-2.51,3,.84a.66.66,0,0,0,.5-.06.65.65,0,0,0,.32-.4.66.66,0,0,0-.46-.82l-4.23-1.2-3.06-5.54,4.64.4a1.33,1.33,0,1,0,1.78-1.8,1.32,1.32,0,0,0-1.32.08l-2.14-2.78,5.65-.1,3.18,3.07a.66.66,0,0,0,.94,0,.66.66,0,0,0,0-.94l-2.22-2.14,2.94-.05a2.05,2.05,0,0,0,4-.74A2.06,2.06,0,0,0,597,650.29Zm-11.87-1.81-2.31,3.31a4.44,4.44,0,0,0-1.66-2.77v0Zm-6.62,7.17a3.11,3.11,0,1,1,3-3.18A3.1,3.1,0,0,1,578.47,655.65Zm-.24-10.93,1.71,3.65a4.44,4.44,0,0,0-1.63-.28,4.61,4.61,0,0,0-1.59.34l0,0Zm-2.67,4.41A4.46,4.46,0,0,0,574,652l-2.45-3.2Zm-3.84,7.47,2.23-3.19h.1a4.48,4.48,0,0,0,1.59,2.61l0,.07Zm6.86,3.76-1.71-3.65a4.23,4.23,0,0,0,1.63.27,4,4,0,0,0,1.3-.22l.15.29Zm6.69-4.06-4-.35a4.48,4.48,0,0,0,1.54-2.69h.14Z" transform="translate(0 -3)"/><path class="cls-3" d="M673.63,619.24a2,2,0,0,0-1.91,1.42l-2.87.05,2.13-2.22a.62.62,0,0,0,.18-.47.66.66,0,0,0-1.15-.45l-3,3.17-6,.1,2.27-3.24a1.33,1.33,0,1,0-.18-2.37,1.36,1.36,0,0,0-.59.75l-3.88.51,2.79-5,4.25-1.18a.67.67,0,1,0-.35-1.29l-3,.83,1.45-2.56a2.06,2.06,0,1,0-1.16-.66l-1.41,2.5-.84-3a.71.71,0,0,0-.32-.4.68.68,0,0,0-.51-.06.67.67,0,0,0-.45.83l1.2,4.23-2.87,5.08-1.64-3.51a1.33,1.33,0,1,0-1.81,0l-1.42,3.43-2.81-5.09,1.23-4.22a.66.66,0,0,0-.45-.83.68.68,0,0,0-.83.46l-.86,3-1.39-2.51a2.06,2.06,0,1,0-1.17.64l1.43,2.58-3-.86a.66.66,0,0,0-.82.46.67.67,0,0,0,.45.83l4.25,1.22,2.86,5.18-4.32-.38a1.39,1.39,0,0,0-.52-.47,1.33,1.33,0,1,0,.19,2.27l2.26,3-6.14.11-3.15-3.07a.66.66,0,1,0-.93.95l2.2,2.15-2.87,0a2,2,0,1,0,0,1.33l2.94-.05L639,624.74a.67.67,0,0,0,1,.93l3.07-3.18,5.93-.1-2.14,3.07a1.32,1.32,0,0,0-1.59,1.93,1.34,1.34,0,0,0,1.83.47,1.31,1.31,0,0,0,.61-.87l3.77-.5-3,5.27-4.24,1.16a.67.67,0,0,0-.46.82.66.66,0,0,0,.82.47l3-.82-1.41,2.5a2.06,2.06,0,1,0,1.17.66l1.44-2.57.83,3a.67.67,0,0,0,1.29-.36l-1.19-4.26,3-5.34,1.71,3.67a1.34,1.34,0,1,0,1.74,0l1.3-3.14,2.7,4.89-1.22,4.25a.67.67,0,0,0,.46.83.66.66,0,0,0,.82-.46l.86-3,1.42,2.57a2.06,2.06,0,1,0,1.17-.64l-1.39-2.51,3,.84a.66.66,0,0,0,.5-.06.71.71,0,0,0,.32-.4.67.67,0,0,0-.46-.83l-4.23-1.2-3.06-5.54,4.64.4a1.3,1.3,0,0,0,.59.59,1.34,1.34,0,1,0-.13-2.3l-2.14-2.79,5.65-.09,3.18,3.07a.67.67,0,0,0,.93-1L668.8,622l2.94,0a2.05,2.05,0,1,0,1.89-2.75Zm-11.87-1.82-2.31,3.31a4.41,4.41,0,0,0-1.66-2.76v0Zm-6.61,7.18a3.12,3.12,0,1,1,3-3.18A3.11,3.11,0,0,1,655.15,624.6Zm-.25-10.94,1.71,3.66A4.44,4.44,0,0,0,655,617a4.19,4.19,0,0,0-1.59.34l0,0Zm-2.67,4.41a4.51,4.51,0,0,0-1.56,2.86l-2.45-3.2Zm-3.84,7.48,2.23-3.19h.1a4.44,4.44,0,0,0,1.59,2.61l0,.08Zm6.86,3.76-1.71-3.65a4.67,4.67,0,0,0,1.64.27,4.59,4.59,0,0,0,1.29-.22l.16.29Zm6.69-4.06-4-.35a4.38,4.38,0,0,0,1.54-2.7h.14Z" transform="translate(0 -3)"/><path class="cls-3" d="M324,508.53a3.14,3.14,0,0,0-2.93,2.17l-4.39.08,3.26-3.4a1,1,0,0,0-1.48-1.42l-4.66,4.87-9.13.15,3.47-5a2,2,0,0,0,1.81-.12,2,2,0,1,0-2.08-3.51,2,2,0,0,0-.9,1.15l-5.95.78,4.27-7.57,6.52-1.82a1,1,0,0,0-.55-2l-4.55,1.27,2.21-3.92a3.15,3.15,0,1,0-1.78-1L305,493.13l-1.28-4.53a1,1,0,0,0-.48-.61,1,1,0,0,0-.78-.09,1,1,0,0,0-.7,1.26l1.83,6.48-4.38,7.78L296.66,498a2,2,0,0,0,.63-1.51,2,2,0,1,0-4.08.09,2,2,0,0,0,.69,1.48l-2.18,5.26-4.31-7.79,1.89-6.47a1,1,0,0,0-.69-1.26,1,1,0,0,0-1.27.69L286,493.05l-2.12-3.84a3.14,3.14,0,1,0-1.79,1l2.18,3.94-4.54-1.31a1,1,0,0,0-.57,2l6.5,1.87,4.39,7.93-6.62-.57a2,2,0,1,0-.51,2.75l3.47,4.53-9.41.16-4.82-4.7a1,1,0,0,0-1.42,1.47l3.37,3.28-4.39.08a3.14,3.14,0,1,0,0,2l4.5-.08L271,517a1,1,0,0,0,0,1.44,1,1,0,0,0,1.45,0l4.7-4.87,9.07-.16L283,518.05a2,2,0,0,0-1.72.16,2,2,0,1,0,2.08,3.51,2,2,0,0,0,.95-1.33l5.77-.76-4.55,8.06L279,529.48a1,1,0,0,0,.54,2l4.55-1.25L281.93,534a3.15,3.15,0,1,0,1.78,1l2.21-3.93,1.27,4.55a1,1,0,0,0,1.26.71,1,1,0,0,0,.71-1.26l-1.83-6.51,4.61-8.18,2.63,5.61a2.05,2.05,0,1,0,2.66,0l2-4.81,4.14,7.49-1.87,6.5a1,1,0,1,0,2,.57l1.31-4.54,2.17,3.94a3.15,3.15,0,1,0,1.79-1l-2.12-3.84,4.53,1.29a1.07,1.07,0,0,0,.77-.09,1,1,0,0,0-.21-1.88l-6.48-1.84-4.69-8.48,7.11.62a2.09,2.09,0,0,0,.89.9,2,2,0,1,0-.2-3.53L305.06,513l8.65-.15,4.86,4.7A1,1,0,1,0,320,516.1l-3.4-3.28,4.5-.08a3.14,3.14,0,1,0,2.9-4.21Zm-18.17-2.78-3.53,5.06a6.84,6.84,0,0,0-2.55-4.23l0,0Zm-10.13,11a4.77,4.77,0,1,1,4.66-4.87A4.77,4.77,0,0,1,295.69,516.73ZM295.32,500l2.62,5.59a6.93,6.93,0,0,0-2.51-.42,6.77,6.77,0,0,0-2.43.52l0,0Zm-4.08,6.75a6.83,6.83,0,0,0-2.4,4.37l-3.75-4.9Zm-5.89,11.45,3.42-4.89h.15a6.76,6.76,0,0,0,2.44,4l-.07.12Zm10.5,5.75-2.61-5.59a6.71,6.71,0,0,0,2.5.42,6.53,6.53,0,0,0,2-.34l.24.44Zm10.24-6.22-6.15-.53a6.83,6.83,0,0,0,2.36-4.12h.22Z" transform="translate(0 -3)"/><path class="cls-3" d="M451.26,680.85a3.12,3.12,0,0,0-2.93,2.17l-4.39.08,3.26-3.4a1,1,0,0,0,.28-.72,1,1,0,0,0-.32-.73,1,1,0,0,0-1.44,0l-4.66,4.86-9.13.16,3.46-5a2,2,0,0,0,2.53-2.93,2,2,0,0,0-2.79-.71,2.05,2.05,0,0,0-.91,1.15l-5.94.79,4.27-7.58,6.51-1.82a1,1,0,0,0-.54-2L434,666.55l2.22-3.92a3.11,3.11,0,0,0,3.3-1.54,3.15,3.15,0,1,0-5.08.54l-2.16,3.82L431,660.92a1,1,0,0,0-.47-.61,1,1,0,0,0-1.49,1.17l1.84,6.48-4.38,7.78-2.52-5.38a2,2,0,1,0-3.46-1.42,2.06,2.06,0,0,0,.69,1.48L419,675.68l-4.3-7.79,1.89-6.46a1,1,0,0,0-2-.58l-1.32,4.52-2.12-3.84a3.15,3.15,0,1,0-1.79,1l2.18,3.94L407,665.15a1,1,0,0,0-1.27.7,1,1,0,0,0,.7,1.26L413,669l4.39,7.93-6.63-.58a2,2,0,0,0-.79-.72,2,2,0,0,0-1.83,3.65,2,2,0,0,0,2.12-.18l3.47,4.53-9.41.16-4.82-4.69a1,1,0,1,0-1.43,1.46l3.38,3.28-4.39.08a3.16,3.16,0,1,0,0,2l4.5-.08-3.28,3.4a1,1,0,0,0,1.47,1.42l4.7-4.87,9.08-.15-3.29,4.7a2,2,0,0,0-1.72.16,2,2,0,0,0,2.09,3.51,2,2,0,0,0,1-1.33l5.77-.76L412.76,700l-6.49,1.79a1,1,0,0,0,.54,2l4.54-1.25-2.15,3.83a3.13,3.13,0,1,0,1.78,1l2.21-3.93,1.27,4.55a1,1,0,1,0,2-.54l-1.82-6.52,4.61-8.18,2.63,5.62a2,2,0,0,0-.68,1.55,2,2,0,1,0,4.08-.09,2,2,0,0,0-.75-1.52l2-4.81,4.14,7.5-1.88,6.49a1,1,0,0,0,.7,1.27,1,1,0,0,0,1.26-.7L432,703.5l2.18,3.94a3.14,3.14,0,1,0,5.08.58,3.11,3.11,0,0,0-3.29-1.56l-2.12-3.85,4.53,1.29a1,1,0,0,0,1.26-.71,1,1,0,0,0-.71-1.25l-6.48-1.84-4.68-8.48,7.1.61a2,2,0,0,0,3.64,0,2,2,0,0,0-2.94-2.62l-3.26-4.26,8.64-.15,4.87,4.71a1,1,0,0,0,1.42-1.47l-3.4-3.29,4.5-.07a3.15,3.15,0,1,0,2.9-4.22Zm-18.17-2.78-3.54,5.07A6.78,6.78,0,0,0,427,678.9l0,0Zm-10.13,11a4.76,4.76,0,1,1,4.66-4.87A4.77,4.77,0,0,1,423,689.05Zm-.37-16.74,2.61,5.6a6.68,6.68,0,0,0-2.5-.43,6.77,6.77,0,0,0-2.43.52l0,0Zm-4.09,6.76a6.8,6.8,0,0,0-2.39,4.37l-3.76-4.91Zm-5.88,11.44,3.41-4.89h.16a6.79,6.79,0,0,0,2.43,4l-.06.12Zm10.5,5.76-2.62-5.6a6.71,6.71,0,0,0,2.5.42,6.48,6.48,0,0,0,2-.34l.25.44Zm10.24-6.22-6.16-.53a6.79,6.79,0,0,0,2.37-4.13h.21Z" transform="translate(0 -3)"/><path class="cls-3" d="M332,650.29a2,2,0,0,0-1.91,1.42l-2.87,0,2.13-2.22a.69.69,0,0,0,.18-.47.67.67,0,0,0-1.15-.45l-3,3.18-6,.1,2.27-3.24a1.33,1.33,0,1,0-.18-2.38,1.39,1.39,0,0,0-.59.76l-3.88.51,2.79-4.95,4.25-1.19a.67.67,0,0,0,.47-.82.66.66,0,0,0-.82-.46l-3,.83,1.45-2.57a2,2,0,1,0-1.17-.65l-1.4,2.5-.84-3a.68.68,0,0,0-.83-.46.66.66,0,0,0-.45.82l1.2,4.23L315.75,647l-1.64-3.52a1.33,1.33,0,0,0-1-2.29,1.33,1.33,0,0,0-.85,2.33l-1.42,3.44-2.81-5.09,1.23-4.22a.65.65,0,0,0-.45-.83.67.67,0,0,0-.83.45l-.86,2.95-1.39-2.51a2,2,0,0,0-2.51-3.17,2.05,2.05,0,0,0,1.34,3.82l1.43,2.57-3-.85a.67.67,0,0,0-.37,1.28l4.25,1.22,2.86,5.18-4.32-.37a1.31,1.31,0,0,0-.52-.47,1.33,1.33,0,1,0-1.2,2.38,1.3,1.3,0,0,0,1.38-.12l2.27,3-6.14.11-3.15-3.07a.67.67,0,1,0-.93,1l2.2,2.14-2.87,0a2.05,2.05,0,0,0-4,.74,2.06,2.06,0,0,0,4,.6l2.94,0-2.15,2.21a.68.68,0,0,0,0,1,.66.66,0,0,0,.94,0l3.07-3.18,5.93-.1-2.14,3.07a1.33,1.33,0,1,0,.24,2.4A1.31,1.31,0,0,0,306,658l3.77-.49-3,5.26L302.57,664a.66.66,0,0,0,.36,1.28l3-.81-1.41,2.5a2,2,0,0,0-1.38,3.8,2.05,2.05,0,0,0,2.55-3.15l1.44-2.56.83,3a.67.67,0,0,0,.82.47.69.69,0,0,0,.47-.83L308,663.4l3-5.35,1.71,3.67a1.34,1.34,0,0,0-.44,1,1.34,1.34,0,0,0,2.67-.06,1.34,1.34,0,0,0-.49-1l1.3-3.14,2.7,4.9-1.22,4.25a.66.66,0,0,0,.46.82.65.65,0,0,0,.82-.46l.86-3,1.42,2.57A2.06,2.06,0,1,0,322,667l-1.38-2.51,3,.84a.66.66,0,0,0,.5-.06.65.65,0,0,0,.32-.4.66.66,0,0,0-.46-.82l-4.23-1.2-3.06-5.54,4.64.4a1.33,1.33,0,1,0,1.78-1.8,1.32,1.32,0,0,0-1.32.08l-2.14-2.78,5.65-.1,3.18,3.07a.66.66,0,0,0,.94,0,.66.66,0,0,0,0-.94l-2.22-2.14,2.94-.05a2.05,2.05,0,0,0,4-.74A2.06,2.06,0,0,0,332,650.29Zm-11.87-1.81-2.31,3.31a4.44,4.44,0,0,0-1.66-2.77v0Zm-6.62,7.17a3.11,3.11,0,1,1,3-3.18A3.1,3.1,0,0,1,313.47,655.65Zm-.24-10.93,1.71,3.65a4.44,4.44,0,0,0-1.63-.28,4.61,4.61,0,0,0-1.59.34l0,0Zm-2.67,4.41A4.46,4.46,0,0,0,309,652l-2.45-3.2Zm-3.84,7.47,2.23-3.19h.1a4.48,4.48,0,0,0,1.59,2.61l0,.07Zm6.86,3.76-1.71-3.65a4.23,4.23,0,0,0,1.63.27,4,4,0,0,0,1.3-.22l.15.29Zm6.69-4.06-4-.35a4.48,4.48,0,0,0,1.54-2.69h.14Z" transform="translate(0 -3)"/><path class="cls-3" d="M408.63,619.24a2,2,0,0,0-1.91,1.42l-2.87.05,2.13-2.22a.62.62,0,0,0,.18-.47.66.66,0,0,0-1.15-.45l-3,3.17-6,.1,2.27-3.24a1.33,1.33,0,1,0-.18-2.37,1.36,1.36,0,0,0-.59.75l-3.88.51,2.79-5,4.25-1.18a.67.67,0,1,0-.35-1.29l-3,.83,1.45-2.56a2.06,2.06,0,1,0-1.16-.66l-1.41,2.5-.84-3a.71.71,0,0,0-.32-.4.68.68,0,0,0-.51-.06.67.67,0,0,0-.45.83l1.2,4.23-2.87,5.08-1.64-3.51a1.33,1.33,0,1,0-1.81,0l-1.42,3.43-2.81-5.09,1.23-4.22a.66.66,0,0,0-.45-.83.68.68,0,0,0-.83.46l-.86,3-1.39-2.51a2.06,2.06,0,1,0-1.17.64l1.43,2.58-3-.86a.66.66,0,0,0-.82.46.67.67,0,0,0,.45.83l4.25,1.22,2.86,5.18-4.32-.38a1.39,1.39,0,0,0-.52-.47,1.33,1.33,0,1,0,.19,2.27l2.26,3-6.14.11-3.15-3.07a.66.66,0,1,0-.93.95l2.2,2.15-2.87,0a2,2,0,1,0,0,1.33l2.94-.05L374,624.74a.67.67,0,0,0,1,.93l3.07-3.18,5.93-.1-2.14,3.07a1.32,1.32,0,0,0-1.59,1.93,1.34,1.34,0,0,0,1.83.47,1.31,1.31,0,0,0,.61-.87l3.77-.5-3,5.27-4.24,1.16a.67.67,0,0,0-.46.82.66.66,0,0,0,.82.47l3-.82-1.41,2.5a2.06,2.06,0,1,0,1.17.66l1.44-2.57.83,3a.67.67,0,0,0,1.29-.36l-1.19-4.26,3-5.34,1.71,3.67a1.34,1.34,0,1,0,1.74,0l1.3-3.14,2.7,4.89-1.22,4.25a.67.67,0,0,0,.46.83.66.66,0,0,0,.82-.46l.86-3,1.42,2.57a2.06,2.06,0,1,0,1.17-.64l-1.39-2.51,3,.84a.66.66,0,0,0,.5-.06.71.71,0,0,0,.32-.4.67.67,0,0,0-.46-.83l-4.23-1.2-3.06-5.54,4.64.4a1.3,1.3,0,0,0,.59.59,1.34,1.34,0,1,0-.13-2.3l-2.14-2.79,5.65-.09,3.18,3.07a.67.67,0,0,0,.93-1L403.8,622l2.94,0a2.05,2.05,0,1,0,1.89-2.75Zm-11.87-1.82-2.31,3.31a4.41,4.41,0,0,0-1.66-2.76v0Zm-6.61,7.18a3.12,3.12,0,1,1,3-3.18A3.11,3.11,0,0,1,390.15,624.6Zm-.25-10.94,1.71,3.66A4.44,4.44,0,0,0,390,617a4.19,4.19,0,0,0-1.59.34l0,0Zm-2.67,4.41a4.51,4.51,0,0,0-1.56,2.86l-2.45-3.2Zm-3.84,7.48,2.23-3.19h.1a4.44,4.44,0,0,0,1.59,2.61l0,.08Zm6.86,3.76-1.71-3.65a4.67,4.67,0,0,0,1.64.27,4.59,4.59,0,0,0,1.29-.22l.16.29Zm6.69-4.06-4-.35a4.38,4.38,0,0,0,1.54-2.7h.14Z" transform="translate(0 -3)"/><path class="cls-3" d="M230.76,301.66a2.06,2.06,0,0,0-1.92,1.42l-2.87.05,2.13-2.22a.66.66,0,0,0,.19-.47.64.64,0,0,0-.21-.47.66.66,0,0,0-.94,0l-3,3.17-6,.11,2.26-3.24a1.34,1.34,0,1,0-.76-1.63l-3.88.52,2.78-4.95,4.26-1.19a.67.67,0,0,0,.46-.82.65.65,0,0,0-.82-.46l-3,.82,1.44-2.56a2.05,2.05,0,1,0-1.16-.65l-1.41,2.49-.84-3a.64.64,0,0,0-.31-.39.6.6,0,0,0-.51-.06.66.66,0,0,0-.46.82l1.2,4.23-2.86,5.08-1.65-3.51a1.33,1.33,0,1,0-1.8,0l-1.43,3.43-2.81-5.08L208.1,289a.67.67,0,0,0-1.28-.37l-.86,2.95L204.57,289a2,2,0,1,0-1.17.65l1.42,2.57-3-.85a.67.67,0,1,0-.37,1.28l4.24,1.22,2.87,5.18-4.33-.37a1.22,1.22,0,0,0-.51-.47,1.33,1.33,0,1,0,.18,2.26l2.27,3-6.14.11-3.16-3.07a.66.66,0,0,0-.93.95l2.21,2.15-2.87.05a2.07,2.07,0,1,0,0,1.33l2.94-.05-2.14,2.22a.67.67,0,1,0,1,.93l3.07-3.18,5.93-.1L204,307.88a1.31,1.31,0,0,0-1.12.11,1.33,1.33,0,1,0,2,1.42l3.77-.5-3,5.27-4.24,1.17a.66.66,0,0,0-.47.82.67.67,0,0,0,.82.46l3-.81-1.41,2.5a2,2,0,0,0-2.16,1,2.06,2.06,0,1,0,3.32-.35l1.45-2.56.83,3a.66.66,0,0,0,.82.46A.66.66,0,0,0,208,319l-1.19-4.26,3-5.34,1.72,3.67a1.31,1.31,0,0,0-.44,1,1.33,1.33,0,1,0,2.17-1.06l1.31-3.14,2.7,4.9-1.22,4.24a.67.67,0,1,0,1.28.37l.85-3,1.42,2.57a2.07,2.07,0,1,0,1.17-.64l-1.38-2.51,3,.84a.67.67,0,0,0,.5-.06.65.65,0,0,0,.32-.4.66.66,0,0,0-.46-.82l-4.23-1.21-3.06-5.54,4.64.4a1.27,1.27,0,0,0,.58.59,1.33,1.33,0,1,0-.13-2.3l-2.13-2.78,5.65-.1,3.18,3.07a.66.66,0,1,0,.92-1l-2.22-2.14,3-.05a2,2,0,0,0,2,1.35,2.06,2.06,0,1,0-.07-4.11Zm-11.87-1.81-2.31,3.31a4.41,4.41,0,0,0-1.67-2.77l0,0ZM212.27,307a3.11,3.11,0,1,1,3-3.18A3.12,3.12,0,0,1,212.27,307ZM212,296.09l1.71,3.65a4.45,4.45,0,0,0-1.64-.28,4.71,4.71,0,0,0-1.59.34v0Zm-2.67,4.41a4.42,4.42,0,0,0-1.56,2.85l-2.46-3.2ZM205.52,308l2.23-3.19h.1a4.43,4.43,0,0,0,1.59,2.61l0,.07Zm6.86,3.76-1.71-3.65a4.47,4.47,0,0,0,2.92.05l.16.29Zm6.68-4.06-4-.35a4.45,4.45,0,0,0,1.55-2.69h.14Z" transform="translate(0 -3)"/><path class="cls-3" d="M382.1,472.51a2,2,0,0,0-1.91,1.42l-2.87.05,2.13-2.22a.64.64,0,0,0,.18-.48.66.66,0,0,0-1.14-.45L375.44,474l-6,.1,2.26-3.24a1.33,1.33,0,1,0-.17-2.37,1.28,1.28,0,0,0-.59.75l-3.89.51,2.79-4.95,4.26-1.18a.68.68,0,0,0,.46-.83.67.67,0,0,0-.82-.46l-3,.83,1.45-2.56a2.07,2.07,0,1,0-1.16-.66l-1.41,2.5-.84-3a.63.63,0,0,0-.31-.4A.69.69,0,0,0,368,459a.66.66,0,0,0-.46.82l1.2,4.24-2.87,5.08-1.64-3.51a1.33,1.33,0,1,0-2.26-.93,1.37,1.37,0,0,0,.45,1L361,469.13,358.21,464l1.24-4.22a.67.67,0,1,0-1.29-.37l-.86,2.95-1.38-2.51a2.05,2.05,0,0,0-2.52-3.17,2,2,0,0,0,1.35,3.81l1.42,2.58-3-.86a.67.67,0,0,0-.37,1.28l4.25,1.23,2.86,5.18-4.32-.38a1.39,1.39,0,0,0-.52-.47,1.33,1.33,0,1,0,.19,2.27l2.27,3-6.15.1-3.15-3.07a.67.67,0,0,0-.93,1l2.2,2.15-2.87.05a2,2,0,0,0-2-1.36,2.06,2.06,0,1,0,2,2.69l2.94,0L347.49,478a.66.66,0,1,0,1,.92l3.06-3.17,5.93-.11-2.14,3.07a1.33,1.33,0,1,0,.86,1.53l3.77-.49L357,485l-4.25,1.16a.67.67,0,0,0,.36,1.29l3-.82-1.41,2.5a2.06,2.06,0,1,0,1.16.66l1.45-2.57.82,3a.67.67,0,1,0,1.29-.35l-1.19-4.26,3-5.34,1.72,3.67a1.31,1.31,0,0,0-.45,1,1.34,1.34,0,1,0,2.67-.06,1.31,1.31,0,0,0-.49-1l1.3-3.14,2.71,4.89-1.23,4.25a.68.68,0,0,0,.46.83.67.67,0,0,0,.82-.46l.86-3,1.42,2.58a2,2,0,1,0,1.17-.65l-1.39-2.51,3,.84a.69.69,0,0,0,.51-.05.74.74,0,0,0,.32-.41.67.67,0,0,0-.46-.82l-4.24-1.2-3.06-5.54,4.64.4a1.3,1.3,0,0,0,.59.59,1.33,1.33,0,1,0-.13-2.31l-2.13-2.78,5.64-.1,3.18,3.08a.67.67,0,0,0,.93-1l-2.22-2.14,2.94-.05a2.05,2.05,0,1,0,1.89-2.75Zm-11.86-1.82L367.92,474a4.46,4.46,0,0,0-1.66-2.77v0Zm-6.62,7.18a3.12,3.12,0,1,1,3-3.18A3.12,3.12,0,0,1,363.62,477.87Zm-.25-10.94,1.71,3.65a4.61,4.61,0,0,0-1.63-.27,4.23,4.23,0,0,0-1.59.34v0Zm-2.66,4.41a4.42,4.42,0,0,0-1.56,2.86L356.69,471Zm-3.85,7.48,2.23-3.19h.1a4.41,4.41,0,0,0,1.6,2.61l-.05.08Zm6.86,3.76L362,478.92a4.45,4.45,0,0,0,1.64.28,4.59,4.59,0,0,0,1.29-.22l.16.28Zm6.69-4.07-4-.34a4.45,4.45,0,0,0,1.55-2.7h.14Z" transform="translate(0 -3)"/><path class="cls-3" d="M80.88,625.59A2.06,2.06,0,0,0,79,627l-2.87.05,2.13-2.23a.65.65,0,0,0,.18-.47.67.67,0,0,0-.2-.47.68.68,0,0,0-.95,0l-3,3.18-6,.1L70.52,624a1.36,1.36,0,0,0,1.19-.08,1.34,1.34,0,0,0-1.37-2.3,1.39,1.39,0,0,0-.59.76l-3.88.51,2.79-5,4.26-1.19a.66.66,0,1,0-.36-1.28l-3,.83L71,613.69a2,2,0,0,0,2.16-1,2.06,2.06,0,1,0-3.32.35l-1.41,2.5-.84-3a.67.67,0,0,0-.31-.4.71.71,0,0,0-.52-.06.66.66,0,0,0-.45.82l1.2,4.24-2.87,5.08L63,618.74a1.31,1.31,0,0,0,.41-1,1.34,1.34,0,1,0-2.67.06,1.31,1.31,0,0,0,.45,1l-1.42,3.44L57,617.13l1.23-4.22a.65.65,0,0,0-.45-.83.68.68,0,0,0-.83.45l-.86,3L54.69,613a2.06,2.06,0,1,0-1.17.64L55,616.2l-3-.86a.67.67,0,0,0-.37,1.28l4.25,1.23L58.72,623l-4.32-.38a1.39,1.39,0,0,0-.52-.47,1.33,1.33,0,1,0,.19,2.27l2.26,3-6.14.1L47,624.44a.67.67,0,1,0-.93,1l2.2,2.14-2.87.05a2,2,0,0,0-2-1.35,2.06,2.06,0,1,0,2,2.69l2.94,0-2.15,2.22a.66.66,0,1,0,1,.92l3.07-3.17,5.93-.11-2.14,3.07a1.37,1.37,0,0,0-1.13.11,1.33,1.33,0,1,0,2,1.42l3.76-.49-3,5.26-4.25,1.17a.67.67,0,0,0,.36,1.29l3-.82-1.41,2.5a2,2,0,1,0,1.17.65L56,640.34l.83,3a.67.67,0,0,0,.82.47.68.68,0,0,0,.47-.83l-1.19-4.25,3-5.34L61.66,637a1.37,1.37,0,0,0-.44,1,1.34,1.34,0,0,0,2.67-.06,1.31,1.31,0,0,0-.49-1l1.3-3.14,2.71,4.89L66.18,643a.67.67,0,0,0,1.28.37l.86-3L69.74,643a2,2,0,0,0,2.51,3.17,2.05,2.05,0,0,0-1.34-3.82l-1.39-2.51,3,.84a.66.66,0,0,0,.5-.06.65.65,0,0,0,.32-.4.66.66,0,0,0-.46-.82l-4.23-1.2-3.06-5.54,4.64.4a1.4,1.4,0,0,0,.59.59,1.33,1.33,0,1,0-.13-2.31l-2.14-2.78,5.65-.1,3.18,3.07a.66.66,0,0,0,.94,0,.68.68,0,0,0,0-1l-2.22-2.14,2.94,0a2.05,2.05,0,1,0,1.89-2.76ZM69,623.78l-2.31,3.31A4.46,4.46,0,0,0,65,624.32v0ZM62.4,631a3.12,3.12,0,1,1,3-3.19A3.12,3.12,0,0,1,62.4,631ZM62.15,620l1.71,3.65a4.65,4.65,0,0,0-1.63-.27,4.43,4.43,0,0,0-1.59.33l0,0Zm-2.66,4.41a4.45,4.45,0,0,0-1.57,2.85l-2.45-3.2Zm-3.85,7.47,2.23-3.19H58a4.48,4.48,0,0,0,1.59,2.61l0,.08Zm6.86,3.77L60.79,632a4.45,4.45,0,0,0,1.64.28,4.59,4.59,0,0,0,1.29-.22l.16.28Zm6.69-4.07-4-.34a4.41,4.41,0,0,0,1.54-2.7h.14Z" transform="translate(0 -3)"/><path class="cls-3" d="M177.14,270.5c5.24,0,5.24-8.12,0-8.12s-5.24,8.12,0,8.12Z" transform="translate(0 -3)"/><path class="cls-3" d="M50.44,384.75c5.24,0,5.24-8.12,0-8.12s-5.24,8.12,0,8.12Z" transform="translate(0 -3)"/><path class="cls-3" d="M113.79,474.77c2.62,0,2.62-4.06,0-4.06s-2.62,4.06,0,4.06Z" transform="translate(0 -3)"/><path class="cls-3" d="M503.65,197c2.61,0,2.61-4.06,0-4.06s-2.62,4.06,0,4.06Z" transform="translate(0 -3)"/><path class="cls-3" d="M661.21,184.41c5.24,0,5.24-8.12,0-8.12s-5.24,8.12,0,8.12Z" transform="translate(0 -3)"/><path class="cls-3" d="M687.2,203.5c2.62,0,2.62-4.06,0-4.06s-2.62,4.06,0,4.06Z" transform="translate(0 -3)"/><path class="cls-3" d="M511.77,46.34c5.24,0,5.24-8.13,0-8.13s-5.24,8.13,0,8.13Z" transform="translate(0 -3)"/><path class="cls-3" d="M448.42,91.82c5.23,0,5.23-8.12,0-8.12s-5.24,8.12,0,8.12Z" transform="translate(0 -3)"/><path class="cls-3" d="M726.19,427.66c2.62,0,2.62-4.06,0-4.06s-2.62,4.06,0,4.06Z" transform="translate(0 -3)"/><path class="cls-3" d="M659.59,486.55c5.24,0,5.24-8.13,0-8.13s-5.24,8.13,0,8.13Z" transform="translate(0 -3)"/><path class="cls-3" d="M611.94,615.41c5.24,0,5.24-8.12,0-8.12s-5.24,8.12,0,8.12Z" transform="translate(0 -3)"/><path class="cls-3" d="M695.33,583.6c2.61,0,2.61-4.06,0-4.06a2,2,0,0,0,0,4.06Z" transform="translate(0 -3)"/><path class="cls-3" d="M133.83,600.93c2.61,0,2.61-4.06,0-4.06a2,2,0,0,0,0,4.06Z" transform="translate(0 -3)"/><path class="cls-3" d="M148.89,229.69c5.24,0,5.24-8.13,0-8.13s-5.24,8.13,0,8.13Z" transform="translate(0 -3)"/><path class="cls-3" d="M129.49,308.41c5.24,0,5.24-8.13,0-8.13s-5.23,8.13,0,8.13Z" transform="translate(0 -3)"/><path class="cls-3" d="M167.3,134.39c5.24,0,5.24-8.12,0-8.12s-5.23,8.12,0,8.12Z" transform="translate(0 -3)"/><path class="cls-3" d="M254,284.58c5.24,0,5.24-8.12,0-8.12s-5.24,8.12,0,8.12Z" transform="translate(0 -3)"/><path class="cls-3" d="M515.83,28.06c2.62,0,2.62-4.06,0-4.06s-2.62,4.06,0,4.06Z" transform="translate(0 -3)"/><path class="cls-3" d="M543.17,93.44c5.24,0,5.24-8.12,0-8.12s-5.23,8.12,0,8.12Z" transform="translate(0 -3)"/><path class="cls-3" d="M547.24,75.17c2.61,0,2.61-4.06,0-4.06a2,2,0,0,0,0,4.06Z" transform="translate(0 -3)"/><path class="cls-3" d="M714.28,516.33c5.24,0,5.24-8.12,0-8.12s-5.24,8.12,0,8.12Z" transform="translate(0 -3)"/><path class="cls-3" d="M650.93,561.81c5.23,0,5.23-8.12,0-8.12s-5.24,8.12,0,8.12Z" transform="translate(0 -3)"/><path class="cls-3" d="M720.23,643c5.24,0,5.24-8.12,0-8.12s-5.23,8.12,0,8.12Z" transform="translate(0 -3)"/><path class="cls-3" d="M718.34,498.05c2.62,0,2.62-4.06,0-4.06s-2.62,4.06,0,4.06Z" transform="translate(0 -3)"/><path class="cls-3" d="M620.06,704.76c5.24,0,5.24-8.12,0-8.12s-5.24,8.12,0,8.12Z" transform="translate(0 -3)"/><path class="cls-3" d="M624.12,686.48c2.62,0,2.62-4.06,0-4.06s-2.62,4.06,0,4.06Z" transform="translate(0 -3)"/><path class="cls-3" d="M191,276.59c2.62,0,2.62-4.06,0-4.06s-2.62,4.06,0,4.06Z" transform="translate(0 -3)"/><path class="cls-3" d="M574.58,136.22c5.24,0,5.24-8.12,0-8.12s-5.24,8.12,0,8.12Z" transform="translate(0 -3)"/><path class="cls-3" d="M515,113.48c5.24,0,5.24-8.12,0-8.12s-5.24,8.12,0,8.12Z" transform="translate(0 -3)"/><path class="cls-3" d="M551.84,198.49c5.24,0,5.24-8.12,0-8.12s-5.24,8.12,0,8.12Z" transform="translate(0 -3)"/><path class="cls-3" d="M588.39,142.31c2.61,0,2.61-4.06,0-4.06s-2.62,4.06,0,4.06Z" transform="translate(0 -3)"/><path class="cls-3" d="M98.09,266.17c5.24,0,5.24-8.12,0-8.12s-5.24,8.12,0,8.12Z" transform="translate(0 -3)"/><path class="cls-3" d="M111.9,272.26c2.61,0,2.61-4.06,0-4.06s-2.62,4.06,0,4.06Z" transform="translate(0 -3)"/><path class="cls-3" d="M247,267.66c2.62,0,2.62-4.06,0-4.06s-2.62,4.06,0,4.06Z" transform="translate(0 -3)"/><path class="cls-3" d="M279.48,140.14c2.62,0,2.62-4.06,0-4.06s-2.62,4.06,0,4.06Z" transform="translate(0 -3)"/><path class="cls-3" d="M328.75,98.05c2.62,0,2.62-4.07,0-4.07s-2.62,4.07,0,4.07Z" transform="translate(0 -3)"/><path class="cls-3" d="M281.92,153.14c2.61,0,2.61-4.06,0-4.06a2,2,0,0,0,0,4.06Z" transform="translate(0 -3)"/><path class="cls-3" d="M621.15,323.7c2.61,0,2.61-4.06,0-4.06a2,2,0,0,0,0,4.06Z" transform="translate(0 -3)"/><path class="cls-3" d="M602.73,440.52c2.62,0,2.62-4.06,0-4.06s-2.62,4.06,0,4.06Z" transform="translate(0 -3)"/><path class="cls-3" d="M641.45,320.45c2.62,0,2.62-4.06,0-4.06s-2.62,4.06,0,4.06Z" transform="translate(0 -3)"/><path class="cls-3" d="M93.22,586.31c2.61,0,2.61-4.06,0-4.06a2,2,0,0,0,0,4.06Z" transform="translate(0 -3)"/><path class="cls-3" d="M78.6,570.47c5.23,0,5.23-8.12,0-8.12s-5.24,8.12,0,8.12Z" transform="translate(0 -3)"/><path class="cls-3" d="M141.41,652.78c5.23,0,5.23-8.12,0-8.12s-5.24,8.12,0,8.12Z" transform="translate(0 -3)"/><path class="cls-3" d="M54.77,478.43c5.24,0,5.24-8.13,0-8.13s-5.24,8.13,0,8.13Z" transform="translate(0 -3)"/><path class="cls-3" d="M55.31,717.35c2.62,0,2.62-4.06,0-4.06s-2.62,4.06,0,4.06Z" transform="translate(0 -3)"/><path class="cls-3" d="M40.69,701.51c5.24,0,5.24-8.12,0-8.12s-5.23,8.12,0,8.12Z" transform="translate(0 -3)"/><path class="cls-3" d="M634.14,346.85c5.24,0,5.24-8.12,0-8.12s-5.24,8.12,0,8.12Z" transform="translate(0 -3)"/><path class="cls-3" d="M577.83,415.07c5.24,0,5.24-8.12,0-8.12s-5.24,8.12,0,8.12Z" transform="translate(0 -3)"/><path class="cls-3" d="M713.76,289.59c-2.6.3-2.13,4.34.47,4s2.14-4.34-.47-4Z" transform="translate(0 -3)"/><path class="cls-3" d="M694,295.15c-2.6.3-2.13,4.33.47,4s2.14-4.33-.47-4Z" transform="translate(0 -3)"/><path class="cls-3" d="M698.2,268.09c-5.21.6-4.27,8.67.93,8.07s4.27-8.67-.93-8.07Z" transform="translate(0 -3)"/><path class="cls-3" d="M302.76,61.5c-5.2.6-4.27,8.67.93,8.06s4.28-8.66-.93-8.06Z" transform="translate(0 -3)"/><path class="cls-3" d="M623,234c5.24,0,5.24-8.12,0-8.12S617.8,234,623,234Z" transform="translate(0 -3)"/><path class="cls-3" d="M260.26,204.71c5.23,0,5.23-8.12,0-8.12s-5.24,8.12,0,8.12Z" transform="translate(0 -3)"/></g></g></g></svg>