<?xml version="1.0" encoding="utf-8"?>
<!-- Generator: Adobe Illustrator 25.0.1, SVG Export Plug-In . SVG Version: 6.00 Build 0)  -->
<svg version="1.1" id="Слой_1" xmlns="http://www.w3.org/2000/svg" xmlns:xlink="http://www.w3.org/1999/xlink" x="0px" y="0px"
	 viewBox="0 0 760 753" style="enable-background:new 0 0 760 753;" xml:space="preserve">
<style type="text/css">
	.st0{fill:url(#SVGID_1_);}
	.st1{opacity:0.6;}
	.st2{fill:#F6E8DA;}
</style>
<g id="Слой_2_1_">
	<g id="Слой_1-2">
		
			<linearGradient id="SVGID_1_" gradientUnits="userSpaceOnUse" x1="0" y1="419.5" x2="760" y2="419.5" gradientTransform="matrix(1 0 0 -1 0 796)">
			<stop  offset="0" style="stop-color:#87B9CE"/>
			<stop  offset="0.5" style="stop-color:#3A9CB9"/>
			<stop  offset="1" style="stop-color:#0087A8"/>
		</linearGradient>
		<rect class="st0" width="760" height="753"/>
		<g class="st1">
			<path class="st2" d="M534.5,705.2c1.5,0,2.8-1,3.3-2.4l4.9-0.1l-3.7,3.8c-0.2,0.2-0.3,0.5-0.3,0.8c0,0.3,0.1,0.6,0.4,0.8
				c0.4,0.4,1.2,0.4,1.6,0c0,0,0,0,0,0l5.2-5.4l10.2-0.2l-3.9,5.5c-1.2-0.5-2.5,0.1-3,1.2s0.1,2.5,1.2,3c1.2,0.5,2.5-0.1,3-1.2
				c0-0.1,0.1-0.1,0.1-0.2l6.6-0.9l-4.8,8.4l-7.3,2c-0.6,0.2-1,0.8-0.8,1.4c0.2,0.6,0.8,1,1.4,0.8c0,0,0,0,0,0l5.1-1.4l-2.5,4.4
				c-1.9-0.3-3.7,0.9-4,2.8c-0.3,1.9,0.9,3.7,2.8,4c1.9,0.3,3.7-0.9,4-2.8c0.2-1.1-0.1-2.1-0.8-2.9l2.4-4.3l1.4,5
				c0.1,0.3,0.3,0.5,0.5,0.7c0.3,0.2,0.6,0.2,0.9,0.1c0.6-0.2,1-0.8,0.8-1.4c0,0,0,0,0,0l-2-7.2l4.9-8.7l2.8,6
				c-0.9,0.9-0.9,2.3-0.1,3.2c0.4,0.5,1.1,0.7,1.7,0.7c1.3,0,2.2-1.1,2.2-2.3c0,0,0,0,0,0c0-0.6-0.3-1.2-0.8-1.6l2.4-5.8l4.8,8.7
				l-2.1,7.2c-0.2,0.6,0.2,1.2,0.8,1.4c0.6,0.2,1.2-0.2,1.4-0.8l0,0l1.5-5l2.4,4.3c-1.3,1.4-1.2,3.6,0.2,4.9
				c1.4,1.3,3.6,1.2,4.9-0.2c1.3-1.4,1.2-3.6-0.2-4.9c-0.8-0.7-1.9-1-2.9-0.9l-2.4-4.4l5,1.5c0.6,0.2,1.2-0.2,1.4-0.8
				c0.2-0.6-0.2-1.2-0.8-1.4l-7.2-2.1l-4.9-8.8l7.4,0.6c0.2,0.3,0.5,0.6,0.9,0.8c1.1,0.6,2.5,0.1,3-1s0.1-2.5-1-3
				c-0.8-0.4-1.7-0.3-2.4,0.2l-3.9-5l10.5-0.2l5.4,5.2c0.4,0.4,1.2,0.4,1.6,0c0,0,0,0,0,0c0.4-0.4,0.4-1.2,0-1.6l-3.8-3.7l4.9-0.1
				c0.6,1.8,2.6,2.8,4.4,2.2s2.8-2.6,2.2-4.4s-2.6-2.8-4.4-2.2c-1,0.4-1.8,1.2-2.2,2.2l-5,0.1l3.7-3.8c0.5-0.4,0.5-1.1,0.1-1.6
				c-0.4-0.5-1.1-0.5-1.6-0.1c-0.1,0-0.1,0.1-0.1,0.2l-5.2,5.4l-10.1,0.2l3.7-5.2c0.6,0.2,1.3,0.2,1.9-0.2c1.1-0.7,1.4-2.1,0.7-3.1
				c-0.6-1-2-1.3-3-0.8c-0.5,0.3-0.9,0.9-1.1,1.5l-6.4,0.8l5.1-9l7.2-2c0.6-0.2,1-0.8,0.8-1.4c-0.2-0.6-0.8-1-1.4-0.8c0,0,0,0,0,0
				l-5,1.4l2.4-4.3c1.9,0.3,3.7-0.9,4.1-2.8s-0.9-3.7-2.8-4.1s-3.7,0.9-4.1,2.8c-0.2,1.1,0.1,2.1,0.8,2.9l-2.5,4.4l-1.4-5.1
				c-0.1-0.6-0.7-1-1.3-0.9s-1,0.7-0.9,1.3c0,0.1,0,0.1,0,0.2l2,7.3l-5.1,9.1l-2.9-6.3c0.9-0.8,1-2.3,0.2-3.2
				c-0.4-0.5-1.1-0.8-1.8-0.8c-1.2,0-2.2,1.1-2.2,2.3c0,0,0,0,0,0c0,0.7,0.3,1.3,0.8,1.7l-2.2,5.3l-4.6-8.3l2.1-7.2
				c0.2-0.6-0.2-1.2-0.8-1.4c-0.6-0.2-1.2,0.2-1.4,0.8l-1.5,5l-2.4-4.4c1.3-1.4,1.2-3.7-0.2-5c-1.4-1.3-3.7-1.2-5,0.2
				c-1.3,1.4-1.2,3.7,0.2,5c0.8,0.7,1.9,1.1,3,0.9l2.4,4.3l-5-1.4c-0.3-0.1-0.6,0-0.9,0.1c-0.3,0.1-0.5,0.4-0.5,0.7
				c-0.2,0.6,0.2,1.2,0.8,1.4l7.2,2l5.2,9.4l-7.9-0.7c-0.2-0.4-0.6-0.8-1-1c-1.1-0.6-2.5-0.1-3,1c-0.6,1.1-0.1,2.5,1,3
				c0.7,0.4,1.6,0.3,2.3-0.1l3.6,4.7l-9.6,0.2l-5.4-5.2c-0.4-0.5-1.2-0.5-1.6,0c-0.5,0.4-0.5,1.2,0,1.6c0,0,0.1,0.1,0.1,0.1l3.8,3.7
				l-5,0.1c-0.7-1.8-2.7-2.8-4.5-2.1c-1.8,0.7-2.8,2.7-2.1,4.5c0.5,1.4,1.9,2.3,3.4,2.3L534.5,705.2z M554.7,708.3l3.9-5.6
				c0.3,1.9,1.3,3.6,2.8,4.7l0,0L554.7,708.3z M566,696.1c2.9-0.1,5.3,2.3,5.4,5.2c0.1,2.9-2.3,5.3-5.2,5.4
				c-2.9,0.1-5.3-2.3-5.4-5.2c0,0,0,0,0,0C560.7,698.6,563.1,696.2,566,696.1z M566.4,714.7l-2.9-6.2c0.9,0.3,1.8,0.5,2.8,0.5
				c0.9,0,1.9-0.2,2.7-0.6v0L566.4,714.7z M570.9,707.2c1.5-1.2,2.4-3,2.7-4.9l4.2,5.5L570.9,707.2z M577.5,694.5l-3.8,5.4h-0.2
				c-0.4-1.8-1.3-3.3-2.7-4.5l0.1-0.1L577.5,694.5z M565.8,688.1l2.9,6.2c-0.9-0.3-1.8-0.5-2.8-0.5c-0.7,0-1.5,0.1-2.2,0.4l-0.3-0.5
				L565.8,688.1z M554.4,695l6.8,0.6c-1.4,1.2-2.3,2.8-2.6,4.6h-0.2L554.4,695z"/>
			<path class="st2" d="M195.6,255.8c1.5,0,2.8-1,3.3-2.4l4.9-0.1l-3.6,3.8c-0.2,0.2-0.3,0.5-0.3,0.8c0,0.3,0.1,0.6,0.4,0.8
				c0.4,0.4,1.2,0.4,1.6,0l5.2-5.4l10.2-0.2l-3.9,5.5c-1.1-0.5-2.5,0-3,1.2c-0.5,1.1,0,2.5,1.2,3c0.7,0.3,1.5,0.2,2.1-0.2
				c0.5-0.3,0.8-0.7,1-1.3l6.6-0.9l-4.8,8.4l-7.3,2c-0.6,0.2-1,0.8-0.8,1.4c0.2,0.6,0.8,1,1.4,0.8c0,0,0,0,0,0l5.1-1.4l-2.5,4.4
				c-1.9-0.3-3.7,0.9-4.1,2.8c-0.3,1.9,0.9,3.7,2.8,4.1c1.9,0.3,3.7-0.9,4.1-2.8c0.2-1.1-0.1-2.1-0.8-2.9l2.4-4.3l1.4,5
				c0.1,0.3,0.3,0.5,0.5,0.7c0.5,0.3,1.2,0.1,1.5-0.4c0.2-0.3,0.2-0.6,0.1-0.9l-2.1-7.2l4.9-8.6l2.8,6c-0.9,0.9-0.9,2.3-0.1,3.2
				c0.4,0.5,1.1,0.7,1.7,0.7c1.2,0,2.2-1,2.2-2.3c0,0,0,0,0,0c0-0.6-0.3-1.2-0.8-1.6l2.4-5.9l4.8,8.7l-2.1,7.2
				c-0.2,0.6,0.1,1.2,0.7,1.4c0,0,0,0,0,0c0.6,0.2,1.2-0.2,1.4-0.8l1.5-5l2.4,4.3c-1.3,1.4-1.2,3.6,0.2,4.9s3.6,1.2,4.9-0.2
				c1.3-1.4,1.2-3.6-0.2-4.9c-0.8-0.7-1.9-1-2.9-0.9l-2.4-4.4l5,1.5c0.6,0.2,1.2-0.2,1.4-0.8s-0.2-1.2-0.8-1.4l-7.2-2.1l-4.9-8.8
				l7.4,0.6c0.7,1.1,2.1,1.4,3.1,0.7s1.4-2.1,0.7-3.1c-0.7-1.1-2.1-1.4-3.1-0.7c0,0-0.1,0.1-0.1,0.1l-3.9-5l10.5-0.2l5.4,5.2
				c0.5,0.4,1.2,0.3,1.6-0.2c0.3-0.4,0.3-1,0-1.5l-3.7-3.7l4.9-0.1c0.6,1.8,2.6,2.8,4.5,2.2c1.8-0.6,2.8-2.6,2.2-4.5
				s-2.6-2.8-4.5-2.2c-1,0.4-1.8,1.2-2.2,2.2l-5,0.1l3.6-3.8c0.4-0.5,0.3-1.2-0.2-1.6c-0.4-0.3-1-0.3-1.5,0l-5.2,5.4l-10.1,0.2
				l3.7-5.2c0.6,0.2,1.3,0.2,1.9-0.2c1.1-0.6,1.5-2,0.9-3.1c-0.6-1.1-2-1.5-3.1-0.9c0,0-0.1,0-0.1,0.1c-0.5,0.3-0.9,0.9-1.1,1.5
				l-6.4,0.8l5.1-9l7.2-2c0.6-0.2,1-0.8,0.8-1.4s-0.8-1-1.4-0.8l-5.1,1.4l2.4-4.3c1.9,0.3,3.7-0.9,4.1-2.8c0.3-1.9-0.9-3.7-2.8-4.1
				c-1.9-0.3-3.7,0.9-4.1,2.8c-0.2,1.1,0.1,2.1,0.8,2.9l-2.4,4.4l-1.4-5.1c-0.2-0.6-0.8-1-1.4-0.8c0,0,0,0,0,0
				c-0.6,0.2-1,0.8-0.8,1.4l2,7.3l-5.1,9.1l-2.9-6.3c0.9-0.8,1-2.3,0.2-3.2s-2.3-1-3.2-0.2c-0.5,0.4-0.8,1.1-0.7,1.7
				c0,0.7,0.3,1.3,0.8,1.7l-2.2,5.4l-4.6-8.3l2.1-7.2c0.2-0.6-0.2-1.2-0.8-1.4s-1.2,0.2-1.4,0.8l-1.4,5l-2.4-4.4
				c1.3-1.4,1.2-3.6-0.2-4.9c-1.4-1.3-3.6-1.2-4.9,0.2c-1.3,1.4-1.2,3.6,0.2,4.9c0.8,0.7,1.9,1,2.9,0.9l2.4,4.3l-5-1.4
				c-0.3-0.1-0.6,0-0.9,0.1c-0.5,0.3-0.8,1-0.5,1.5c0.1,0.3,0.4,0.5,0.7,0.5l7.2,2l5.2,9.4l-7.9-0.7c-0.6-1.1-1.9-1.6-3.1-1
				c-1.1,0.6-1.6,1.9-1,3.1c0.6,1.1,1.9,1.6,3.1,1c0.1,0,0.1-0.1,0.2-0.1l3.6,4.7l-9.6,0.2l-5.4-5.2c-0.5-0.4-1.2-0.4-1.6,0
				s-0.4,1.2,0,1.6l3.8,3.7l-5,0.1c-0.7-1.8-2.7-2.8-4.5-2.1c-1.8,0.7-2.8,2.7-2.1,4.5C192.8,254.8,194.2,255.8,195.6,255.8
				L195.6,255.8z M215.8,258.9l3.9-5.6c0.3,1.9,1.3,3.6,2.8,4.7l0,0L215.8,258.9z M227.1,246.7c2.9-0.1,5.4,2.3,5.4,5.2
				c0.1,2.9-2.3,5.4-5.2,5.4c-2.9,0.1-5.4-2.3-5.4-5.2c0,0,0,0,0,0C221.8,249.2,224.2,246.8,227.1,246.7L227.1,246.7z M227.5,265.3
				l-2.9-6.2c0.9,0.3,1.8,0.5,2.8,0.5c0.9,0,1.8-0.2,2.7-0.6l0,0L227.5,265.3z M232,257.8c1.5-1.2,2.4-3,2.7-4.9l4.2,5.4L232,257.8z
				 M238.6,245.1l-3.8,5.4h-0.2c-0.3-1.8-1.3-3.3-2.7-4.4l0.1-0.1L238.6,245.1z M226.9,238.7l2.9,6.2c-0.9-0.3-1.8-0.5-2.8-0.5
				c-0.7,0-1.5,0.1-2.2,0.4l-0.3-0.5L226.9,238.7z M215.5,245.6l6.9,0.6c-1.4,1.2-2.3,2.8-2.6,4.6h-0.2L215.5,245.6z"/>
			<path class="st2" d="M54,64.1c1.5,0,2.8-1,3.3-2.4l4.9-0.1l-3.6,3.8c-0.2,0.2-0.3,0.5-0.3,0.8c0,0.3,0.1,0.6,0.3,0.8
				c0.4,0.4,1.2,0.4,1.6,0l5.2-5.4l10.2-0.2l-3.8,5.5c-0.7-0.3-1.4-0.2-2,0.1c-1.1,0.6-1.6,1.9-1,3.1c0.6,1.1,1.9,1.6,3.1,1
				c0.1-0.1,0.2-0.1,0.3-0.2c0.5-0.3,0.8-0.7,1-1.3l6.6-0.9l-4.8,8.4l-7.2,2c-0.6,0.2-0.9,0.9-0.7,1.5c0.2,0.5,0.7,0.8,1.3,0.7
				l5.1-1.4l-2.5,4.4c-1.9-0.4-3.7,0.9-4.1,2.8c-0.3,1.5,0.4,3,1.7,3.7c1.7,0.9,3.8,0.1,4.7-1.6c0.6-1.2,0.4-2.7-0.4-3.7l2.4-4.3
				l1.4,5c0.1,0.3,0.3,0.5,0.5,0.7c0.6,0.3,1.2,0.1,1.5-0.4c0.1-0.3,0.2-0.6,0.1-0.9l-2-7.2l4.9-8.7l2.8,6c-0.9,0.9-0.9,2.3,0,3.2
				c0.9,0.9,2.3,0.9,3.2,0c0.5-0.4,0.7-1,0.7-1.7c0-0.6-0.3-1.2-0.8-1.7l2.4-5.8l4.7,8.7l-2.1,7.2c-0.2,0.6,0.2,1.2,0.8,1.4
				s1.2-0.2,1.4-0.8l1.5-5l2.4,4.3c-1.3,1.4-1.2,3.6,0.2,4.9c1.4,1.3,3.6,1.2,4.9-0.2c1.3-1.4,1.2-3.6-0.2-4.9
				c-0.8-0.7-1.9-1-2.9-0.9l-2.4-4.4l5,1.5c0.6,0.2,1.2-0.1,1.4-0.7s-0.1-1.2-0.7-1.4c0,0,0,0-0.1,0l-7.2-2.1l-4.8-8.8l7.4,0.6
				c0.2,0.3,0.5,0.6,0.9,0.8c1.1,0.6,2.5,0.1,3-1c0.6-1.1,0.1-2.5-1-3c-0.8-0.4-1.7-0.3-2.4,0.2l-3.9-5l10.5-0.2l5.4,5.2
				c0.5,0.4,1.2,0.4,1.6-0.1c0.4-0.4,0.4-1.1,0-1.5l-3.8-3.7l4.9-0.1c0.6,1.8,2.6,2.8,4.4,2.2c1.8-0.6,2.8-2.6,2.2-4.4
				c-0.6-1.8-2.6-2.8-4.4-2.2c-1,0.4-1.8,1.2-2.2,2.2l-5,0.1l3.6-3.8c0.4-0.5,0.4-1.2-0.1-1.6c-0.4-0.4-1.1-0.4-1.5,0l-5.2,5.4
				L96,58.8l3.7-5.3c0.6,0.2,1.3,0.2,1.9-0.2c1.1-0.6,1.5-2,0.8-3.1c-0.6-1.1-2-1.5-3.1-0.8c-0.6,0.3-1,0.9-1.1,1.5l-6.4,0.8l5.1-9
				l7.2-2c0.6-0.1,1-0.7,0.9-1.3c-0.1-0.6-0.7-1-1.3-0.9c-0.1,0-0.1,0-0.2,0.1l-5,1.4l2.4-4.3c1.9,0.3,3.7-0.9,4.1-2.8
				c0.3-1.9-0.9-3.7-2.8-4.1c-1.9-0.3-3.7,0.9-4.1,2.8c-0.2,1.1,0.1,2.1,0.8,2.9l-2.5,4.4L95,33.9c-0.2-0.6-0.8-1-1.4-0.8
				c0,0,0,0,0,0c-0.6,0.2-1,0.8-0.8,1.4l2,7.3l-5.1,9.1l-2.9-6.3c1-0.8,1.1-2.2,0.3-3.2c-0.5-0.5-1.1-0.8-1.8-0.8
				c-1.2,0-2.2,1.1-2.2,2.3c0,0.7,0.3,1.3,0.8,1.7l-2.2,5.3L77,41.7l2-7.2c0.2-0.6-0.2-1.2-0.8-1.4c0,0,0,0,0,0
				c-0.6-0.2-1.2,0.2-1.4,0.8l-1.4,5L73,34.5c1.3-1.4,1.2-3.6-0.2-4.9c-1.4-1.3-3.6-1.2-4.9,0.2c-1.3,1.4-1.2,3.6,0.2,4.9
				c0.8,0.7,1.9,1,2.9,0.9l2.4,4.3l-5-1.4c-0.3-0.1-0.6,0-0.9,0.1c-0.6,0.3-0.8,1-0.5,1.5c0.1,0.3,0.4,0.5,0.7,0.6l7.2,2.1l5.2,9.4
				l-7.9-0.6c-0.2-0.4-0.6-0.8-1-1c-1.1-0.6-2.5-0.1-3.1,1c-0.6,1.1-0.1,2.5,1,3.1c0.7,0.4,1.6,0.3,2.3-0.1l3.6,4.7l-9.6,0.2L60,54
				c-0.5-0.4-1.2-0.4-1.6,0.1c-0.4,0.4-0.4,1.1,0,1.5l3.8,3.7l-5,0.1c-0.7-1.8-2.7-2.8-4.5-2.1C50.9,58,50,60,50.6,61.8
				C51.1,63.2,52.5,64.1,54,64.1z M74.2,67.2l3.9-5.6c0.3,1.9,1.3,3.6,2.8,4.7l0,0L74.2,67.2z M85.5,55c2.9-0.1,5.4,2.3,5.4,5.2
				s-2.3,5.4-5.2,5.4c-2.9,0.1-5.4-2.3-5.4-5.2C80.2,57.5,82.6,55.1,85.5,55z M85.9,73.6L83,67.4c1.8,0.7,3.7,0.6,5.5-0.1l0,0
				L85.9,73.6z M90.4,66.1c1.5-1.2,2.4-3,2.7-4.9l4.2,5.4L90.4,66.1z M97,53.4l-3.8,5.4H93c-0.4-1.8-1.3-3.3-2.7-4.4l0.1-0.1
				L97,53.4z M85.3,47l2.9,6.2c-0.9-0.3-1.8-0.5-2.8-0.5c-0.7,0-1.5,0.1-2.2,0.4L83,52.6L85.3,47z M73.9,53.9l6.8,0.6
				c-1.4,1.2-2.3,2.8-2.6,4.6h-0.2L73.9,53.9z"/>
			<path class="st2" d="M709.1,352.6c1.5,0,2.8-1,3.3-2.4l4.9-0.1l-3.6,3.8c-0.2,0.2-0.3,0.5-0.3,0.8c0,0.6,0.5,1.1,1.1,1.2
				c0.3,0,0.7-0.1,0.9-0.4l5.2-5.4l10.2-0.2l-3.9,5.5c-1.2-0.5-2.5,0.1-3,1.2s0.1,2.5,1.2,3c1.2,0.5,2.5-0.1,3-1.2
				c0-0.1,0.1-0.1,0.1-0.2l6.6-0.9l-4.8,8.4l-7.2,2c-0.6,0.2-0.9,0.9-0.7,1.5c0.2,0.5,0.7,0.8,1.3,0.7l5.1-1.4l-2.5,4.4
				c-1.9-0.3-3.7,0.9-4.1,2.8c-0.3,1.9,0.9,3.7,2.8,4.1c1.9,0.3,3.7-0.9,4.1-2.8c0.2-1.1-0.1-2.1-0.8-2.9l2.4-4.3l1.4,5
				c0.1,0.3,0.3,0.5,0.5,0.7c0.6,0.3,1.2,0.1,1.5-0.4c0.1-0.3,0.2-0.6,0.1-0.9l-2-7.2l4.9-8.7l2.8,6c-0.5,0.4-0.7,1-0.7,1.7
				c0,1.3,1.1,2.2,2.3,2.2s2.2-1.1,2.2-2.3c0-0.6-0.3-1.2-0.8-1.7l2.4-5.9l4.8,8.7l-2.1,7.2c-0.1,0.6,0.3,1.2,0.9,1.3
				c0.5,0.1,1.1-0.2,1.3-0.7l1.5-5l2.4,4.3c-1.3,1.4-1.2,3.7,0.2,5c1.4,1.3,3.7,1.2,5-0.2c1.3-1.4,1.2-3.7-0.2-5
				c-0.8-0.7-1.9-1-3-0.9l-2.4-4.4l5,1.5c0.6,0.2,1.2-0.1,1.4-0.7s-0.1-1.2-0.7-1.4c0,0,0,0-0.1,0l-7.2-2.1l-4.9-8.8l7.4,0.6
				c0.2,0.3,0.5,0.6,0.9,0.8c1.1,0.5,2.4,0.1,3-1c0.6-1.1,0.1-2.5-1-3c-0.8-0.4-1.7-0.3-2.3,0.2l-3.9-5l10.5-0.2l5.4,5.2
				c0.5,0.4,1.2,0.4,1.6-0.1c0.4-0.4,0.4-1.1,0-1.5l-3.8-3.6l4.9-0.1c0.6,1.8,2.6,2.8,4.5,2.2s2.8-2.6,2.2-4.5
				c-0.6-1.8-2.6-2.8-4.5-2.2c-1,0.4-1.8,1.2-2.2,2.2l-5,0.1l3.7-3.8c0.4-0.4,0.4-1.2,0-1.6c0,0,0,0,0,0c-0.4-0.4-1.2-0.4-1.6,0
				l-5.2,5.4l-10.1,0.2l3.7-5.2c0.6,0.2,1.3,0.2,1.9-0.2c1.1-0.6,1.5-2,0.8-3.1c-0.6-1.1-2-1.5-3.1-0.8c-0.6,0.3-1,0.9-1.1,1.5
				l-6.4,0.9l5.1-9l7.2-2c0.6-0.2,0.9-0.9,0.7-1.5c-0.2-0.5-0.7-0.8-1.3-0.7l-5,1.4l2.4-4.3c1.9,0.3,3.7-0.9,4.1-2.8
				c0.3-1.9-0.9-3.7-2.8-4.1c-1.9-0.3-3.7,0.9-4.1,2.8c-0.2,1.1,0.1,2.1,0.8,2.9l-2.6,4.4l-1.4-5.1c-0.2-0.6-0.8-1-1.4-0.8
				c-0.6,0.2-1,0.8-0.8,1.4l2,7.3l-5.1,9.1l-2.9-6.3c0.5-0.4,0.8-1.1,0.8-1.7c0-1.3-1.1-2.3-2.3-2.2c-1.3,0-2.3,1.1-2.2,2.3
				c0,0.7,0.3,1.3,0.8,1.7l-2.2,5.3l-4.6-8.3l2.1-7.2c0.2-0.6-0.2-1.2-0.8-1.4c-0.6-0.1-1.2,0.2-1.4,0.8l-1.5,5l-2.4-4.4
				c1.3-1.4,1.2-3.7-0.2-5c-1.4-1.3-3.7-1.2-5,0.2c-1.3,1.4-1.2,3.7,0.2,5c0.8,0.7,1.9,1,3,0.9l2.4,4.3l-5-1.4
				c-0.3-0.1-0.6,0-0.9,0.1c-0.6,0.3-0.8,1-0.5,1.5c0.1,0.3,0.4,0.5,0.7,0.6l7.2,2l5.2,9.4l-7.9-0.7c-0.2-0.4-0.6-0.8-1-1
				c-1.1-0.6-2.5-0.1-3.1,1c-0.6,1.1-0.1,2.5,1,3.1c0.7,0.4,1.6,0.3,2.3-0.1l3.6,4.7l-9.6,0.2l-5.4-5.2c-0.4-0.5-1.1-0.5-1.6-0.1
				s-0.5,1.1-0.1,1.6c0,0.1,0.1,0.1,0.2,0.1l3.8,3.6l-5,0.1c-0.7-1.8-2.7-2.8-4.5-2.1s-2.8,2.7-2.1,4.5
				C706.3,351.7,707.6,352.6,709.1,352.6L709.1,352.6z M729.3,355.7l3.9-5.6c0.3,1.9,1.3,3.6,2.8,4.7l0,0L729.3,355.7z M740.6,343.5
				c2.9-0.1,5.4,2.3,5.4,5.2c0.1,2.9-2.3,5.4-5.2,5.4c-2.9,0.1-5.4-2.3-5.4-5.2C735.4,346,737.7,343.6,740.6,343.5z M741,362.1
				l-2.9-6.2c0.9,0.3,1.8,0.5,2.8,0.5c0.9,0,1.9-0.2,2.7-0.6l0,0L741,362.1z M745.5,354.6c1.5-1.2,2.4-3,2.7-4.9l4.2,5.5
				L745.5,354.6z M752.1,341.9l-3.8,5.4h-0.2c-0.4-1.8-1.3-3.3-2.7-4.4l0.1-0.1L752.1,341.9z M740.4,335.5l2.9,6.2
				c-0.9-0.3-1.8-0.5-2.8-0.5c-0.7,0-1.5,0.1-2.2,0.4l-0.3-0.5L740.4,335.5z M729,342.4l6.8,0.6c-1.4,1.2-2.3,2.8-2.6,4.6H733
				L729,342.4z"/>
			<path class="st2" d="M709.1,695.6c1.5,0,2.8-1,3.3-2.4l4.9-0.1l-3.6,3.8c-0.2,0.2-0.3,0.5-0.3,0.8c0,0.6,0.5,1.1,1.1,1.2
				c0.3,0,0.7-0.1,0.9-0.4l5.2-5.4l10.2-0.2l-3.9,5.5c-1.2-0.5-2.5,0.1-3,1.2s0.1,2.5,1.2,3c1.2,0.5,2.5-0.1,3-1.2
				c0-0.1,0.1-0.1,0.1-0.2l6.6-0.9l-4.8,8.4l-7.2,2c-0.6,0.2-0.9,0.9-0.7,1.5c0.2,0.5,0.7,0.8,1.3,0.7l5.1-1.4l-2.5,4.4
				c-1.9-0.3-3.7,0.9-4.1,2.8s0.9,3.7,2.8,4.1s3.7-0.9,4.1-2.8c0.2-1.1-0.1-2.1-0.8-2.9l2.4-4.3l1.4,5c0.1,0.3,0.3,0.5,0.5,0.7
				c0.6,0.3,1.2,0.1,1.5-0.4c0.1-0.3,0.2-0.6,0.1-0.9l-2-7.2l4.9-8.7l2.8,6c-0.5,0.4-0.7,1-0.7,1.7c0,1.3,1.1,2.2,2.3,2.2
				c1.3,0,2.2-1.1,2.2-2.3c0-0.6-0.3-1.2-0.8-1.7l2.4-5.8l4.8,8.7l-2.1,7.2c-0.1,0.6,0.3,1.2,0.9,1.3c0.5,0.1,1.1-0.2,1.3-0.7l1.5-5
				l2.4,4.3c-1.3,1.4-1.2,3.7,0.2,5c1.4,1.3,3.7,1.2,5-0.2c1.3-1.4,1.2-3.7-0.2-5c-0.8-0.7-1.9-1-3-0.9l-2.4-4.4l5,1.5
				c0.6,0.2,1.2-0.2,1.4-0.8c0.1-0.6-0.2-1.2-0.8-1.4l-7.2-2.1l-4.9-8.8l7.4,0.6c0.2,0.3,0.5,0.6,0.9,0.8c1.1,0.5,2.4,0.1,3-1
				c0.5-1.1,0.1-2.4-1-3c-0.8-0.4-1.7-0.3-2.3,0.2l-3.9-5l10.5-0.2l5.4,5.2c0.5,0.4,1.2,0.4,1.6-0.1c0.4-0.4,0.4-1.1,0-1.5l-3.8-3.7
				l4.9-0.1c0.6,1.8,2.6,2.8,4.5,2.2c1.8-0.6,2.8-2.6,2.2-4.5c-0.6-1.8-2.6-2.8-4.5-2.2c-1,0.4-1.8,1.2-2.2,2.2l-5,0.1l3.7-3.8
				c0.4-0.4,0.4-1.2,0-1.6c0,0,0,0,0,0c-0.4-0.4-1.2-0.4-1.6,0l-5.2,5.4l-10.1,0.2l3.7-5.2c0.6,0.2,1.3,0.2,1.9-0.2
				c1.1-0.6,1.5-2,0.8-3.1c-0.6-1.1-2-1.5-3.1-0.8c-0.6,0.3-1,0.9-1.1,1.5l-6.4,0.8l5.1-9l7.2-2c0.6-0.2,0.9-0.9,0.7-1.5
				c-0.2-0.5-0.7-0.8-1.3-0.7l-5,1.4l2.4-4.3c1.9,0.3,3.7-0.9,4.1-2.8c0.3-1.9-0.9-3.7-2.8-4.1c-1.9-0.3-3.7,0.9-4.1,2.8
				c-0.2,1.1,0.1,2.1,0.8,2.9l-2.7,4.4l-1.4-5.1c-0.2-0.6-0.8-1-1.4-0.8c-0.6,0.2-1,0.8-0.8,1.4l2,7.3l-5.1,9.1l-2.9-6.3
				c0.5-0.4,0.8-1.1,0.8-1.7c0-1.3-1.1-2.3-2.3-2.2c-1.3,0-2.3,1.1-2.2,2.3c0,0.7,0.3,1.3,0.8,1.7l-2.2,5.3l-4.6-8.3l2.1-7.2
				c0.2-0.6-0.2-1.2-0.8-1.4c-0.6-0.1-1.2,0.2-1.4,0.8l-1.5,5l-2.4-4.4c1.3-1.4,1.2-3.7-0.2-5c-1.4-1.3-3.7-1.2-5,0.2
				c-1.3,1.4-1.2,3.7,0.2,5c0.8,0.7,1.9,1,3,0.9l2.4,4.3l-5-1.4c-0.3-0.1-0.6,0-0.9,0.1c-0.6,0.3-0.8,1-0.5,1.5
				c0.1,0.3,0.4,0.5,0.7,0.6l7.2,2l5.2,9.4l-7.9-0.7c-0.2-0.4-0.6-0.8-1-1c-1.1-0.6-2.5-0.1-3.1,1c-0.6,1.1-0.1,2.5,1,3.1
				c0.7,0.4,1.6,0.3,2.3-0.1l3.6,4.7l-9.6,0.2l-5.4-5.1c-0.4-0.5-1.1-0.5-1.6-0.1c-0.5,0.4-0.5,1.1-0.1,1.6c0,0.1,0.1,0.1,0.2,0.1
				l3.8,3.7l-5,0.1c-0.7-1.8-2.7-2.8-4.5-2.1c-1.8,0.7-2.8,2.7-2.1,4.5C706.3,694.7,707.6,695.6,709.1,695.6L709.1,695.6z
				 M729.3,698.7l3.9-5.6c0.3,1.9,1.3,3.6,2.8,4.7l0,0L729.3,698.7z M740.6,686.5c2.9-0.1,5.4,2.3,5.4,5.2s-2.3,5.4-5.2,5.4
				c-2.9,0.1-5.4-2.3-5.4-5.2C735.4,689,737.7,686.6,740.6,686.5z M741,705.1l-2.9-6.2c0.9,0.3,1.8,0.5,2.8,0.5
				c0.9,0,1.9-0.2,2.7-0.6l0,0L741,705.1z M745.5,697.6c1.5-1.2,2.4-3,2.7-4.9l4.2,5.5L745.5,697.6z M752.1,684.9l-3.8,5.4h-0.2
				c-0.4-1.8-1.3-3.3-2.7-4.4l0.1-0.1L752.1,684.9z M740.4,678.5l2.9,6.2c-0.9-0.3-1.8-0.5-2.8-0.5c-0.7,0-1.5,0.1-2.2,0.4l-0.3-0.5
				L740.4,678.5z M729,685.4l6.8,0.6c-1.4,1.2-2.3,2.8-2.6,4.6H733L729,685.4z"/>
			<path class="st2" d="M58.5,383.9c1.5,0,2.8-1,3.3-2.4l4.9-0.1l-3.7,3.8c-0.2,0.2-0.3,0.5-0.3,0.8c0,0.3,0.1,0.6,0.3,0.8
				c0.4,0.4,1.2,0.4,1.6,0c0,0,0,0,0,0l5.2-5.4l10.2-0.2l-3.9,5.5c-1.2-0.5-2.5,0.1-3,1.2c-0.5,1.2,0.1,2.5,1.2,3
				c0.7,0.3,1.4,0.2,2-0.1c0.5-0.3,0.8-0.7,1-1.3l6.6-0.9l-4.8,8.4l-7.3,2c-0.6,0.2-1,0.8-0.8,1.4s0.8,1,1.4,0.8l0,0l5.1-1.4
				l-2.5,4.4c-1.9-0.3-3.7,0.9-4.1,2.8c-0.3,1.9,0.9,3.7,2.8,4.1s3.7-0.9,4.1-2.8c0.2-1.1-0.1-2.2-0.8-3l2.4-4.3l1.4,5
				c0.2,0.6,0.8,1,1.4,0.8c0.6-0.2,0.9-0.8,0.8-1.4l-2-7.2l4.8-8.6l2.8,6c-0.5,0.4-0.7,1-0.7,1.7c0,1.3,1.1,2.2,2.3,2.2
				c1.3,0,2.2-1.1,2.2-2.3c0-0.6-0.3-1.2-0.8-1.6l2.4-5.9l4.8,8.7l-2.1,7.2c-0.2,0.6,0.2,1.2,0.8,1.4c0.6,0.1,1.2-0.2,1.4-0.8l1.5-5
				l2.4,4.3c-1.3,1.4-1.2,3.6,0.2,4.9c1.4,1.3,3.6,1.2,4.9-0.2s1.2-3.6-0.2-4.9c-0.8-0.7-1.9-1-2.9-0.9l-2.4-4.4l5.1,1.5
				c0.6,0.2,1.2-0.2,1.4-0.8c0,0,0,0,0,0c0.2-0.6-0.2-1.2-0.8-1.4c0,0,0,0,0,0l-7.2-2.1l-4.9-8.8l7.4,0.6c0.7,1.1,2.1,1.4,3.1,0.7
				c1.1-0.7,1.4-2.1,0.7-3.1s-2.1-1.4-3.1-0.7c0,0-0.1,0.1-0.1,0.1l-3.9-5l10.5-0.2l5.4,5.2c0.4,0.4,1.2,0.4,1.6,0c0,0,0,0,0,0
				c0.4-0.4,0.4-1.2,0-1.6l-3.8-3.8l4.9-0.1c0.6,1.8,2.6,2.8,4.4,2.2c1.8-0.6,2.8-2.6,2.2-4.4s-2.6-2.8-4.4-2.2
				c-1,0.4-1.8,1.2-2.2,2.2l-5,0.1l3.7-3.8c0.5-0.4,0.5-1.1,0.1-1.6s-1.1-0.5-1.6-0.1c-0.1,0-0.1,0.1-0.1,0.2l-5.2,5.4l-10.1,0.2
				l3.7-5.2c0.6,0.2,1.3,0.2,1.9-0.2c1.1-0.6,1.4-2,0.8-3.1c-0.6-1.1-2-1.4-3.1-0.8l0,0c-0.5,0.3-0.9,0.9-1,1.5l-6.4,0.8l5-9l7.2-2
				c0.6-0.2,0.9-0.9,0.7-1.5c-0.2-0.5-0.7-0.8-1.3-0.7l-5,1.4l2.4-4.3c1.9,0.3,3.7-0.9,4-2.8c0.3-1.9-0.9-3.7-2.8-4
				c-1.9-0.3-3.7,0.9-4,2.8c-0.2,1.1,0.1,2.1,0.8,2.9l-2.5,4.4l-1.4-5.1c-0.1-0.6-0.7-1-1.3-0.9c-0.6,0.1-1,0.7-0.9,1.3
				c0,0.1,0,0.1,0,0.2l2,7.3l-5.1,9.1l-2.9-6.3c0.9-0.8,1-2.3,0.2-3.2c-0.8-0.9-2.3-1-3.2-0.2c-0.5,0.4-0.8,1.1-0.7,1.7
				c0,0.7,0.3,1.3,0.8,1.7l-2.2,5.3l-4.7-8.2l2.1-7.2c0.2-0.6-0.2-1.2-0.8-1.4c-0.6-0.2-1.2,0.2-1.4,0.8l0,0l-1.5,5l-2.4-4.4
				c1.3-1.4,1.2-3.6-0.2-4.9c-1.4-1.3-3.6-1.2-4.9,0.2c-1.3,1.4-1.2,3.6,0.2,4.9c0.8,0.7,1.9,1,2.9,0.9l2.4,4.3l-5-1.4
				c-0.6-0.1-1.2,0.3-1.4,0.9c-0.1,0.6,0.2,1.1,0.7,1.3l7.2,2.1l5.2,9.4l-7.9-0.7c-0.6-1.1-1.9-1.6-3-1c-1.1,0.6-1.6,1.9-1,3
				c0.6,1.1,1.9,1.6,3,1c0.1,0,0.2-0.1,0.2-0.1l3.6,4.7l-9.6,0.2l-5.4-5.2c-0.5-0.3-1.2-0.1-1.6,0.4c-0.2,0.4-0.2,0.8,0,1.2l3.8,3.6
				l-5,0.1c-0.6-1.8-2.6-2.8-4.5-2.1c-1.4,0.5-2.4,1.9-2.3,3.4C55,382.3,56.6,383.9,58.5,383.9z M78.7,386.9l3.9-5.6
				c0.3,1.9,1.3,3.6,2.8,4.7l0,0L78.7,386.9z M90,374.7c2.9-0.1,5.3,2.3,5.4,5.2c0.1,2.9-2.3,5.3-5.2,5.4c-2.9,0.1-5.3-2.3-5.4-5.2
				C84.7,377.2,87.1,374.8,90,374.7C90,374.7,90,374.7,90,374.7z M90.4,393.4l-2.9-6.2c1.8,0.7,3.7,0.6,5.5-0.1l0,0L90.4,393.4z
				 M95,385.8c1.5-1.2,2.4-3,2.7-4.9l4.2,5.5L95,385.8z M101.6,373.1l-3.8,5.4h-0.2c-0.3-1.8-1.3-3.3-2.7-4.4l0.1-0.1L101.6,373.1z
				 M89.9,366.7l2.9,6.2c-1.6-0.6-3.4-0.6-5-0.1l-0.3-0.5L89.9,366.7z M78.5,373.6l6.8,0.6c-1.4,1.2-2.3,2.8-2.6,4.6h-0.3
				L78.5,373.6z"/>
			<path class="st2" d="M714,59.8c1.5,0,2.8-1,3.3-2.4l4.9-0.1l-3.6,3.8c-0.5,0.4-0.5,1.1-0.1,1.6c0.4,0.5,1.1,0.5,1.6,0.1
				c0.1,0,0.1-0.1,0.1-0.2l5.2-5.4l10.2-0.2l-3.9,5.5c-1.1-0.5-2.5,0-3,1.2c-0.3,0.7-0.2,1.4,0.2,2.1c0.6,1.1,2,1.4,3.1,0.8
				c0.5-0.3,0.8-0.7,1-1.3l6.6-0.9l-4.8,8.4l-7.3,2c-0.6,0.2-1,0.8-0.8,1.4c0.2,0.6,0.8,1,1.4,0.8l5.1-1.4l-2.5,4.4
				c-1.9-0.3-3.7,0.9-4,2.8s0.9,3.7,2.8,4c1.9,0.3,3.7-0.9,4-2.8c0.2-1.1-0.1-2.1-0.8-2.9l2.4-4.3l1.4,5c0.1,0.3,0.3,0.5,0.5,0.7
				c0.3,0.1,0.6,0.2,0.9,0.1c0.6-0.2,0.9-0.8,0.8-1.4c0,0,0,0,0,0l-2-7.2l4.9-8.7l2.8,6c-0.9,0.9-0.9,2.3-0.1,3.2
				c0.9,0.9,2.3,0.9,3.2,0.1c0.5-0.4,0.7-1.1,0.7-1.7c0-0.6-0.3-1.2-0.8-1.7l2.4-5.8l4.8,8.7l-2.1,7.2c-0.2,0.6,0.2,1.2,0.8,1.4
				c0.6,0.2,1.2-0.2,1.4-0.8l1.5-5l2.4,4.3c-1.3,1.4-1.2,3.6,0.3,4.9c1.4,1.3,3.6,1.2,4.9-0.3c1.3-1.4,1.2-3.6-0.3-4.9
				c-0.8-0.7-1.9-1-2.9-0.8l-2.4-4.4l5,1.5c0.6,0.2,1.2-0.1,1.4-0.7s-0.1-1.2-0.7-1.4c0,0,0,0-0.1,0l-7.2-2.1l-4.9-8.8l7.4,0.6
				c0.2,0.3,0.5,0.6,0.9,0.8c1.1,0.6,2.5,0.1,3.1-1c0.6-1.1,0.1-2.5-1-3.1c-0.8-0.4-1.7-0.3-2.4,0.2l-3.9-5l10.4-0.2l5.4,5.2
				c0.4,0.4,1.2,0.4,1.6,0c0,0,0,0,0,0c0.4-0.4,0.4-1.2,0-1.6l-3.8-3.7l4.9-0.1c0.6,1.8,2.6,2.8,4.4,2.2c1.8-0.6,2.8-2.6,2.2-4.4
				c-0.6-1.8-2.6-2.8-4.4-2.2c-1,0.4-1.8,1.2-2.2,2.2l-5,0.1l3.7-3.8c0.5-0.4,0.5-1.1,0.1-1.6s-1.1-0.5-1.6-0.1
				c-0.1,0-0.1,0.1-0.1,0.2l-5.2,5.4L756,54.4l3.7-5.2c1.2,0.4,2.5-0.2,2.9-1.4c0.4-1.2-0.2-2.5-1.4-2.9c-0.6-0.2-1.3-0.2-1.9,0.2
				c-0.5,0.3-0.9,0.9-1.1,1.5l-6.4,0.8l5-9l7.2-2c0.6-0.2,0.9-0.9,0.7-1.5c-0.2-0.5-0.7-0.8-1.3-0.7l-5,1.4l2.4-4.3
				c1.9,0.3,3.7-0.9,4-2.8c0.3-1.9-0.9-3.7-2.8-4c-1.9-0.3-3.7,0.9-4,2.8c-0.2,1.1,0.1,2.1,0.8,2.9l-2.5,4.4l-1.4-5.1
				c-0.2-0.6-0.9-0.9-1.5-0.7c-0.5,0.2-0.8,0.7-0.7,1.3l2,7.2l-5.2,9.1l-2.9-6.3c0.9-0.8,1-2.3,0.2-3.2s-2.3-1-3.2-0.2
				c-0.5,0.4-0.8,1.1-0.7,1.7c0,0.7,0.3,1.3,0.8,1.7l-2.2,5.3l-4.6-8.3l2.1-7.2c0.2-0.6-0.2-1.2-0.8-1.4c0,0,0,0,0,0
				c-0.6-0.2-1.2,0.2-1.4,0.8c0,0,0,0,0,0l-1.5,5l-2.4-4.4c1.3-1.4,1.2-3.6-0.2-4.9c-1.4-1.3-3.6-1.2-4.9,0.2
				c-1.3,1.4-1.2,3.6,0.2,4.9c0.8,0.7,1.9,1,2.9,0.9l2.4,4.3l-5-1.4c-0.6-0.2-1.2,0.2-1.4,0.8c0,0,0,0,0,0c-0.2,0.6,0.2,1.2,0.8,1.4
				l7.2,2l5.2,9.4l-7.9-0.7c-0.2-0.4-0.6-0.8-1-1c-1.1-0.6-2.5-0.1-3.1,1c-0.6,1.1-0.1,2.5,1,3.1c0.7,0.4,1.6,0.3,2.3-0.1l3.6,4.8
				l-9.6,0.2l-5.4-5.2c-0.5-0.4-1.2-0.4-1.6,0.1c-0.4,0.4-0.4,1.1,0,1.5l3.8,3.7l-5,0.1c-0.5-1.4-1.8-2.3-3.3-2.3
				c-1.9,0-3.5,1.6-3.4,3.6S712,59.8,714,59.8L714,59.8z M734.2,62.8l3.9-5.6c0.3,1.9,1.3,3.6,2.8,4.7l0,0L734.2,62.8z M745.5,50.6
				c2.9-0.1,5.3,2.3,5.4,5.2c0.1,2.9-2.3,5.3-5.2,5.4c-2.9,0.1-5.3-2.3-5.4-5.2C740.2,53.1,742.5,50.7,745.5,50.6L745.5,50.6z
				 M745.9,69.3L743,63c0.9,0.3,1.8,0.5,2.8,0.5c0.9,0,1.8-0.2,2.7-0.6l0,0L745.9,69.3z M750.4,61.7c1.5-1.2,2.4-3,2.7-4.9l4.2,5.5
				L750.4,61.7z M757,49l-3.8,5.4H753c-0.3-1.8-1.3-3.3-2.7-4.4l0.1-0.1L757,49z M745.3,42.6l2.9,6.2c-1.6-0.6-3.4-0.6-5-0.1
				l-0.3-0.5L745.3,42.6z M733.9,49.5l6.8,0.6c-1.4,1.2-2.3,2.8-2.6,4.6h-0.2L733.9,49.5z"/>
			<path class="st2" d="M570,59.8c1.5,0,2.8-1,3.3-2.4l4.9-0.1l-3.6,3.8c-0.5,0.4-0.5,1.1-0.1,1.6c0.4,0.5,1.1,0.5,1.6,0.1
				c0.1,0,0.1-0.1,0.1-0.2l5.2-5.4l10.2-0.2l-3.9,5.5c-1.1-0.5-2.5,0-3,1.2c-0.3,0.7-0.2,1.4,0.2,2.1c0.6,1.1,2,1.4,3.1,0.8
				c0.5-0.3,0.8-0.7,1-1.3l6.6-0.9l-4.8,8.4l-7.3,2c-0.6,0.2-1,0.8-0.8,1.4c0.2,0.6,0.8,1,1.4,0.8l5.1-1.4l-2.5,4.4
				c-1.9-0.3-3.7,0.9-4,2.8s0.9,3.7,2.8,4c1.9,0.3,3.7-0.9,4-2.8c0.2-1.1-0.1-2.1-0.8-2.9l2.4-4.3l1.4,5c0.1,0.3,0.3,0.5,0.5,0.7
				c0.3,0.1,0.6,0.2,0.9,0.1c0.6-0.2,0.9-0.8,0.8-1.4c0,0,0,0,0,0l-2-7.2l4.9-8.7l2.8,6c-0.9,0.9-0.9,2.3-0.1,3.2
				c0.9,0.9,2.3,0.9,3.2,0.1c0.5-0.4,0.7-1.1,0.7-1.7c0-0.6-0.3-1.2-0.8-1.7l2.4-5.8l4.8,8.7l-2.1,7.2c-0.2,0.6,0.2,1.2,0.8,1.4
				c0.6,0.2,1.2-0.2,1.4-0.8l1.5-5l2.4,4.3c-1.3,1.4-1.2,3.6,0.3,4.9c1.4,1.3,3.6,1.2,4.9-0.3c1.3-1.4,1.2-3.6-0.3-4.9
				c-0.8-0.7-1.9-1-2.9-0.8l-2.4-4.4l5,1.5c0.6,0.2,1.2-0.1,1.4-0.7s-0.1-1.2-0.7-1.4c0,0,0,0-0.1,0l-7.2-2.1l-4.9-8.8l7.4,0.6
				c0.2,0.3,0.5,0.6,0.9,0.8c1.1,0.6,2.5,0.1,3.1-1c0.6-1.1,0.1-2.5-1-3.1l0,0c-0.8-0.4-1.7-0.3-2.4,0.2l-3.9-5l10.4-0.2l5.4,5.2
				c0.4,0.4,1.2,0.4,1.6,0c0,0,0,0,0,0c0.4-0.4,0.4-1.2,0-1.6l-3.8-3.7l4.9-0.1c0.6,1.8,2.6,2.8,4.4,2.2c1.8-0.6,2.8-2.6,2.2-4.4
				c-0.6-1.8-2.6-2.8-4.4-2.2c-1,0.4-1.8,1.2-2.2,2.2l-5,0.1l3.7-3.8c0.5-0.4,0.5-1.1,0.1-1.6s-1.1-0.5-1.6-0.1
				c-0.1,0-0.1,0.1-0.1,0.2l-5.2,5.4L612,54.4l3.7-5.2c1.2,0.4,2.5-0.2,2.9-1.4c0.4-1.2-0.2-2.5-1.4-2.9c-0.6-0.2-1.3-0.2-1.9,0.2
				c-0.5,0.3-0.9,0.9-1.1,1.5l-6.4,0.8l5-9l7.2-2c0.6-0.2,0.9-0.9,0.7-1.5c-0.2-0.5-0.7-0.8-1.3-0.7l-5,1.4l2.4-4.3
				c1.9,0.3,3.7-0.9,4-2.8c0.3-1.9-0.9-3.7-2.8-4c-1.9-0.3-3.7,0.9-4,2.8c-0.2,1.1,0.1,2.1,0.8,2.9l-2.5,4.4l-1.4-5.1
				c-0.2-0.6-0.9-0.9-1.5-0.7c-0.5,0.2-0.8,0.7-0.7,1.3l2,7.2l-5.2,9.1l-2.9-6.3c0.9-0.8,1-2.3,0.2-3.2s-2.3-1-3.2-0.2
				c-0.5,0.4-0.8,1.1-0.7,1.7c0,0.7,0.3,1.3,0.8,1.7l-2.2,5.3l-4.6-8.3l2.1-7.2c0.2-0.6-0.2-1.2-0.8-1.4c0,0,0,0,0,0
				c-0.6-0.2-1.2,0.2-1.4,0.8c0,0,0,0,0,0l-1.5,5l-2.4-4.4c1.3-1.4,1.2-3.6-0.2-4.9c-1.4-1.3-3.6-1.2-4.9,0.2
				c-1.3,1.4-1.2,3.6,0.2,4.9c0.8,0.7,1.9,1,2.9,0.9l2.4,4.3l-5-1.4c-0.6-0.2-1.2,0.2-1.4,0.8c0,0,0,0,0,0c-0.2,0.6,0.2,1.2,0.8,1.4
				l7.2,2l5.2,9.4l-7.9-0.7c-0.2-0.4-0.6-0.8-1-1c-1.1-0.6-2.5-0.1-3.1,1c-0.6,1.1-0.1,2.5,1,3.1c0.7,0.4,1.6,0.3,2.3-0.1l3.6,4.8
				l-9.6,0.2l-5.4-5.2c-0.5-0.4-1.2-0.4-1.6,0.1c-0.4,0.4-0.4,1.1,0,1.5l3.8,3.7l-5,0.1c-0.5-1.4-1.8-2.3-3.3-2.3
				c-1.9,0-3.5,1.6-3.4,3.6S568,59.8,570,59.8L570,59.8z M590.2,62.8l3.9-5.6c0.3,1.9,1.3,3.6,2.8,4.7l0,0L590.2,62.8z M601.5,50.6
				c2.9-0.1,5.3,2.3,5.4,5.2c0.1,2.9-2.3,5.3-5.2,5.4c-2.9,0.1-5.3-2.3-5.4-5.2C596.2,53.1,598.5,50.7,601.5,50.6L601.5,50.6z
				 M601.9,69.3L599,63c0.9,0.3,1.8,0.5,2.8,0.5c0.9,0,1.8-0.2,2.7-0.6l0,0L601.9,69.3z M606.4,61.7c1.5-1.2,2.4-3,2.7-4.9l4.2,5.5
				L606.4,61.7z M613,49l-3.8,5.4H609c-0.3-1.8-1.3-3.3-2.7-4.4l0.1-0.1L613,49z M601.3,42.6l2.9,6.2c-1.6-0.6-3.4-0.6-5-0.1
				l-0.3-0.5L601.3,42.6z M589.9,49.5l6.8,0.6c-1.4,1.2-2.3,2.8-2.6,4.6h-0.2L589.9,49.5z"/>
			<path class="st2" d="M599,225.8c1.5,0,2.8-1,3.3-2.4l4.9-0.1l-3.6,3.8c-0.5,0.4-0.5,1.1-0.1,1.6c0.4,0.5,1.1,0.5,1.6,0.1
				c0.1,0,0.1-0.1,0.1-0.2l5.2-5.4l10.2-0.2l-3.9,5.5c-1.1-0.5-2.5,0-3,1.2c-0.3,0.7-0.2,1.4,0.2,2.1c0.6,1.1,2,1.4,3.1,0.8
				c0.5-0.3,0.8-0.7,1-1.3l6.6-0.9l-4.8,8.4l-7.3,2c-0.6,0.2-1,0.8-0.8,1.4c0.2,0.6,0.8,1,1.4,0.8l5.1-1.4l-2.5,4.4
				c-1.9-0.3-3.7,0.9-4,2.8c-0.3,1.9,0.9,3.7,2.8,4c1.9,0.3,3.7-0.9,4-2.8c0.2-1.1-0.1-2.1-0.8-2.9l2.4-4.3l1.4,5
				c0.1,0.3,0.3,0.5,0.5,0.7c0.3,0.1,0.6,0.2,0.9,0.1c0.6-0.2,0.9-0.8,0.8-1.4c0,0,0,0,0,0l-2-7.2l4.9-8.7l2.8,6
				c-0.9,0.9-0.9,2.3-0.1,3.2c0.9,0.9,2.3,0.9,3.2,0.1c0.5-0.4,0.7-1.1,0.7-1.7c0-0.6-0.3-1.2-0.8-1.6l2.4-5.9l4.8,8.7l-2.1,7.2
				c-0.2,0.6,0.2,1.2,0.8,1.4c0.6,0.2,1.2-0.2,1.4-0.8l1.5-5l2.4,4.3c-1.3,1.4-1.2,3.6,0.3,4.9c1.4,1.3,3.6,1.2,4.9-0.3
				c1.3-1.4,1.2-3.6-0.3-4.9c-0.8-0.7-1.9-1-2.9-0.8l-2.4-4.4l5,1.5c0.6,0.2,1.2-0.1,1.4-0.7s-0.1-1.2-0.7-1.4c0,0,0,0-0.1,0
				l-7.2-2.1l-4.9-8.8l7.4,0.6c0.2,0.3,0.5,0.6,0.9,0.8c1.1,0.6,2.5,0.3,3.1-0.8c0.6-1.1,0.3-2.5-0.8-3.1c-0.1-0.1-0.2-0.1-0.3-0.2
				c-0.8-0.4-1.7-0.3-2.4,0.2l-3.9-5l10.5-0.2l5.4,5.2c0.4,0.4,1.2,0.4,1.6,0c0,0,0,0,0,0c0.4-0.4,0.4-1.2,0-1.6l-3.8-3.6l4.9-0.1
				c0.6,1.8,2.6,2.8,4.4,2.2c1.8-0.6,2.8-2.6,2.2-4.4c-0.6-1.8-2.6-2.8-4.4-2.2c-1,0.4-1.8,1.2-2.2,2.2l-5,0.1l3.7-3.8
				c0.5-0.4,0.5-1.1,0.1-1.6c-0.4-0.5-1.1-0.5-1.6-0.1c-0.1,0-0.1,0.1-0.1,0.2l-5.2,5.4l-10.1,0.2l3.7-5.2c1.2,0.4,2.5-0.2,2.9-1.4
				c0.4-1.2-0.2-2.5-1.4-2.9c-0.6-0.2-1.3-0.2-1.9,0.2c-0.5,0.3-0.9,0.9-1.1,1.5l-6.4,0.9l5-9l7.2-2c0.6-0.2,0.9-0.9,0.7-1.5
				c-0.2-0.5-0.7-0.8-1.3-0.7l-5,1.4l2.4-4.3c1.9,0.3,3.7-0.9,4-2.8c0.3-1.9-0.9-3.7-2.8-4c-1.9-0.3-3.7,0.9-4,2.8
				c-0.2,1.1,0.1,2.1,0.8,2.9l-2.5,4.4l-1.4-5.1c-0.2-0.6-0.9-0.9-1.5-0.7c-0.5,0.2-0.8,0.7-0.7,1.3l2,7.3l-5.1,9.1l-2.9-6.3
				c0.9-0.8,1-2.3,0.2-3.2c-0.8-0.9-2.3-1-3.2-0.2c-0.5,0.4-0.8,1.1-0.7,1.7c0,0.7,0.3,1.3,0.8,1.7l-2.2,5.4l-4.6-8.3l2.1-7.2
				c0.2-0.6-0.2-1.2-0.8-1.4c0,0,0,0,0,0c-0.6-0.2-1.2,0.2-1.4,0.8c0,0,0,0,0,0l-1.5,5l-2.4-4.4c1.3-1.4,1.2-3.6-0.2-4.9
				c-1.4-1.3-3.6-1.2-4.9,0.2c-1.3,1.4-1.2,3.6,0.2,4.9c0.8,0.7,1.9,1,2.9,0.9l2.4,4.3l-5-1.4c-0.6-0.2-1.2,0.2-1.4,0.8c0,0,0,0,0,0
				c-0.2,0.6,0.2,1.2,0.8,1.4l7.2,2.1l5.2,9.4l-7.9-0.7c-0.2-0.4-0.6-0.8-1-1c-1.1-0.6-2.5-0.1-3.1,1c-0.6,1.1-0.1,2.5,1,3.1
				c0.7,0.4,1.6,0.3,2.3-0.1l3.6,4.7l-9.6,0.2l-5.4-5.2c-0.5-0.4-1.2-0.4-1.6,0.1c-0.4,0.4-0.4,1.1,0,1.5l3.8,3.6l-5,0.1
				c-0.5-1.4-1.8-2.3-3.3-2.3c-1.9,0-3.5,1.6-3.4,3.6S597,225.8,599,225.8L599,225.8z M619.2,228.8l3.9-5.6c0.3,1.9,1.3,3.6,2.8,4.7
				l0,0L619.2,228.8z M630.5,216.6c2.9-0.1,5.3,2.3,5.4,5.2c0.1,2.9-2.3,5.3-5.2,5.4c-2.9,0.1-5.3-2.3-5.4-5.2
				C625.2,219.1,627.5,216.7,630.5,216.6L630.5,216.6z M630.9,235.3L628,229c0.9,0.3,1.8,0.5,2.8,0.5c0.9,0,1.8-0.2,2.7-0.6l0,0
				L630.9,235.3z M635.4,227.7c1.5-1.2,2.4-3,2.7-4.9l4.2,5.5L635.4,227.7z M642,215l-3.8,5.4H638c-0.3-1.8-1.3-3.3-2.7-4.4l0.1-0.1
				L642,215z M630.3,208.6l2.9,6.2c-1.6-0.6-3.4-0.6-5-0.1l-0.3-0.5L630.3,208.6z M618.9,215.5l6.8,0.6c-1.4,1.2-2.3,2.8-2.6,4.6
				h-0.2L618.9,215.5z"/>
			<path class="st2" d="M595.1,770.3c1,0,1.8-0.7,2.1-1.6l3.2-0.1l-2.4,2.5c-0.1,0.1-0.2,0.3-0.2,0.5c0,0.2,0.1,0.4,0.2,0.5
				c0.3,0.3,0.7,0.3,1,0l3.4-3.5l6.6-0.1l-2.5,3.6c-0.8-0.3-1.6,0-1.9,0.8c-0.3,0.8,0,1.6,0.8,1.9c0.4,0.2,0.9,0.1,1.3-0.1
				c0.3-0.2,0.6-0.5,0.7-0.8l4.3-0.6l-3.1,5.5l-4.7,1.3c-0.4,0.1-0.6,0.5-0.5,0.9c0.1,0.4,0.5,0.6,0.9,0.5l3.3-0.9l-1.6,2.8
				c-1.2-0.2-2.4,0.6-2.6,1.8c-0.2,1.2,0.6,2.4,1.8,2.6c1.2,0.2,2.4-0.6,2.6-1.8c0.1-0.7-0.1-1.4-0.5-1.9l1.6-2.8l0.9,3.3
				c0,0.2,0.2,0.3,0.3,0.4c0.2,0.1,0.4,0.1,0.6,0.1c0.4-0.1,0.6-0.5,0.5-0.9c0,0,0,0,0,0l-1.3-4.7l3.2-5.7l1.8,3.9
				c-0.3,0.3-0.5,0.7-0.5,1.1c0,0.8,0.7,1.5,1.5,1.5c0.8,0,1.5-0.7,1.5-1.5c0-0.4-0.2-0.8-0.5-1.1l1.6-3.8l3.1,5.7l-1.4,4.7
				c-0.1,0.4,0.1,0.8,0.5,0.9s0.8-0.1,0.9-0.5l1-3.3l1.5,2.8c-0.8,0.9-0.8,2.4,0.2,3.2c0.7,0.7,1.8,0.8,2.6,0.3
				c1.1-0.6,1.5-2,0.9-3.1c-0.5-0.9-1.4-1.3-2.4-1.2l-1.6-2.9l3.3,1c0.4,0.1,0.8-0.1,0.9-0.5s-0.1-0.8-0.5-0.9L623,779l-3.2-5.8
				l4.8,0.4c0.1,0.2,0.3,0.4,0.6,0.5c0.7,0.4,1.6,0.1,2-0.6c0.4-0.7,0.1-1.6-0.6-2c-0.5-0.3-1.1-0.2-1.6,0.1l-2.5-3.3l6.8-0.1
				l3.5,3.4c0.3,0.3,0.7,0.3,1,0c0.3-0.3,0.3-0.8,0-1c0,0,0,0,0,0l-2.5-2.4l3.2-0.1c0.3,0.9,1.2,1.5,2.2,1.5c1.3,0,2.3-1.1,2.3-2.3
				s-1.1-2.3-2.3-2.3c-1,0-1.8,0.6-2.1,1.6l-3.3,0.1l2.4-2.5c0.3-0.3,0.3-0.8,0-1c-0.3-0.3-0.7-0.3-1,0l-3.4,3.5l-6.6,0.1l2.4-3.4
				c0.4,0.1,0.9,0.1,1.3-0.1c0.7-0.4,0.9-1.3,0.5-2c-0.4-0.7-1.3-0.9-2-0.5c-0.4,0.2-0.6,0.6-0.7,1l-4.2,0.5l3.3-5.9l4.7-1.3
				c0.4-0.1,0.6-0.5,0.5-0.9c-0.1-0.4-0.5-0.6-0.9-0.5l-3.3,0.9l1.6-2.8c1.2,0.2,2.4-0.6,2.7-1.8c0.2-1.2-0.6-2.4-1.8-2.7
				c-1.2-0.2-2.4,0.6-2.7,1.8c-0.1,0.7,0.1,1.4,0.5,1.9l-1.6,2.8l-0.9-3.3c-0.1-0.4-0.5-0.6-0.9-0.5c-0.4,0.1-0.6,0.5-0.5,0.9
				l1.3,4.7l-3.3,5.9l-1.9-4.1c0.6-0.5,0.7-1.5,0.1-2.1c-0.3-0.3-0.7-0.5-1.1-0.5c-0.8,0-1.5,0.7-1.5,1.5c0,0.4,0.2,0.8,0.5,1.1
				l-1.5,3.5l-3-5.5l1.4-4.7c0.1-0.4-0.1-0.8-0.5-0.9c-0.4-0.1-0.8,0.1-0.9,0.5c0,0,0,0,0,0l-1,3.3l-1.6-2.9
				c0.8-0.9,0.8-2.4-0.2-3.2c-0.9-0.8-2.4-0.8-3.2,0.2c-0.8,0.9-0.8,2.4,0.2,3.2c0.5,0.5,1.2,0.7,1.9,0.6l1.5,2.8l-3.3-0.9
				c-0.2,0-0.4,0-0.6,0.1c-0.4,0.2-0.5,0.6-0.3,1c0.1,0.2,0.3,0.3,0.4,0.4l4.7,1.3l3.4,6.2l-5.2-0.4c-0.1-0.3-0.4-0.5-0.7-0.7
				c-0.7-0.4-1.6-0.1-2,0.7c-0.4,0.7-0.1,1.6,0.7,2c0.5,0.2,1.1,0.2,1.5-0.1l2.4,3.1l-6.3,0.1l-3.5-3.4c-0.3-0.3-0.7-0.3-1,0
				c-0.3,0.3-0.3,0.8,0,1c0,0,0,0,0,0l2.5,2.4h-3.3c-0.4-1.2-1.7-1.8-2.9-1.3c-1.2,0.4-1.8,1.7-1.3,2.9c0.3,0.9,1.2,1.5,2.2,1.5
				L595.1,770.3z M608.3,772.3l2.6-3.7c0.2,1.2,0.9,2.3,1.8,3.1l0,0L608.3,772.3z M615.7,764.3c1.9,0,3.5,1.5,3.5,3.4
				s-1.5,3.5-3.4,3.5c-1.9,0-3.5-1.5-3.5-3.4c0,0,0,0,0,0C612.3,766,613.8,764.4,615.7,764.3L615.7,764.3z M616,776.5l-1.9-4.1
				c1.2,0.4,2.4,0.4,3.6-0.1l0,0L616,776.5z M619,771.6c1-0.8,1.6-1.9,1.7-3.2l2.7,3.6L619,771.6z M623.3,763.3l-2.5,3.5h-0.1
				c-0.2-1.1-0.9-2.2-1.8-2.9v-0.1L623.3,763.3z M615.6,759.1l1.9,4.1c-0.6-0.2-1.2-0.3-1.8-0.3c-0.5,0-1,0.1-1.4,0.3l-0.2-0.3
				L615.6,759.1z M608.2,763.6l4.5,0.4c-0.9,0.8-1.5,1.8-1.7,3h-0.2L608.2,763.6z"/>
			<path class="st2" d="M186.7,98.1c1,0,1.8-0.7,2.1-1.6h3.2l-2.4,2.5c-0.1,0.1-0.2,0.3-0.2,0.5c0,0.4,0.4,0.7,0.8,0.7
				c0.2,0,0.4-0.1,0.5-0.2l3.4-3.5l6.6-0.1l-2.5,3.6c-0.8-0.3-1.6,0.1-1.9,0.8c-0.3,0.8,0.1,1.6,0.8,1.9c0.4,0.2,0.9,0.1,1.3-0.1
				c0.3-0.2,0.5-0.5,0.7-0.8l4.3-0.6l-3.1,5.5l-4.7,1.3c-0.4,0.1-0.6,0.5-0.5,0.9c0.1,0.4,0.5,0.6,0.9,0.5l0,0l3.3-0.9l-1.6,2.9
				c-1.2-0.2-2.4,0.6-2.6,1.8c-0.2,1.2,0.6,2.4,1.8,2.6s2.4-0.6,2.6-1.8c0.1-0.7-0.1-1.4-0.5-1.9l1.6-2.8l0.9,3.3
				c0.1,0.2,0.2,0.3,0.4,0.4c0.4,0.2,0.8,0.1,1-0.3c0.1-0.2,0.1-0.4,0.1-0.6l-1.3-4.7l3.2-5.7l1.8,3.9c-0.6,0.6-0.6,1.5,0,2.1
				c0.3,0.3,0.7,0.5,1.1,0.5c0.8,0,1.5-0.7,1.4-1.5c0-0.4-0.2-0.8-0.5-1.1l1.6-3.8l3.1,5.7l-1.4,4.7c-0.1,0.4,0.1,0.8,0.5,0.9
				c0,0,0,0,0,0c0.4,0.1,0.8-0.1,0.9-0.5c0,0,0,0,0,0l1-3.3l1.5,2.8c-0.8,0.9-0.8,2.4,0.2,3.2c0.9,0.8,2.4,0.8,3.2-0.2
				c0.8-0.9,0.8-2.4-0.2-3.2c-0.5-0.5-1.2-0.7-1.9-0.6l-1.6-2.9l3.3,1c0.4,0.1,0.8-0.1,0.9-0.5s-0.1-0.8-0.5-0.9c0,0,0,0-0.1,0
				l-4.7-1.4l-3.2-5.8l4.8,0.4c0.1,0.2,0.3,0.4,0.6,0.5c0.7,0.4,1.6,0.1,2-0.7c0.4-0.7,0.1-1.6-0.7-2c-0.5-0.2-1.1-0.2-1.5,0.1
				l-2.6-3.4l6.8-0.1l3.5,3.4c0.3,0.3,0.7,0.3,1,0c0,0,0,0,0,0c0.3-0.3,0.3-0.8,0-1c0,0,0,0,0,0l-2.4-2.4l3.2-0.1
				c0.4,1.2,1.7,1.8,2.9,1.4s1.8-1.7,1.4-2.9s-1.7-1.8-2.9-1.4c-0.7,0.2-1.2,0.8-1.4,1.4h-3.3l2.4-2.5c0.3-0.3,0.3-0.7,0-1
				c-0.3-0.3-0.7-0.3-1,0l-3.6,3.6l-6.6,0.1l2.4-3.4c0.8,0.3,1.6-0.1,1.9-0.9c0.3-0.8-0.1-1.6-0.9-1.9c-0.4-0.1-0.9-0.1-1.2,0.1
				c-0.4,0.2-0.6,0.6-0.7,1l-4.2,0.6l3.3-5.9l4.7-1.3c0.4-0.1,0.6-0.5,0.5-0.9c-0.1-0.4-0.5-0.6-0.9-0.5c0,0,0,0-0.1,0l-3.3,0.9
				l1.6-2.8c1.2,0.2,2.4-0.6,2.7-1.8s-0.6-2.4-1.8-2.7c-1.2-0.2-2.4,0.6-2.7,1.8c-0.1,0.7,0.1,1.4,0.5,1.9l-1.6,2.8l-0.9-3.3
				c-0.1-0.4-0.5-0.6-0.9-0.5c-0.4,0.1-0.6,0.5-0.5,0.9l1.3,4.7l-3.4,6l-1.9-4.1c0.3-0.3,0.5-0.7,0.5-1.1c0-0.8-0.7-1.5-1.5-1.5
				s-1.5,0.7-1.5,1.5c0,0.4,0.2,0.8,0.5,1.1l-1.4,3.5l-3-5.4l1.4-4.7c0.1-0.4-0.1-0.8-0.5-0.9c-0.4-0.1-0.8,0.1-0.9,0.5
				c0,0,0,0,0,0.1l-0.9,3.3l-1.6-2.9c0.8-0.9,0.8-2.4-0.2-3.2c-0.9-0.8-2.4-0.8-3.2,0.2c-0.7,0.7-0.8,1.8-0.3,2.6
				c0.5,0.9,1.4,1.3,2.4,1.1l1.5,2.8l-3.3-0.9c-0.2,0-0.4,0-0.6,0.1c-0.2,0.1-0.3,0.3-0.4,0.4c-0.1,0.4,0.1,0.8,0.5,0.9c0,0,0,0,0,0
				l4.7,1.3l3.4,6.2l-5.2-0.4c-0.1-0.3-0.4-0.5-0.6-0.7c-0.7-0.4-1.6-0.1-2,0.7c-0.4,0.7-0.1,1.6,0.7,2c0.5,0.2,1,0.2,1.5-0.1
				l2.4,3.1l-6.3,0.1l-3.5-3.5c-0.3-0.3-0.7-0.3-1,0c-0.3,0.3-0.3,0.7,0,1l2.5,2.4l-3.3,0.1c-0.4-1.2-1.7-1.8-2.9-1.3
				s-1.8,1.7-1.3,2.9c0.3,0.9,1.2,1.5,2.2,1.5L186.7,98.1z M199.9,100.1l2.6-3.7c0.2,1.2,0.9,2.3,1.9,3.1l0,0L199.9,100.1z
				 M207.3,92.1c1.9,0,3.5,1.5,3.5,3.4c0,1.9-1.5,3.5-3.4,3.5c-1.9,0-3.5-1.5-3.5-3.4c0,0,0,0,0,0C203.9,93.7,205.4,92.2,207.3,92.1
				L207.3,92.1z M207.6,104.3l-1.9-4.1c0.6,0.2,1.2,0.3,1.8,0.3c0.6,0,1.2-0.1,1.8-0.4l0,0L207.6,104.3z M210.6,99.4
				c1-0.8,1.6-1.9,1.7-3.2l2.7,3.6L210.6,99.4z M214.8,91.1l-2.5,3.6h-0.1c-0.2-1.1-0.9-2.2-1.8-2.9v-0.1L214.8,91.1z M207.2,86.9
				l1.9,4.1c-0.6-0.2-1.2-0.3-1.8-0.3c-0.5,0-1,0.1-1.4,0.3l-0.2-0.3L207.2,86.9z M199.8,91.4l4.5,0.4c-0.9,0.8-1.5,1.8-1.7,3h-0.2
				L199.8,91.4z"/>
			<path class="st2" d="M101.4,132.7c1,0,1.8-0.7,2.1-1.6l3.2-0.1l-2.4,2.5c-0.1,0.1-0.2,0.3-0.2,0.5c0,0.2,0.1,0.4,0.2,0.5
				c0.3,0.3,0.7,0.3,1,0l3.4-3.5l6.6-0.1l-2.4,3.6c-0.4-0.2-0.9-0.2-1.3,0.1c-0.7,0.4-0.9,1.3-0.5,2c0.4,0.7,1.3,0.9,2,0.5l0,0
				c0.3-0.2,0.5-0.5,0.7-0.8l4.3-0.6l-3.1,5.5l-4.8,1.3c-0.4,0.1-0.6,0.5-0.5,0.9c0.1,0.4,0.5,0.6,0.9,0.5l3.3-0.9l-1.6,2.9
				c-1.2-0.2-2.4,0.6-2.7,1.8c-0.2,1,0.3,1.9,1.1,2.4c1.1,0.6,2.5,0.2,3.1-0.8c0.5-0.9,0.4-1.9-0.3-2.7l1.6-2.8l0.9,3.3
				c0.1,0.2,0.2,0.3,0.3,0.4c0.4,0.2,0.8,0.1,1-0.3c0.1-0.2,0.1-0.4,0.1-0.6l-1.3-4.7l3.2-5.6l1.8,3.9c-0.6,0.6-0.6,1.5,0,2.1
				c0.6,0.6,1.5,0.6,2.1,0c0.6-0.6,0.6-1.5,0-2.1c0,0-0.1-0.1-0.1-0.1l1.6-3.8l3.1,5.7l-1.4,4.7c-0.1,0.4,0.2,0.8,0.6,0.9
				c0.3,0.1,0.7-0.1,0.8-0.4l1-3.3l1.5,2.8c-0.8,0.9-0.8,2.4,0.2,3.2c0.9,0.8,2.4,0.8,3.2-0.2c0.8-0.9,0.8-2.4-0.2-3.2
				c-0.5-0.5-1.2-0.7-1.9-0.6l-1.6-2.9l3.3,1c0.4,0.1,0.8-0.1,0.9-0.5c0.1-0.4-0.1-0.8-0.5-0.9l-4.7-1.4l-3.2-5.8l4.8,0.4
				c0.1,0.2,0.3,0.4,0.6,0.5c0.7,0.4,1.6,0.1,2-0.7c0.4-0.7,0.1-1.6-0.7-2c-0.5-0.2-1.1-0.2-1.5,0.1l-2.5-3.3l6.8-0.1l3.5,3.4
				c0.2,0.3,0.7,0.4,1,0.2c0.3-0.2,0.4-0.7,0.2-1c-0.1-0.1-0.1-0.1-0.2-0.2l-2.4-2.4l3.2-0.1c0.4,1.2,1.7,1.8,2.9,1.4
				c1.2-0.4,1.8-1.7,1.4-2.9c-0.3-0.9-1.2-1.5-2.2-1.5c-1,0-1.8,0.7-2.1,1.6l-3.3,0.1l2.4-2.5c0.3-0.3,0.3-0.7,0-1c0,0,0,0,0,0
				c-0.3-0.3-0.7-0.3-1,0l-3.4,3.5l-6.6,0.1l2.4-3.4c0.8,0.3,1.6-0.1,1.9-0.9c0.2-0.4,0.1-0.9-0.1-1.3c-0.4-0.7-1.3-0.9-2-0.5
				c-0.4,0.2-0.6,0.6-0.7,1l-4.2,0.6l3.3-5.9l4.7-1.3c0.4-0.1,0.6-0.5,0.5-0.9c-0.1-0.4-0.5-0.6-0.9-0.5l0,0l-3.3,0.9l1.6-2.8
				c1.2,0.2,2.4-0.6,2.7-1.8c0.2-1.2-0.6-2.4-1.8-2.7s-2.4,0.6-2.7,1.8c-0.1,0.7,0.1,1.4,0.5,1.9l-1.6,2.8l-0.9-3.3
				c-0.1-0.4-0.5-0.6-0.9-0.5s-0.6,0.5-0.5,0.9l0,0l1.3,4.7l-3.3,5.9l-1.9-4.1c0.3-0.3,0.5-0.7,0.5-1.1c0-0.8-0.7-1.5-1.5-1.5
				c-0.8,0-1.5,0.7-1.5,1.5c0,0.4,0.2,0.8,0.6,1.1l-1.4,3.5l-3-5.4l1.4-4.7c0.1-0.4-0.1-0.8-0.5-0.9c0,0,0,0,0,0
				c-0.4-0.1-0.8,0.1-0.9,0.5c0,0,0,0,0,0l-1,3.3l-1.6-2.9c0.7-0.7,0.8-1.8,0.3-2.6c-0.6-1.1-2-1.5-3.1-0.9s-1.5,2-0.9,3.1
				c0.5,0.8,1.4,1.3,2.4,1.1l1.6,2.8l-3.3-0.9c-0.2,0-0.4,0-0.6,0.1c-0.4,0.2-0.5,0.6-0.3,1c0.1,0.2,0.3,0.3,0.4,0.4l4.7,1.3
				l3.4,6.2l-5.2-0.4c-0.4-0.7-1.3-1-2-0.7c-0.3,0.1-0.5,0.4-0.7,0.7c-0.4,0.7-0.1,1.6,0.7,2c0.5,0.2,1,0.2,1.5-0.1l2.4,3.1
				l-6.3,0.1l-3.5-3.4c-0.3-0.3-0.7-0.4-1-0.1c-0.3,0.3-0.4,0.7-0.1,1c0,0.1,0.1,0.1,0.2,0.1l2.4,2.3l-3.3,0.1
				c-0.4-1.2-1.7-1.8-2.9-1.3c-1.2,0.4-1.8,1.7-1.3,2.9C99.6,132,100.5,132.6,101.4,132.7L101.4,132.7z M114.6,134.7l2.6-3.7
				c0.2,1.2,0.9,2.3,1.8,3.1l0,0L114.6,134.7z M122,126.7c1.9,0,3.5,1.5,3.5,3.4s-1.5,3.5-3.4,3.5c-1.9,0-3.5-1.5-3.5-3.4
				c0,0,0,0,0,0C118.6,128.3,120.1,126.7,122,126.7L122,126.7z M122.3,138.8l-1.9-4.1c1.2,0.4,2.4,0.4,3.6-0.1l0,0L122.3,138.8z
				 M125.3,133.9c1-0.8,1.6-1.9,1.7-3.2l2.7,3.6L125.3,133.9z M129.5,125.6l-2.5,3.6h-0.1c-0.2-1.1-0.9-2.2-1.8-2.9v-0.1
				L129.5,125.6z M121.9,121.5l1.9,4.1c-0.6-0.2-1.2-0.3-1.8-0.3c-0.5,0-1,0.1-1.4,0.3l-0.2-0.3L121.9,121.5z M114.4,126l4.5,0.4
				c-0.9,0.8-1.5,1.8-1.7,3H117L114.4,126z"/>
			<path class="st2" d="M490.4,255.8c1.5,0,2.8-1,3.3-2.4l4.9-0.1l-3.6,3.8c-0.4,0.4-0.4,1.2,0,1.6c0.4,0.4,1.2,0.4,1.6,0
				c0,0,0,0,0,0l5.2-5.4l10.2-0.2l-3.9,5.5c-1.1-0.5-2.5,0-3,1.2c-0.3,0.7-0.2,1.4,0.1,2.1c0.6,1.1,2,1.4,3.1,0.8c0,0,0,0,0,0
				c0.5-0.3,0.8-0.7,1-1.3l6.6-0.9l-4.8,8.4l-7.3,2c-0.6,0.1-1,0.7-0.9,1.3c0.1,0.6,0.7,1,1.3,0.9c0.1,0,0.1,0,0.2,0l5.1-1.4
				l-2.5,4.4c-1.9-0.4-3.7,0.9-4.1,2.8c-0.4,1.9,0.9,3.7,2.8,4.1c1.5,0.3,3-0.4,3.7-1.7c0.7-1.3,0.5-2.9-0.4-4l2.4-4.3l1.4,5
				c0.2,0.6,0.8,1,1.4,0.8c0.6-0.2,1-0.8,0.8-1.4l-2-7.2l4.8-8.6l2.8,6c-0.9,0.9-0.9,2.3-0.1,3.2c0.4,0.5,1.1,0.7,1.7,0.7
				c1.2,0,2.2-1,2.2-2.3c0,0,0,0,0,0c0-0.6-0.3-1.2-0.8-1.6l2.4-5.9l4.8,8.7l-2.1,7.2c-0.2,0.6,0.2,1.2,0.8,1.4
				c0.6,0.2,1.2-0.2,1.4-0.8l1.5-5l2.4,4.3c-1.3,1.4-1.2,3.6,0.2,4.9s3.6,1.2,4.9-0.2c1.3-1.4,1.2-3.6-0.2-4.9
				c-0.8-0.7-1.9-1-2.9-0.9l-2.4-4.4l5,1.5c0.6,0.2,1.2-0.2,1.4-0.8c0.2-0.6-0.2-1.2-0.8-1.4l-7.2-2.1l-4.9-8.8l7.4,0.6
				c0.7,1.1,2.1,1.4,3.1,0.7s1.4-2.1,0.7-3.1s-2.1-1.4-3.1-0.7c0,0-0.1,0.1-0.1,0.1l-3.9-5l10.5-0.2l5.4,5.2
				c0.5,0.4,1.2,0.3,1.6-0.2c0.3-0.4,0.3-1,0-1.5l-3.7-3.7l4.9-0.1c0.6,1.8,2.6,2.8,4.5,2.2c1.8-0.6,2.8-2.6,2.2-4.5
				c-0.6-1.8-2.6-2.8-4.5-2.2c-1,0.4-1.8,1.2-2.2,2.2l-5,0.1l3.6-3.7c0.4-0.5,0.3-1.2-0.2-1.6c-0.4-0.3-1-0.3-1.5,0l-5.2,5.4
				l-10.1,0.2l3.7-5.2c0.6,0.2,1.3,0.2,1.9-0.2c1.1-0.7,1.4-2.1,0.7-3.1c-0.6-1-2-1.3-3-0.8c-0.5,0.3-0.9,0.9-1.1,1.5l-6.4,0.8l5-9
				l7.2-2c0.6-0.2,1-0.8,0.8-1.4c-0.2-0.6-0.8-1-1.4-0.8l-5,1.4l2.4-4.3c1.9,0.3,3.7-0.9,4.1-2.8c0.3-1.9-0.9-3.7-2.8-4.1
				s-3.7,0.9-4.1,2.8c-0.2,1.1,0.1,2.1,0.8,2.9l-2.5,4.4l-1.4-5.1c-0.1-0.6-0.7-1-1.3-0.9c-0.6,0.1-1,0.7-0.9,1.3c0,0.1,0,0.1,0,0.2
				l2,7.3l-5.1,9.1l-2.9-6.3c0.9-0.8,1-2.3,0.2-3.2s-2.3-1-3.2-0.2c-0.5,0.4-0.8,1.1-0.8,1.8c0,0.7,0.3,1.3,0.8,1.7l-2.2,5.3
				l-4.6-8.3l2.1-7.2c0.2-0.6-0.2-1.2-0.8-1.4c-0.6-0.2-1.2,0.2-1.4,0.8l-1.5,5l-2.4-4.4c1.3-1.4,1.2-3.7-0.2-5s-3.7-1.2-5,0.2
				c-1.3,1.4-1.2,3.7,0.2,5c0.8,0.7,1.9,1,3,0.9l2.4,4.3l-5-1.4c-0.3-0.1-0.6,0-0.9,0.1c-0.3,0.1-0.5,0.4-0.5,0.7
				c-0.2,0.6,0.2,1.2,0.8,1.4l7.2,2l5.2,9.4l-7.9-0.7c-0.2-0.4-0.6-0.8-1-1c-1.1-0.6-2.5-0.3-3.1,0.8c-0.6,1.1-0.3,2.5,0.8,3.1
				c0.1,0.1,0.2,0.1,0.3,0.2c0.7,0.4,1.6,0.3,2.3-0.1l3.6,4.7l-9.6,0.2l-5.4-5.2c-0.4-0.5-1.1-0.5-1.6-0.1s-0.5,1.1-0.1,1.6
				c0,0.1,0.1,0.1,0.2,0.1l3.8,3.7l-5,0.1c-0.7-1.8-2.7-2.8-4.5-2.1c-1.8,0.7-2.8,2.7-2.1,4.5C487.7,254.8,489,255.8,490.4,255.8
				L490.4,255.8z M510.6,258.9l3.9-5.6c0.3,1.9,1.3,3.6,2.8,4.7l0,0L510.6,258.9z M521.9,246.7c2.9-0.1,5.3,2.3,5.4,5.2
				c0.1,2.9-2.3,5.3-5.2,5.4c-2.9,0.1-5.3-2.3-5.4-5.2C516.7,249.2,519,246.8,521.9,246.7C521.9,246.7,521.9,246.7,521.9,246.7
				L521.9,246.7z M522.3,265.3l-2.9-6.2c0.9,0.3,1.8,0.5,2.8,0.5c0.9,0,1.9-0.2,2.7-0.6l0,0L522.3,265.3z M526.9,257.8
				c1.5-1.2,2.4-3,2.7-4.9l4.2,5.4L526.9,257.8z M533.4,245.1l-3.8,5.4h-0.2c-0.3-1.8-1.3-3.3-2.7-4.4l0.1-0.1L533.4,245.1z
				 M521.7,238.7l2.9,6.2c-0.9-0.3-1.8-0.5-2.8-0.5c-0.7,0-1.5,0.1-2.2,0.4l-0.3-0.5L521.7,238.7z M510.3,245.6l6.8,0.6
				c-1.4,1.2-2.3,2.8-2.6,4.6h-0.2L510.3,245.6z"/>
			<path class="st2" d="M348.8,64.1c1.5,0,2.8-1,3.3-2.4l4.9-0.1l-3.6,3.8c-0.2,0.2-0.3,0.5-0.3,0.8c0,0.3,0.1,0.6,0.4,0.8
				c0.4,0.4,1.2,0.4,1.6,0l5.2-5.4l10.2-0.2l-3.9,5.5c-1.1-0.5-2.5,0-3,1.2s0,2.5,1.2,3c0.7,0.3,1.5,0.2,2.1-0.2
				c0.5-0.3,0.8-0.7,1-1.3l6.6-0.9l-4.8,8.4l-7.3,2c-0.6,0.2-0.9,0.9-0.7,1.5c0.2,0.5,0.7,0.8,1.3,0.7l5.1-1.4l-2.5,4.4
				c-1.9-0.3-3.7,0.9-4,2.8c-0.3,1.9,0.9,3.7,2.8,4s3.7-0.9,4-2.8c0.2-1.1-0.1-2.1-0.8-2.9l2.4-4.3l1.4,5c0.1,0.3,0.3,0.5,0.5,0.7
				c0.6,0.3,1.2,0.1,1.5-0.4c0.1-0.3,0.2-0.6,0.1-0.9l-2-7.2l4.9-8.7l2.8,6c-0.5,0.4-0.7,1-0.7,1.7c0,1.3,1.1,2.2,2.3,2.2
				c1.3,0,2.2-1.1,2.2-2.3c0-0.6-0.3-1.2-0.8-1.7l2.4-5.8l4.7,8.7l-2.1,7.2c-0.2,0.6,0.2,1.2,0.8,1.4c0.6,0.2,1.2-0.2,1.4-0.8l0,0
				l1.5-5l2.4,4.3c-1.3,1.4-1.2,3.6,0.2,4.9c1.4,1.3,3.6,1.2,4.9-0.2c1.3-1.4,1.2-3.6-0.2-4.9c-0.8-0.7-1.9-1-2.9-0.9l-2.4-4.4
				l5,1.5c0.6,0.2,1.2-0.2,1.4-0.8c0.1-0.6-0.2-1.2-0.8-1.4l-7.2-2.1l-4.9-8.8l7.4,0.6c0.2,0.3,0.5,0.6,0.9,0.8c1.1,0.6,2.5,0.1,3-1
				c0.6-1.1,0.1-2.5-1-3c-0.8-0.4-1.7-0.3-2.4,0.2l-3.9-5l10.5-0.2l5.4,5.2c0.4,0.5,1.1,0.5,1.6,0.1s0.5-1.1,0.1-1.6
				c0-0.1-0.1-0.1-0.2-0.1l-3.8-3.7l4.9-0.1c0.5,1.4,1.8,2.3,3.3,2.3c1.9,0,3.5-1.6,3.5-3.5s-1.6-3.5-3.5-3.5c-1.5,0-2.8,1-3.3,2.4
				l-5,0.1l3.6-3.8c0.5-0.4,0.5-1.2,0-1.6c-0.4-0.5-1.2-0.5-1.6,0c0,0-0.1,0.1-0.1,0.1l-5.2,5.4l-10.1,0.2l3.7-5.3
				c1.2,0.4,2.5-0.2,2.9-1.4c0.2-0.6,0.2-1.3-0.2-1.9c-0.6-1.1-2-1.4-3.1-0.8c-0.5,0.3-0.9,0.9-1.1,1.5l-6.4,0.8l5.1-9l7.2-2
				c0.6-0.2,0.9-0.9,0.7-1.5c-0.2-0.5-0.7-0.8-1.3-0.7l-5.1,1.4l2.4-4.3c1.9,0.3,3.7-0.9,4-2.8c0.3-1.9-0.9-3.7-2.8-4
				s-3.7,0.9-4,2.8c-0.2,1.1,0.1,2.1,0.8,2.9l-2.5,4.4l-1.4-5.1c-0.2-0.6-0.8-1-1.4-0.8c0,0,0,0,0,0c-0.6,0.2-1,0.8-0.8,1.4l2,7.3
				l-5.1,9.1l-2.9-6.3c0.5-0.4,0.8-1.1,0.8-1.7c0-1.3-1.1-2.3-2.3-2.2s-2.3,1.1-2.2,2.3c0,0.7,0.3,1.3,0.8,1.7l-2.2,5.3l-4.6-8.3
				l2.1-7.1c0.2-0.6-0.2-1.2-0.8-1.4c-0.6-0.2-1.2,0.2-1.4,0.8l0,0l-1.5,5l-2.4-4.4c1.3-1.4,1.2-3.6-0.2-4.9
				c-1.4-1.3-3.6-1.2-4.9,0.2c-1.3,1.4-1.2,3.6,0.2,4.9c0.8,0.7,1.9,1,2.9,0.9l2.4,4.3l-5-1.4c-0.6-0.1-1.2,0.3-1.4,0.9
				c-0.1,0.6,0.2,1.1,0.7,1.3l7.2,2l5.3,9.4l-8-0.6c-0.2-0.4-0.6-0.8-1-1c-1.1-0.6-2.5-0.1-3,1c-0.6,1.1-0.1,2.5,1,3
				c0.7,0.4,1.6,0.3,2.3-0.1l3.6,4.7l-9.6,0.2l-5.4-5.2c-0.5-0.4-1.2-0.4-1.6,0.1c-0.4,0.4-0.4,1.1,0,1.5l3.8,3.7l-5,0.1
				c-0.7-1.8-2.7-2.8-4.5-2.1c-1.8,0.7-2.8,2.7-2.1,4.5C346,63.3,347.3,64.2,348.8,64.1L348.8,64.1z M369,67.2l4-5.6
				c0.3,1.9,1.3,3.6,2.8,4.7l0,0L369,67.2z M380.3,55c2.9-0.1,5.4,2.3,5.4,5.2c0.1,2.9-2.3,5.4-5.2,5.4c-2.9,0.1-5.4-2.3-5.4-5.2
				C375.1,57.5,377.4,55.1,380.3,55L380.3,55z M380.7,73.6l-2.9-6.2c1.8,0.7,3.7,0.6,5.5-0.1l0,0L380.7,73.6z M385.3,66.1
				c1.5-1.2,2.4-3,2.7-4.9l4.2,5.4L385.3,66.1z M391.8,53.4l-3.8,5.4h-0.2c-0.3-1.8-1.3-3.3-2.7-4.4l0.1-0.1L391.8,53.4z M380.1,47
				l2.9,6.2c-0.9-0.3-1.8-0.5-2.8-0.5c-0.7,0-1.5,0.1-2.2,0.4l-0.3-0.5L380.1,47z M368.7,53.9l6.9,0.6c-1.4,1.2-2.3,2.8-2.6,4.6
				h-0.2L368.7,53.9z"/>
			<path class="st2" d="M481.6,98.1c1,0,1.8-0.7,2.1-1.6h3.2l-2.4,2.5c-0.1,0.1-0.2,0.3-0.2,0.5c0,0.4,0.4,0.7,0.8,0.7
				c0.2,0,0.4-0.1,0.5-0.2l3.4-3.6l6.6-0.1l-2.5,3.6c-0.8-0.3-1.6,0.1-1.9,0.8c-0.3,0.8,0.1,1.6,0.8,1.9c0.4,0.2,0.9,0.1,1.3-0.1
				c0.3-0.2,0.5-0.5,0.7-0.8l4.3-0.6l-3.1,5.5l-4.7,1.3c-0.4,0.1-0.6,0.5-0.5,0.9c0.1,0.4,0.5,0.6,0.9,0.5l3.3-0.9l-1.6,2.9
				c-1.2-0.2-2.4,0.6-2.6,1.8s0.6,2.4,1.8,2.6c1.2,0.2,2.4-0.6,2.6-1.8c0.1-0.7-0.1-1.4-0.5-1.9l1.6-2.8l0.9,3.3
				c0.1,0.2,0.2,0.3,0.4,0.4c0.4,0.2,0.8,0.1,1-0.3c0.1-0.2,0.1-0.4,0.1-0.6l-1.4-4.7l3.2-5.7l1.8,3.9c-0.3,0.3-0.5,0.7-0.5,1.1
				c0,0.8,0.7,1.5,1.5,1.5c0.8,0,1.5-0.7,1.5-1.5c0-0.4-0.2-0.8-0.5-1.1l1.6-3.8l3.1,5.7l-1.4,4.7c-0.1,0.4,0.2,0.8,0.6,0.9
				c0.3,0.1,0.7-0.1,0.8-0.4l1-3.3l1.5,2.8c-0.8,0.9-0.8,2.4,0.2,3.2c0.9,0.8,2.4,0.8,3.2-0.2c0.8-0.9,0.8-2.4-0.2-3.2
				c-0.5-0.5-1.2-0.7-1.9-0.6l-1.6-2.9l3.3,1c0.4,0.1,0.8-0.1,0.9-0.5c0.1-0.4-0.1-0.8-0.5-0.9c0,0,0,0-0.1,0l-4.7-1.4l-3.2-5.8
				l4.8,0.4c0.1,0.2,0.3,0.4,0.6,0.5c0.7,0.4,1.6,0.1,2-0.7c0.4-0.7,0.1-1.6-0.7-2c-0.5-0.2-1.1-0.2-1.5,0.1l-2.5-3.3l6.8-0.1
				l3.5,3.4c0.3,0.3,0.7,0.4,1,0.1c0.3-0.3,0.4-0.7,0.1-1c0-0.1-0.1-0.1-0.2-0.1l-2.5-2.4L521,96c0.4,1.2,1.7,1.8,2.9,1.4
				s1.8-1.7,1.4-2.9s-1.7-1.8-2.9-1.4c-0.7,0.2-1.2,0.8-1.4,1.4h-3.3l2.4-2.5c0.3-0.3,0.3-0.7,0-1c-0.3-0.3-0.7-0.3-1,0l-3.5,3.5
				l-6.6,0.1l2.4-3.4c0.8,0.3,1.6-0.1,1.9-0.9s-0.1-1.6-0.9-1.9c-0.4-0.1-0.9-0.1-1.2,0.1c-0.4,0.2-0.6,0.6-0.7,1l-4.2,0.6l3.3-5.9
				l4.7-1.3c0.4-0.1,0.6-0.5,0.5-0.9c-0.1-0.4-0.5-0.6-0.9-0.5l0,0l-3.3,0.9l1.6-2.8c1.2,0.2,2.4-0.6,2.7-1.8s-0.6-2.4-1.8-2.7
				c-1.2-0.2-2.4,0.6-2.7,1.8c-0.1,0.7,0.1,1.4,0.5,1.9l-1.6,2.8l-0.9-3.3c-0.1-0.4-0.5-0.6-0.9-0.5c-0.4,0.1-0.6,0.5-0.5,0.9
				l1.3,4.7l-3.4,6l-1.9-4.1c0.3-0.3,0.5-0.7,0.5-1.1c0-0.8-0.7-1.5-1.6-1.4s-1.5,0.7-1.4,1.6c0,0.4,0.2,0.8,0.5,1l-1.5,3.5l-3-5.4
				l1.4-4.7c0.1-0.4-0.1-0.8-0.5-0.9s-0.8,0.1-0.9,0.5c0,0,0,0,0,0.1l-1,3.3l-1.5-2.9c0.9-0.9,0.8-2.4-0.1-3.2
				c-0.9-0.9-2.4-0.8-3.2,0.1c-0.9,0.9-0.8,2.4,0.1,3.2c0.5,0.5,1.2,0.7,1.9,0.6l1.5,2.8l-3.3-0.9c-0.2,0-0.4,0-0.6,0.1
				c-0.4,0.2-0.5,0.6-0.3,1c0.1,0.2,0.3,0.3,0.4,0.4l4.7,1.3l3.4,6.2l-5.2-0.4c-0.1-0.3-0.4-0.5-0.6-0.7c-0.7-0.4-1.6-0.1-2,0.7
				c-0.4,0.7-0.1,1.6,0.7,2c0.5,0.2,1,0.2,1.5-0.1l2.4,3.1l-6.3,0.1l-3.6-3.5c-0.3-0.3-0.8-0.3-1,0c-0.3,0.3-0.3,0.7,0,1l2.5,2.4
				l-3.3,0.1c-0.4-1.2-1.7-1.8-2.9-1.3c-1.2,0.4-1.8,1.7-1.3,2.9c0.3,0.9,1.2,1.5,2.2,1.5L481.6,98.1z M494.8,100.1l2.6-3.7
				c0.2,1.2,0.9,2.3,1.9,3.1l0,0L494.8,100.1z M502.1,92.1c1.9,0,3.5,1.5,3.6,3.4c0,1.9-1.5,3.5-3.4,3.6s-3.5-1.5-3.6-3.4
				c0,0,0,0,0,0C498.7,93.8,500.2,92.2,502.1,92.1L502.1,92.1z M502.4,104.3l-1.9-4.1c0.6,0.2,1.2,0.3,1.8,0.3
				c0.6,0,1.2-0.1,1.8-0.4l0,0L502.4,104.3z M505.4,99.4c1-0.8,1.6-1.9,1.7-3.2l2.7,3.6L505.4,99.4z M509.7,91.1l-2.5,3.6h-0.1
				c-0.2-1.1-0.9-2.2-1.8-2.9l0-0.1L509.7,91.1z M502,86.9l1.9,4.1c-0.6-0.2-1.2-0.3-1.8-0.3c-0.5,0-1,0.1-1.4,0.3l-0.2-0.3
				L502,86.9z M494.5,91.4l4.5,0.4c-0.9,0.8-1.5,1.8-1.7,3h-0.2L494.5,91.4z"/>
			<path class="st2" d="M396.3,132.7c1,0,1.8-0.7,2.1-1.6l3.2-0.1l-2.4,2.5c-0.1,0.1-0.2,0.3-0.2,0.5c0,0.2,0.1,0.4,0.2,0.5
				c0.3,0.3,0.8,0.3,1,0c0,0,0,0,0,0l3.4-3.5l6.6-0.1l-2.5,3.6c-0.4-0.2-0.9-0.2-1.3,0.1c-0.7,0.4-0.9,1.3-0.5,2
				c0.4,0.7,1.3,0.9,2,0.5l0,0c0.3-0.2,0.5-0.5,0.6-0.8l4.3-0.6l-3.1,5.5l-4.7,1.3c-0.4,0.1-0.6,0.5-0.5,0.9s0.5,0.6,0.9,0.5
				l3.3-0.9l-1.6,2.9c-1-0.2-1.9,0.3-2.4,1.1c-0.6,1.1-0.2,2.5,0.8,3.1c1.1,0.6,2.5,0.2,3.1-0.8c0.5-0.9,0.4-1.9-0.3-2.7l1.6-2.8
				l0.9,3.3c0.1,0.2,0.2,0.3,0.4,0.4c0.2,0.1,0.4,0.1,0.6,0.1c0.4-0.1,0.6-0.5,0.5-0.9c0,0,0,0,0,0l-1.3-4.7l3.2-5.6l1.8,3.9
				c-0.6,0.6-0.6,1.5,0,2.1c0.6,0.6,1.5,0.6,2.1,0c0.3-0.3,0.5-0.7,0.4-1.1c0-0.4-0.2-0.8-0.5-1.1l1.6-3.8l3.1,5.7l-1.4,4.7
				c-0.1,0.4,0.2,0.8,0.6,0.9c0.3,0.1,0.7-0.1,0.8-0.4l1-3.3l1.5,2.8c-0.8,0.9-0.8,2.4,0.2,3.2c0.9,0.8,2.4,0.8,3.2-0.2
				c0.8-0.9,0.8-2.4-0.2-3.2c-0.5-0.5-1.2-0.7-1.9-0.6l-1.6-2.9l3.3,1c0.4,0.1,0.8-0.1,0.9-0.5c0.1-0.4-0.1-0.8-0.5-0.9c0,0,0,0,0,0
				l-4.7-1.4l-3.2-5.8l4.8,0.4c0.1,0.2,0.3,0.4,0.6,0.5c0.7,0.4,1.6,0.1,2-0.7s0.1-1.6-0.7-2c-0.5-0.2-1.1-0.2-1.5,0.1l-2.5-3.3
				l6.8-0.1l3.5,3.4c0.2,0.3,0.7,0.4,1,0.2c0.3-0.2,0.4-0.7,0.2-1c-0.1-0.1-0.1-0.1-0.2-0.2l-2.4-2.4l3.2-0.1
				c0.4,1.2,1.7,1.8,2.9,1.4c1.2-0.4,1.8-1.7,1.4-2.9s-1.7-1.8-2.9-1.4c-0.7,0.2-1.2,0.8-1.4,1.4l-3.3,0.1l2.4-2.5
				c0.2-0.4,0.1-0.8-0.3-1c-0.3-0.1-0.6-0.1-0.8,0l-3.4,3.5l-6.6,0.1l2.4-3.4c0.8,0.2,1.6-0.2,1.9-1c0.2-0.8-0.2-1.6-1-1.9
				s-1.6,0.2-1.9,1c0,0,0,0.1,0,0.1l-4.2,0.6l3.3-5.9l4.7-1.3c0.4-0.1,0.6-0.5,0.5-0.9c-0.1-0.4-0.5-0.6-0.9-0.5l-3.3,0.9l1.6-2.8
				c1.2,0.2,2.4-0.6,2.7-1.8c0.2-1.2-0.6-2.4-1.8-2.7c-1.2-0.2-2.4,0.6-2.7,1.8c-0.1,0.7,0.1,1.4,0.5,1.9l-1.6,2.8L423,113
				c-0.1-0.4-0.5-0.6-0.9-0.5c-0.4,0.1-0.6,0.5-0.5,0.9l0,0l1.3,4.7l-3.4,5.9l-1.9-4.1c0.6-0.5,0.7-1.5,0.1-2.1s-1.5-0.7-2.1-0.1
				c-0.3,0.3-0.5,0.7-0.5,1.1c0,0.4,0.2,0.8,0.5,1.1l-1.5,3.5l-3-5.4l1.4-4.7c0.1-0.4-0.2-0.8-0.6-0.9c-0.3-0.1-0.7,0.1-0.8,0.4
				l-1,3.3l-1.6-2.9c0.7-0.7,0.8-1.8,0.3-2.6c-0.6-1.1-2-1.5-3.1-0.9c-1.1,0.6-1.5,2-0.9,3.1c0.5,0.9,1.4,1.3,2.4,1.2l1.5,2.8
				l-3.3-0.9c-0.2,0-0.4,0-0.6,0.1c-0.4,0.2-0.5,0.6-0.3,1c0.1,0.2,0.3,0.3,0.4,0.4l4.7,1.3l3.4,6.2l-5.2-0.4
				c-0.1-0.3-0.4-0.5-0.7-0.7c-0.7-0.4-1.6-0.1-2,0.7c-0.4,0.7-0.1,1.6,0.7,2c0.5,0.2,1,0.2,1.5-0.1l2.4,3.1l-6.3,0.1l-3.5-3.4
				c-0.3-0.2-0.8-0.1-1,0.2c-0.2,0.3-0.2,0.6,0,0.9l2.5,2.4l-3.3,0.1c-0.4-1.2-1.7-1.8-2.9-1.3c-1.2,0.4-1.8,1.7-1.3,2.9
				C394.5,132.1,395.3,132.7,396.3,132.7L396.3,132.7z M409.5,134.7l2.6-3.7c0.2,1.2,0.9,2.3,1.9,3.1l0,0L409.5,134.7z M416.8,126.7
				c1.9,0,3.5,1.5,3.5,3.4c0,1.9-1.5,3.5-3.4,3.5c-1.9,0-3.5-1.5-3.5-3.4c0,0,0,0,0,0C413.4,128.3,414.9,126.7,416.8,126.7
				L416.8,126.7z M417.1,138.8l-1.9-4.1c1.2,0.4,2.4,0.4,3.6-0.1l0,0L417.1,138.8z M420.1,133.9c1-0.8,1.6-1.9,1.7-3.2l2.7,3.6
				L420.1,133.9z M424.4,125.6l-2.5,3.6h-0.1c-0.2-1.1-0.9-2.2-1.8-2.9v-0.1L424.4,125.6z M416.7,121.5l1.9,4.1
				c-1-0.4-2.2-0.4-3.3-0.1l-0.2-0.3L416.7,121.5z M409.3,126l4.5,0.4c-0.9,0.8-1.5,1.8-1.7,3h-0.2L409.3,126z"/>
			<path class="st2" d="M594.2,486c1,0,1.8-0.7,2.1-1.6l3.2-0.1l-2.4,2.5c-0.3,0.3-0.3,0.8,0,1c0,0,0,0,0,0c0.3,0.3,0.8,0.3,1,0
				c0,0,0,0,0,0l3.4-3.5l6.6-0.1l-2.5,3.6c-0.4-0.2-0.9-0.1-1.3,0.1c-0.7,0.4-0.9,1.3-0.5,2c0.4,0.7,1.3,0.9,2,0.5
				c0.3-0.2,0.5-0.5,0.6-0.8l4.3-0.6l-3.1,5.5l-4.7,1.3c-0.4,0.1-0.6,0.5-0.5,0.9c0.1,0.4,0.5,0.6,0.9,0.5l0,0l3.3-0.9l-1.6,2.9
				c-1.2-0.2-2.4,0.6-2.7,1.8c-0.2,1.2,0.6,2.4,1.8,2.7s2.4-0.6,2.7-1.8c0.1-0.7-0.1-1.4-0.5-1.9l1.6-2.8l0.9,3.3
				c0.1,0.2,0.2,0.4,0.3,0.5c0.2,0.1,0.4,0.1,0.6,0.1c0.4-0.1,0.6-0.5,0.5-0.9l-1.3-4.7l3.2-5.7l1.8,3.9c-0.6,0.6-0.6,1.5-0.1,2.1
				c0.6,0.6,1.5,0.6,2.1,0.1c0.6-0.6,0.6-1.5,0.1-2.1c0,0-0.1-0.1-0.1-0.1l1.6-3.8l3.1,5.7l-1.4,4.7c-0.1,0.4,0.1,0.8,0.5,0.9
				c0.4,0.1,0.8-0.1,0.9-0.5l0,0l1-3.3l1.5,2.8c-0.8,0.9-0.8,2.4,0.2,3.2c0.9,0.8,2.4,0.8,3.2-0.2c0.8-0.9,0.8-2.4-0.2-3.2
				c-0.5-0.5-1.2-0.7-1.9-0.6l-1.6-2.9l3.3,1c0.4,0.1,0.8-0.1,0.9-0.5c0.1-0.4-0.1-0.8-0.5-0.9l-4.7-1.4l-3.2-5.8l4.8,0.4
				c0.1,0.2,0.3,0.4,0.6,0.5c0.7,0.4,1.6,0.1,2-0.7c0.4-0.7,0.1-1.6-0.7-2c-0.5-0.2-1.1-0.2-1.5,0.1l-2.5-3.3l6.8-0.1l3.5,3.4
				c0.2,0.3,0.7,0.4,1,0.2c0.3-0.2,0.4-0.7,0.2-1c-0.1-0.1-0.1-0.1-0.2-0.2l-2.5-2.4l3.2,0c0.4,1.2,1.7,1.8,2.9,1.3s1.8-1.7,1.3-2.9
				c-0.3-0.9-1.2-1.5-2.2-1.5c-1,0-1.8,0.7-2.1,1.6l-3.3,0.1l2.4-2.5c0.3-0.3,0.3-0.8,0-1c0,0,0,0,0,0c-0.3-0.3-0.7-0.3-1,0
				l-3.4,3.5l-6.6,0.1l2.4-3.4c0.8,0.3,1.6-0.1,1.9-0.9s-0.1-1.6-0.9-1.9c-0.4-0.1-0.9-0.1-1.2,0.1c-0.4,0.2-0.6,0.6-0.7,1l-4.2,0.5
				l3.3-5.9l4.7-1.3c0.4-0.1,0.6-0.5,0.5-0.9c-0.1-0.4-0.5-0.6-0.9-0.5l-3.3,0.9l1.6-2.8c1.2,0.2,2.4-0.6,2.7-1.8
				c0.2-1-0.3-1.9-1.1-2.4c-1.1-0.6-2.5-0.2-3.1,0.8c-0.5,0.9-0.4,1.9,0.3,2.7l-1.6,2.9l-0.9-3.3c-0.1-0.4-0.5-0.6-0.9-0.5
				c-0.4,0.1-0.6,0.5-0.5,0.9l0,0l1.3,4.7l-3.4,6l-1.9-4.1c0.3-0.3,0.5-0.7,0.5-1.1c0-0.8-0.7-1.5-1.5-1.5c-0.8,0-1.5,0.7-1.5,1.5
				c0,0.4,0.2,0.8,0.5,1.1l-1.5,3.5l-3-5.5l1.4-4.7c0.1-0.4-0.1-0.8-0.5-0.9c-0.4-0.1-0.8,0.1-0.9,0.5c0,0,0,0,0,0.1l-1,3.3
				l-1.6-2.9c0.7-0.7,0.8-1.8,0.3-2.6c-0.6-1.1-2-1.5-3.1-0.9c-1.1,0.6-1.5,2-0.9,3.1c0.5,0.8,1.4,1.3,2.4,1.1l1.5,2.8l-3.3-0.9
				c-0.2-0.1-0.4,0-0.6,0.1c-0.2,0.1-0.3,0.3-0.3,0.5c-0.1,0.4,0.1,0.8,0.5,0.9c0,0,0,0,0,0l4.7,1.3l3.4,6.2l-5.2-0.5
				c-0.1-0.3-0.4-0.5-0.7-0.6c-0.7-0.4-1.6-0.1-2,0.7c-0.4,0.7-0.1,1.6,0.7,2l0,0c0.5,0.2,1,0.2,1.5-0.1l2.4,3.1l-6.3,0.1l-3.5-3.4
				c-0.3-0.3-0.7-0.3-1,0c0,0,0,0,0,0c-0.3,0.3-0.3,0.8,0,1l2.5,2.4l-3.3,0.1c-0.3-0.9-1.2-1.5-2.2-1.5c-1.3-0.1-2.3,0.9-2.4,2.2
				c-0.1,1.3,0.9,2.3,2.2,2.4C594,486,594.1,486,594.2,486L594.2,486z M607.4,488l2.6-3.7c0.2,1.2,0.9,2.3,1.8,3.1l0,0L607.4,488z
				 M614.7,480c1.9,0,3.5,1.5,3.5,3.4c0,1.9-1.5,3.5-3.4,3.5c-1.9,0-3.5-1.5-3.5-3.4C611.3,481.6,612.8,480.1,614.7,480L614.7,480z
				 M615,492.1l-1.9-4.1c1.2,0.4,2.4,0.4,3.6-0.1l0,0L615,492.1z M618,487.3c1-0.8,1.6-1.9,1.7-3.2l2.7,3.6L618,487.3z M622.3,478.9
				l-2.5,3.6h-0.1c-0.2-1.2-0.9-2.2-1.8-2.9v-0.1L622.3,478.9z M614.7,474.8l1.9,4.1c-0.6-0.2-1.2-0.3-1.8-0.3c-0.5,0-1,0.1-1.4,0.2
				l-0.2-0.3L614.7,474.8z M607.2,479.3l4.5,0.4c-0.9,0.8-1.5,1.8-1.7,3h-0.2L607.2,479.3z"/>
			<path class="st2" d="M425.8,295.9c1,0,1.8-0.7,2.1-1.6l3.2-0.1l-2.4,2.5c-0.1,0.1-0.2,0.3-0.2,0.5c0,0.2,0.1,0.4,0.2,0.5
				c0.3,0.3,0.8,0.3,1,0c0,0,0,0,0,0l3.4-3.5l6.6-0.1l-2.5,3.6c-0.8-0.3-1.6,0-1.9,0.8c-0.3,0.8,0,1.6,0.8,1.9s1.6,0,1.9-0.8
				c0,0,0-0.1,0-0.1l4.3-0.6l-3.1,5.5l-4.7,1.3c-0.4,0.1-0.6,0.5-0.5,0.9c0.1,0.4,0.5,0.6,0.9,0.5l3.3-0.9l-1.6,2.9
				c-1.2-0.2-2.4,0.6-2.7,1.8c-0.2,1.2,0.6,2.4,1.8,2.7c1.2,0.2,2.4-0.6,2.7-1.8c0.1-0.7-0.1-1.4-0.5-1.9l1.6-2.8l0.9,3.3
				c0.1,0.2,0.2,0.3,0.4,0.4c0.2,0.1,0.4,0.1,0.6,0.1c0.4-0.1,0.6-0.5,0.5-0.9l-1.3-4.7l3.2-5.7l1.8,3.9c-0.6,0.6-0.6,1.5,0,2.1
				c0.3,0.3,0.7,0.5,1.1,0.5c0.8,0,1.5-0.7,1.5-1.5c0-0.4-0.2-0.8-0.5-1.1l1.6-3.8l3.1,5.7l-1.4,4.7c-0.1,0.4,0.1,0.8,0.5,0.9
				c0.4,0.1,0.8-0.1,0.9-0.5l0,0l1-3.3l1.5,2.8c-0.8,0.9-0.8,2.4,0.2,3.2c0.9,0.8,2.4,0.8,3.2-0.2s0.8-2.4-0.2-3.2
				c-0.5-0.5-1.2-0.7-1.9-0.6l-1.6-2.9l3.3,1c0.4,0.1,0.8-0.1,0.9-0.5c0.1-0.4-0.1-0.8-0.5-0.9l-4.8-1.4l-3.2-5.8l4.8,0.4
				c0.1,0.2,0.3,0.4,0.6,0.5c0.7,0.4,1.6,0.1,2-0.6c0.4-0.7,0.1-1.6-0.6-2c-0.5-0.3-1.1-0.2-1.6,0.1l-2.5-3.3l6.8-0.1l3.5,3.4
				c0.2,0.3,0.7,0.4,1,0.2c0.3-0.2,0.4-0.7,0.2-1c-0.1-0.1-0.1-0.1-0.2-0.2l-2.4-2.4l3.2,0c0.4,1.2,1.7,1.8,2.9,1.4
				c1.2-0.4,1.8-1.7,1.4-2.9c-0.4-1.2-1.7-1.8-2.9-1.4c-0.7,0.2-1.2,0.7-1.4,1.4l-3.3,0.1l2.4-2.5c0.3-0.3,0.3-0.7,0-1c0,0,0,0,0,0
				c-0.3-0.3-0.7-0.3-1,0l-3.4,3.5l-6.6,0.1l2.4-3.4c0.4,0.2,0.9,0.1,1.3-0.1c0.7-0.4,0.9-1.3,0.5-2c-0.4-0.7-1.3-0.9-2-0.5
				c-0.4,0.2-0.6,0.6-0.7,1l-4.2,0.5l3.3-5.9l4.7-1.3c0.4-0.1,0.6-0.5,0.5-0.9c0,0,0,0,0,0c-0.1-0.4-0.5-0.6-0.9-0.5l-3.3,0.9
				l1.6-2.8c1.2,0.2,2.4-0.6,2.6-1.8c0.2-1.2-0.6-2.4-1.8-2.6c-1.2-0.2-2.4,0.6-2.6,1.8c-0.1,0.7,0.1,1.4,0.5,1.9l-1.6,2.9l-0.9-3.3
				c-0.1-0.4-0.5-0.6-0.9-0.5c-0.4,0.1-0.6,0.5-0.5,0.9l0,0l1.3,4.7l-3.4,6l-1.9-4.1c0.3-0.3,0.5-0.7,0.5-1.1c0-0.8-0.7-1.5-1.5-1.5
				s-1.5,0.7-1.5,1.5l0,0c0,0.4,0.2,0.8,0.5,1.1l-1.5,3.5l-3-5.5l1.4-4.7c0.1-0.4-0.1-0.8-0.5-0.9s-0.8,0.1-0.9,0.5c0,0,0,0,0,0.1
				l-1,3.3l-1.6-2.9c0.8-0.9,0.8-2.4-0.2-3.2c-0.9-0.8-2.4-0.8-3.2,0.2c-0.8,0.9-0.8,2.4,0.2,3.2c0.5,0.5,1.2,0.7,1.9,0.5l1.5,2.8
				l-3.3-0.9c-0.2-0.1-0.4,0-0.6,0.1c-0.2,0.1-0.3,0.3-0.4,0.5c-0.1,0.4,0.1,0.8,0.5,0.9l4.7,1.3l3.4,6.2l-5.2-0.5
				c-0.1-0.3-0.4-0.5-0.6-0.7c-0.7-0.4-1.6-0.1-2,0.6c-0.4,0.7-0.1,1.6,0.6,2c0.5,0.2,1.1,0.2,1.5-0.1l2.4,3.1l-6.3,0.1l-3.5-3.4
				c-0.3-0.3-0.7-0.3-1,0c0,0,0,0,0,0c-0.3,0.3-0.3,0.7,0,1l2.5,2.4l-3.3,0.1c-0.3-0.9-1.2-1.5-2.2-1.5c-1.3-0.1-2.3,0.9-2.4,2.2
				c-0.1,1.3,0.9,2.3,2.2,2.4C425.6,295.9,425.7,295.9,425.8,295.9L425.8,295.9z M439,297.9l2.6-3.7c0.2,1.2,0.9,2.3,1.9,3.1l0,0
				L439,297.9z M446.3,289.9c1.9-0.1,3.5,1.4,3.6,3.3c0.1,1.9-1.4,3.5-3.3,3.6c-1.9,0.1-3.5-1.4-3.6-3.3
				C442.9,291.6,444.4,290,446.3,289.9L446.3,289.9z M446.6,302.1l-1.9-4.1c0.6,0.2,1.2,0.3,1.8,0.3c0.6,0,1.2-0.1,1.8-0.4l0,0
				L446.6,302.1z M449.6,297.2c1-0.8,1.6-1.9,1.7-3.2l2.7,3.6L449.6,297.2z M453.9,288.9l-2.5,3.5h-0.1c-0.2-1.1-0.9-2.2-1.8-2.9
				v-0.1L453.9,288.9z M446.3,284.7l1.9,4.1c-0.6-0.2-1.2-0.3-1.8-0.3c-0.5,0-1,0.1-1.4,0.3l-0.2-0.3L446.3,284.7z M438.8,289.2
				l4.5,0.4c-0.9,0.8-1.5,1.8-1.7,3h-0.2L438.8,289.2z"/>
			<path class="st2" d="M760.9,125.6c1,0,1.8-0.7,2.1-1.6h3.2l-2.4,2.5c-0.1,0.1-0.2,0.3-0.2,0.5c0,0.4,0.4,0.7,0.8,0.7
				c0.2,0,0.4-0.1,0.5-0.2l3.4-3.5l6.6-0.1l-2.5,3.6c-0.4-0.2-0.9-0.1-1.3,0.1c-0.7,0.4-0.9,1.3-0.5,2c0.4,0.7,1.3,0.9,2,0.5
				c0.3-0.2,0.5-0.5,0.7-0.8l4.3-0.6l-3.1,5.5l-4.7,1.3c-0.4,0.1-0.6,0.5-0.5,0.9c0.1,0.4,0.5,0.6,0.9,0.5l3.3-0.9l-1.6,2.9
				c-1.2-0.2-2.4,0.6-2.7,1.8s0.6,2.4,1.8,2.7c1.2,0.2,2.4-0.6,2.7-1.8c0.1-0.7-0.1-1.4-0.5-1.9l1.6-2.8l0.9,3.3
				c0.1,0.2,0.2,0.3,0.3,0.4c0.2,0.1,0.4,0.1,0.6,0.1c0.4-0.1,0.6-0.5,0.5-0.9l-1.3-4.7l3.2-5.7l1.8,3.9c-0.3,0.3-0.5,0.7-0.5,1.1
				c0,0.8,0.7,1.5,1.5,1.5c0.8,0,1.5-0.7,1.4-1.5c0-0.4-0.2-0.8-0.5-1.1l1.6-3.8l3.1,5.7l-1.4,4.7c-0.1,0.4,0.2,0.8,0.6,0.9
				c0.3,0.1,0.7-0.1,0.8-0.4l1-3.3l1.5,2.8c-0.9,0.9-0.8,2.4,0.1,3.3c0.9,0.9,2.4,0.8,3.3-0.1s0.8-2.4-0.1-3.3
				c-0.5-0.5-1.3-0.7-2-0.6l-1.6-2.9l3.3,1c0.4,0.1,0.8-0.1,0.9-0.5c0.1-0.4-0.1-0.8-0.5-0.9c0,0,0,0-0.1,0l-4.7-1.4l-3.2-5.8
				l4.8,0.4c0.1,0.2,0.3,0.4,0.6,0.5c0.7,0.4,1.6,0.1,2-0.7c0.4-0.7,0.1-1.6-0.7-2c-0.5-0.2-1.1-0.2-1.5,0.1l-2.5-3.3l6.8-0.1
				l3.5,3.4c0.3,0.3,0.7,0.3,1,0c0.3-0.3,0.3-0.7,0-1l-2.5-2.4l3.2-0.1c0.4,1.2,1.7,1.8,2.9,1.4c1.2-0.4,1.8-1.7,1.4-2.9
				s-1.7-1.8-2.9-1.4c-0.7,0.2-1.2,0.8-1.4,1.4l-3.3,0.1l2.4-2.5c0.3-0.3,0.3-0.7,0-1c-0.3-0.3-0.7-0.3-1,0L795,122l-6.6,0.1
				l2.4-3.4c0.8,0.2,1.6-0.2,1.9-1c0.2-0.8-0.2-1.6-1-1.9s-1.6,0.2-1.9,1c0,0,0,0.1,0,0.1l-4.2,0.6l3.3-5.8l4.7-1.3
				c0.4-0.1,0.6-0.5,0.5-0.9c-0.1-0.4-0.5-0.6-0.9-0.5l0,0l-3.3,0.9l1.6-2.8c1,0.2,1.9-0.3,2.4-1.1c0.6-1.1,0.2-2.5-0.9-3.1
				s-2.5-0.2-3.1,0.9c-0.5,0.9-0.4,1.9,0.3,2.7l-1.6,2.8l-0.9-3.3c-0.1-0.4-0.5-0.6-0.9-0.5c-0.4,0.1-0.6,0.5-0.5,0.9l0,0l1.3,4.7
				l-3.3,5.9l-1.9-4.1c0.3-0.3,0.5-0.7,0.5-1.1c0-0.8-0.7-1.5-1.5-1.5c-0.8,0-1.5,0.7-1.5,1.5c0,0.4,0.2,0.8,0.5,1.1l-1.5,3.5
				l-3-5.4l1.4-4.7c0.1-0.4-0.1-0.8-0.5-0.9c-0.4-0.1-0.8,0.1-0.9,0.5c0,0,0,0,0,0.1l-1,3.3l-1.6-2.9c0.9-0.9,0.8-2.4-0.1-3.2
				c-0.9-0.9-2.4-0.8-3.2,0.1c-0.9,0.9-0.8,2.4,0.1,3.2c0.5,0.5,1.2,0.7,1.9,0.6l1.5,2.8l-3.3-0.9c-0.2,0-0.4,0-0.6,0.1
				c-0.4,0.2-0.5,0.6-0.3,1c0.1,0.2,0.3,0.3,0.4,0.4l4.7,1.3l3.4,6.2l-5.2-0.4c-0.1-0.3-0.4-0.5-0.7-0.7c-0.7-0.4-1.6-0.1-2,0.7
				c-0.4,0.7-0.1,1.6,0.7,2l0,0c0.5,0.2,1,0.2,1.5-0.1l2.4,3.1l-6.3,0.1l-3.5-3.4c-0.3-0.3-0.7-0.3-1,0c0,0,0,0,0,0
				c-0.3,0.3-0.3,0.7,0,1l2.5,2.4l-3.2,0.1c-0.4-1.2-1.7-1.8-2.9-1.3s-1.8,1.7-1.3,2.9C759.1,125,759.9,125.6,760.9,125.6
				L760.9,125.6z M774.1,127.6l2.6-3.7c0.2,1.2,0.9,2.3,1.8,3.1l0,0L774.1,127.6z M781.5,119.6c1.9,0,3.5,1.5,3.6,3.4
				s-1.5,3.5-3.4,3.6s-3.5-1.5-3.6-3.4c0,0,0,0,0,0C778.1,121.2,779.6,119.7,781.5,119.6L781.5,119.6z M781.8,131.8l-1.9-4.1
				c0.6,0.2,1.2,0.3,1.8,0.3c0.6,0,1.2-0.1,1.8-0.4l0,0L781.8,131.8z M784.8,126.8c1-0.8,1.6-1.9,1.7-3.2l2.7,3.6L784.8,126.8z
				 M789,118.5l-2.5,3.5h-0.1c-0.2-1.1-0.9-2.2-1.8-2.9v-0.1L789,118.5z M781.4,114.3l1.9,4.1c-0.6-0.2-1.2-0.3-1.8-0.3
				c-0.5,0-1,0.1-1.4,0.3l-0.2-0.3L781.4,114.3z M774,118.9l4.5,0.4c-0.9,0.8-1.5,1.8-1.7,3h-0.2L774,118.9z"/>
			<path class="st2" d="M653.8,520.7c-5.8,0-5.8,9,0,9S659.6,520.7,653.8,520.7z"/>
			<path class="st2" d="M794.8,393.5c-5.8,0-5.8,9,0,9S800.6,393.5,794.8,393.5z"/>
			<path class="st2" d="M724.3,293.4c-2.9,0-2.9,4.5,0,4.5S727.2,293.4,724.3,293.4z"/>
			<path class="st2" d="M290.5,602.4c-2.9,0-2.9,4.5,0,4.5S293.5,602.4,290.5,602.4z"/>
			<path class="st2" d="M115.2,616.5c-5.8,0-5.8,9,0,9S121.1,616.5,115.2,616.5z"/>
			<path class="st2" d="M86.3,595.2c-2.9,0-2.9,4.5,0,4.5S89.2,595.2,86.3,595.2z"/>
			<path class="st2" d="M281.5,770.1c-5.8,0-5.8,9,0,9S287.3,770.1,281.5,770.1z"/>
			<path class="st2" d="M352,719.5c-5.8,0-5.8,9,0,9S357.8,719.5,352,719.5z"/>
			<path class="st2" d="M43,345.8c-2.9,0-2.9,4.5,0,4.5S45.9,345.8,43,345.8z"/>
			<path class="st2" d="M117.1,280.3c-5.8,0-5.8,9,0,9S122.9,280.3,117.1,280.3z"/>
			<path class="st2" d="M170.1,136.9c-5.8,0-5.8,9,0,9S175.9,136.9,170.1,136.9z"/>
			<path class="st2" d="M77.3,172.3c-2.9,0-2.9,4.5,0,4.5S80.2,172.3,77.3,172.3z"/>
			<path class="st2" d="M702,153c-2.9,0-2.9,4.5,0,4.5S704.9,153,702,153z"/>
			<path class="st2" d="M685.3,566.1c-5.8,0-5.8,9,0,9S691.1,566.1,685.3,566.1z"/>
			<path class="st2" d="M706.8,478.5c-5.8,0-5.8,9,0,9S712.7,478.5,706.8,478.5z"/>
			<path class="st2" d="M664.8,672.1c-5.8,0-5.8,9,0,9S670.6,672.1,664.8,672.1z"/>
			<path class="st2" d="M568.3,505c-5.8,0-5.8,9,0,9S574.1,505,568.3,505z"/>
			<path class="st2" d="M277,790.4c-2.9,0-2.9,4.5,0,4.5S279.9,790.4,277,790.4z"/>
			<path class="st2" d="M246.6,717.7c-5.8,0-5.8,9,0,9S252.4,717.7,246.6,717.7z"/>
			<path class="st2" d="M242.1,738c-2.9,0-2.9,4.5,0,4.5S245,738,242.1,738z"/>
			<path class="st2" d="M56.2,247.1c-5.8,0-5.8,9,0,9S62,247.1,56.2,247.1z"/>
			<path class="st2" d="M126.7,196.6c-5.8,0-5.8,9,0,9S132.5,196.6,126.7,196.6z"/>
			<path class="st2" d="M49.6,106.2c-5.8,0-5.8,9,0,9S55.4,106.2,49.6,106.2z"/>
			<path class="st2" d="M51.7,267.5c-2.9,0-2.9,4.5,0,4.5S54.6,267.5,51.7,267.5z"/>
			<path class="st2" d="M161,37.5c-5.8,0-5.8,9,0,9S166.8,37.5,161,37.5z"/>
			<path class="st2" d="M156.5,57.8c-2.9,0-2.9,4.5,0,4.5S159.4,57.8,156.5,57.8z"/>
			<path class="st2" d="M638.5,513.9c-2.9,0-2.9,4.5,0,4.5S641.4,513.9,638.5,513.9z"/>
			<path class="st2" d="M211.6,670.1c-5.8,0-5.8,9,0,9S217.5,670.1,211.6,670.1z"/>
			<path class="st2" d="M277.9,695.4c-5.8,0-5.8,9,0,9S283.7,695.4,277.9,695.4z"/>
			<path class="st2" d="M236.9,600.8c-5.8,0-5.8,9,0,9S242.8,600.8,236.9,600.8z"/>
			<path class="st2" d="M196.3,663.3c-2.9,0-2.9,4.5,0,4.5S199.2,663.3,196.3,663.3z"/>
			<path class="st2" d="M741.8,525.5c-5.8,0-5.8,9,0,9S747.6,525.5,741.8,525.5z"/>
			<path class="st2" d="M726.4,518.7c-2.9,0-2.9,4.5,0,4.5S729.3,518.7,726.4,518.7z"/>
			<path class="st2" d="M576.1,523.8c-2.9,0-2.9,4.5,0,4.5S579,523.8,576.1,523.8z"/>
			<path class="st2" d="M540,665.7c-2.9,0-2.9,4.5,0,4.5S542.9,665.7,540,665.7z"/>
			<path class="st2" d="M485.1,712.5c-2.9,0-2.9,4.5,0,4.5S488.1,712.5,485.1,712.5z"/>
			<path class="st2" d="M537.3,651.2c-2.9,0-2.9,4.5,0,4.5S540.2,651.2,537.3,651.2z"/>
			<path class="st2" d="M159.8,461.5c-2.9,0-2.9,4.5,0,4.5S162.7,461.5,159.8,461.5z"/>
			<path class="st2" d="M180.3,331.5c-2.9,0-2.9,4.5,0,4.5S183.2,331.5,180.3,331.5z"/>
			<path class="st2" d="M137.2,465.1c-2.9,0-2.9,4.5,0,4.5S140.1,465.1,137.2,465.1z"/>
			<path class="st2" d="M747.2,169.3c-2.9,0-2.9,4.5,0,4.5S750.1,169.3,747.2,169.3z"/>
			<path class="st2" d="M763.5,186.9c-5.8,0-5.8,9,0,9S769.3,186.9,763.5,186.9z"/>
			<path class="st2" d="M693.6,95.3c-5.8,0-5.8,9,0,9S699.4,95.3,693.6,95.3z"/>
			<path class="st2" d="M790,289.3c-5.8,0-5.8,9,0,9S795.8,289.3,790,289.3z"/>
			<path class="st2" d="M789.4,23.5c-2.9,0-2.9,4.5,0,4.5S792.3,23.5,789.4,23.5z"/>
			<path class="st2" d="M805.6,41.1c-5.8,0-5.8,9,0,9S811.5,41.1,805.6,41.1z"/>
			<path class="st2" d="M145.4,435.7c-5.8,0-5.8,9,0,9S151.2,435.7,145.4,435.7z"/>
			<path class="st2" d="M208,359.8c-5.8,0-5.8,9,0,9S213.8,359.8,208,359.8z"/>
			<path class="st2" d="M56.8,499.4c2.9-0.3,2.4-4.8-0.5-4.5S53.9,499.8,56.8,499.4z"/>
			<path class="st2" d="M78.8,493.2c2.9-0.3,2.4-4.8-0.5-4.5S75.9,493.6,78.8,493.2z"/>
			<path class="st2" d="M74.1,523.3c5.8-0.7,4.8-9.7-1-9S68.3,524,74.1,523.3z"/>
			<path class="st2" d="M514,753.2c5.8-0.7,4.8-9.7-1-9S508.3,753.9,514,753.2z"/>
			<path class="st2" d="M157.7,561.3c-5.8,0-5.8,9,0,9S163.5,561.3,157.7,561.3z"/>
			<path class="st2" d="M561.3,593.8c-5.8,0-5.8,9,0,9S567.2,593.8,561.3,593.8z"/>
		</g>
	</g>
</g>
</svg>
