<?xml version="1.0" encoding="utf-8"?>
<!-- Generator: Adobe Illustrator 25.0.1, SVG Export Plug-In . SVG Version: 6.00 Build 0)  -->
<svg version="1.1" id="Слой_1" xmlns="http://www.w3.org/2000/svg" xmlns:xlink="http://www.w3.org/1999/xlink" x="0px" y="0px"
	 viewBox="0 0 217.9 218" style="enable-background:new 0 0 217.9 218;" xml:space="preserve">
<style type="text/css">
	.st0{fill:#E8AE69;}
	.st1{fill:#E4A155;}
	.st2{fill:#BB743D;}
	.st3{fill:#FCC675;}
	.st4{fill:#FFDB94;}
</style>
<g>
	<g id="Слой_2_1_">
		<g id="Слой_1-2">
			<image style="overflow:visible;opacity:0.3;enable-background:new    ;" width="221" height="218" xlink:href="41FEBC97.png" >
			</image>
			<polygon class="st0" points="96.3,123.6 25.5,133.3 69.3,189.8 140.1,180.1 			"/>
			<polygon class="st1" points="96.2,123.8 123.4,57.1 180.4,130.7 109.1,140.5 			"/>
			<polygon class="st2" points="96.2,123.8 123.4,57.1 31.2,69.8 75.3,126.7 			"/>
			<polygon class="st3" points="212.2,135.4 120.5,148.2 88.2,143.3 180.4,130.7 			"/>
			<polygon class="st4" points="123.4,57.1 31.2,69.8 19.1,17.5 110.8,4.7 			"/>
			<polygon class="st3" points="88.2,143.3 61,210 4,136.4 31.2,69.8 			"/>
			<polygon class="st1" points="88.2,143.3 61,210 153.2,197.4 176.5,140.4 120.5,148.2 			"/>
		</g>
	</g>
</g>
</svg>
