<svg xmlns="http://www.w3.org/2000/svg" viewBox="0 0 289.85 342.59"><defs><style>.cls-1{fill:#fff;}</style></defs><g id="Слой_2" data-name="Слой 2"><g id="Слой_1-2" data-name="Слой 1"><path class="cls-1" d="M47,164.8S-4.77,219.4.36,282.19s85.21,60.39,85.21,60.39H204.46s84.51-1.31,85.38-56.75-62-126.71-62-126.71-20.87-19.39-1-45.48c23.4-30.68-26.68-37.85-48.3-36.57s-56.28,4.08-41.08-22.95-12.75-31.22-44-30.66S38.49,22.18,32.46,0c0,0-6.08,33.57,34.29,39s37.68,16.82,14.7,33S57,95.87,80.54,106.77s5.65,23.17-8.52,34.92A308.68,308.68,0,0,0,47,164.8Z"/></g></g></svg>