<svg xmlns="http://www.w3.org/2000/svg" viewBox="0 0 101 136.11"><defs><style>.cls-1{fill:#fff;fill-rule:evenodd;}</style></defs><g id="Слой_2" data-name="Слой 2"><g id="Слой_1-2" data-name="Слой 1"><path class="cls-1" d="M80.88,115.17c-4.86,0-7,3.59-7,8.18,0,4.25,2.42,7.37,6.53,7.37,4.54,0,6.07-2.76,6.62-5H84.53c0,1.09-1.48,2.89-3.79,2.89-2.83,0-4.25-1.78-4.25-4.81h10.7C87.19,118.57,85.11,115.17,80.88,115.17Zm-4.39,6.62a4.3,4.3,0,0,1,4-4.39c3,0,4,2.11,4.15,4.39Z"/><path class="cls-1" d="M94.91,115.17a4.86,4.86,0,0,0-4.45,2.5v-2.08h-2.3v20.52h2.47v-7.54a4.38,4.38,0,0,0,4,2.15c5,0,6.39-4.7,6.39-8.21C101,118.34,98.8,115.17,94.91,115.17Zm-.33,13.4c-2.7,0-4-2.47-4-5.67,0-1.92.2-5.5,4-5.5h0c3.56,0,3.81,3.78,3.81,6.2C98.47,127.52,96.14,128.57,94.58,128.57Z"/><path class="cls-1" d="M64.94,127.13l-4.53-11.54H56.93V130.3h2.42v-8.54c0-1.55-.14-3.17-.14-3.17h.19L64,130.3H65.8l4.62-11.71h.19s-.14,1.62-.14,3.17v8.54h2.42V115.59H69.47Z"/><polygon class="cls-1" points="45.96 126.6 45.9 126.6 45.9 115.59 43.43 115.59 43.43 130.3 46.01 130.3 53.22 119.29 53.27 119.29 53.27 130.3 55.74 130.3 55.74 115.59 53.16 115.59 45.96 126.6"/><path class="cls-1" d="M36.56,117.4c2.08,0,3.17,1.17,3.47,3.14h2.39c-.19-2.56-1.64-5.37-5.5-5.37-4.84,0-7,3.65-7,8.18,0,4.25,2.44,7.37,6.56,7.37,4.31,0,5.72-3.29,6-5.62H40c-.41,2.25-1.83,3.47-3.5,3.47-3.39,0-4-3.11-4-5.64S33.5,117.4,36.56,117.4Z"/><polygon class="cls-1" points="30.84 115.59 27.7 115.59 21.39 121.98 21.39 115.59 18.91 115.59 18.91 130.3 21.39 130.3 21.39 124.74 23.47 122.79 28.23 130.3 31.17 130.3 25.22 121.07 30.84 115.59"/><path class="cls-1" d="M8.76,109.59c-5.2,0-7.9,3.22-8.57,6.61H2.83c.89-3.56,3.84-4.2,5.93-4.2,3.47,0,5.86,2.42,6.31,6.87H6v2.2h9.09c-.28,4.17-2.09,7.34-6.4,7.34a5.91,5.91,0,0,1-6-4.7H0c1.11,6.5,7.28,7.12,8.81,7.12,4.59,0,9.07-3,9.07-10.74C17.88,114,14.54,109.59,8.76,109.59Z"/><polygon class="cls-1" points="21.53 48.8 21.52 48.8 21.51 48.8 21.53 48.8"/><path class="cls-1" d="M31.76,37.88a78.71,78.71,0,0,0-10.23,3.89,45.65,45.65,0,0,0-10.63,7H21.52l10.16-.27a27.24,27.24,0,0,1-.56-4.13A25,25,0,0,1,31.76,37.88Z"/><path class="cls-1" d="M86.09,34a3.61,3.61,0,0,0,1.79.48A3.58,3.58,0,0,0,89.66,34,3.34,3.34,0,0,0,91,32.65a3.55,3.55,0,0,0,0-3.58,3.36,3.36,0,0,0-1.34-1.33,3.64,3.64,0,0,0-1.76-.46h0a3.65,3.65,0,0,0-1.77.46,3.36,3.36,0,0,0-1.34,1.33,3.55,3.55,0,0,0,0,3.58A3.4,3.4,0,0,0,86.09,34ZM86,28.62h1.59a3.7,3.7,0,0,1,1.18.13,1.1,1.1,0,0,1,.59.45,1.18,1.18,0,0,1,.21.67,1.22,1.22,0,0,1-.36.88,1.39,1.39,0,0,1-1,.43,1.44,1.44,0,0,1,.39.24,6.06,6.06,0,0,1,.68.92l.57.9H89l-.41-.73a3.72,3.72,0,0,0-.79-1.07.9.9,0,0,0-.59-.16h-.44v2H86Z"/><path class="cls-1" d="M100.57,0h-99V99h99ZM84.15,28.71a4,4,0,0,1,1.61-1.59,4.45,4.45,0,0,1,2.12-.56,4.39,4.39,0,0,1,2.11.56,3.91,3.91,0,0,1,1.61,1.59,4.31,4.31,0,0,1,0,4.3A4.05,4.05,0,0,1,90,34.6a4.32,4.32,0,0,1-4.29,0A4.05,4.05,0,0,1,84.14,33a4.31,4.31,0,0,1,0-4.3Zm8.18,21.08c-1.46-1-2.8-1.86-4-2.85a53.71,53.71,0,0,0-12.64-6.59A22.34,22.34,0,0,1,62.75,63.69c7.5-.22,11.9-2.35,25.55-10.27,1.23-.66,2.57-1.54,4-2.3v8.13c-1.34.88-2.8,1.76-4,2.53C75.89,69.47,64.7,73.1,54.07,73.1c0-2.53,0-5.27,0-7.37-11.18-.07-19-6.94-21.8-15v-.06H21.53c-4,0-8.06,0-11.75.11V40.56a80.45,80.45,0,0,1,11.75-7h0A86.75,86.75,0,0,1,32.6,29h0a62.9,62.9,0,0,1,18.34-3.08A64,64,0,0,1,88.3,38.58l4,3.3Z"/><path class="cls-1" d="M88.53,30.45a.63.63,0,0,0,.24-.51.61.61,0,0,0-.12-.37.69.69,0,0,0-.31-.24,2.49,2.49,0,0,0-.75-.08h-.85v1.39h.9A1.46,1.46,0,0,0,88.53,30.45Z"/><path class="cls-1" d="M50.11,51l-2.79,5.82,5.14-4L54.7,59v-6.7l6.82,2L56.15,50l5.37-4.83L54.7,47.49l.22-6.93-2.46,5.83L47,42l3.13,6-18.43.49c.38,1.45.53,2,.57,2.14h0Z"/></g></g></svg>