<svg xmlns="http://www.w3.org/2000/svg" viewBox="0 0 691.39 693.35"><defs><style>.cls-1{fill:#f6e8da;}</style></defs><g id="Слой_2" data-name="Слой 2"><g id="Слой_1-2" data-name="Слой 1"><path class="cls-1" d="M247.62,80.6a3.14,3.14,0,0,0-2.93,2.18l-4.39.08,3.26-3.4a1.08,1.08,0,0,0,.28-.73,1,1,0,0,0-.32-.72,1,1,0,0,0-1.44,0l-4.66,4.87-9.13.15,3.46-5a2,2,0,1,0-1.17-2.48l-5.94.78,4.27-7.57L235.42,67a1,1,0,0,0,.71-1.26,1,1,0,0,0-1.25-.71l-4.56,1.27,2.21-3.92a3.16,3.16,0,1,0-1.77-1l-2.16,3.83-1.29-4.53a1,1,0,0,0-.47-.61,1,1,0,0,0-1.49,1.17l1.84,6.48L222.8,75.5l-2.51-5.38a2,2,0,1,0-3.46-1.42,2.07,2.07,0,0,0,.69,1.48l-2.18,5.25L211,67.65l1.89-6.47a1,1,0,0,0-.69-1.26,1,1,0,0,0-1.27.69l-1.32,4.52-2.12-3.84a3.17,3.17,0,1,0-1.79,1l2.18,3.95-4.54-1.31a1,1,0,1,0-.57,2l6.5,1.87,4.39,7.93-6.63-.57a2,2,0,0,0-.79-.72A2,2,0,0,0,204.45,79a2.07,2.07,0,0,0,2.12-.18L210,83.38l-9.41.16-4.82-4.7a1,1,0,0,0-1.45,0,1,1,0,0,0,0,1.44l3.38,3.29-4.39.08a3.15,3.15,0,1,0,0,2l4.5-.08L194.62,89a1,1,0,0,0,1.47,1.42l4.7-4.87,9.08-.16-3.29,4.71a2,2,0,0,0-1.72.16A2,2,0,1,0,207,93.8a2,2,0,0,0,1-1.33l5.77-.76-4.55,8.06-6.49,1.79a1,1,0,1,0,.54,2l4.54-1.24-2.16,3.82a3.14,3.14,0,1,0,1.79,1l2.21-3.92,1.27,4.55a1,1,0,1,0,2-.55L211,100.66l4.61-8.17,2.63,5.61a2.08,2.08,0,0,0-.68,1.56,2,2,0,0,0,4.08-.09,2,2,0,0,0-.75-1.53l2-4.8,4.14,7.49-1.88,6.5a1,1,0,0,0,.7,1.27,1,1,0,0,0,1.26-.7l1.31-4.54,2.18,3.94a3.14,3.14,0,1,0,1.79-1l-2.12-3.84,4.53,1.29a1.07,1.07,0,0,0,.77-.09A1.06,1.06,0,0,0,236,103a1,1,0,0,0-.7-1.26l-6.49-1.84-4.68-8.48,7.1.62a2.11,2.11,0,0,0,.9.9,2,2,0,1,0-.2-3.53l-3.26-4.26,8.64-.15,4.87,4.7a1,1,0,0,0,1.44,0,1,1,0,0,0,0-1.45l-3.4-3.28,4.5-.08a3.14,3.14,0,1,0,2.9-4.22Zm-18.17-2.77-3.54,5.06a6.76,6.76,0,0,0-2.54-4.23l0,0Zm-10.13,11A4.77,4.77,0,1,1,224,83.94,4.77,4.77,0,0,1,219.32,88.81ZM219,72.07l2.61,5.59a6.88,6.88,0,0,0-2.5-.42,6.77,6.77,0,0,0-2.43.52l0,0Zm-4.09,6.75a6.82,6.82,0,0,0-2.39,4.37l-3.76-4.9ZM209,90.26l3.41-4.88h.16a6.79,6.79,0,0,0,2.43,4l-.06.11ZM219.48,96l-2.62-5.59a6.71,6.71,0,0,0,2.5.42,6.48,6.48,0,0,0,2-.34l.25.44Zm10.24-6.22-6.16-.53a6.79,6.79,0,0,0,2.37-4.12h.21Z"/><path class="cls-1" d="M552.23,484.53a3.12,3.12,0,0,0-2.93,2.17l-4.4.08,3.26-3.4a1,1,0,0,0,.29-.73,1,1,0,0,0-.32-.72,1,1,0,0,0-1.44,0L542,486.83l-9.13.15,3.46-5a2,2,0,1,0-1.17-2.48l-5.94.78,4.27-7.57,6.51-1.82a1,1,0,0,0-.55-2l-4.55,1.27,2.21-3.92a3.14,3.14,0,1,0-1.78-1l-2.15,3.82-1.29-4.53a1,1,0,0,0-1.26-.7,1,1,0,0,0-.7,1.26l1.84,6.48-4.39,7.78L524.9,474a2,2,0,0,0,.62-1.51,2,2,0,1,0-4.08.09,2.07,2.07,0,0,0,.69,1.48L520,479.36l-4.3-7.79,1.89-6.47a1,1,0,0,0-.69-1.26,1,1,0,0,0-1.27.69l-1.32,4.52-2.12-3.84a3.15,3.15,0,1,0-1.79,1l2.18,3.94L508,468.83a1,1,0,1,0-.57,2l6.5,1.87,4.38,7.93-6.62-.57a2,2,0,0,0-.79-.72,2,2,0,1,0,.29,3.47l3.47,4.53-9.41.16-4.83-4.7a1,1,0,0,0-1.44,0,1,1,0,0,0,0,1.45l3.38,3.28-4.4.08a3.14,3.14,0,1,0,0,2l4.5-.08-3.28,3.4a1,1,0,0,0,1.47,1.42l4.7-4.87,9.08-.16-3.29,4.71a2,2,0,0,0-1.72.16,2,2,0,1,0,3,2.18l5.77-.76-4.55,8.06-6.49,1.79a1,1,0,0,0-.72,1.25,1,1,0,0,0,1.26.72l4.54-1.25L510.16,510a3.14,3.14,0,1,0,2.18,4.63,3.12,3.12,0,0,0-.4-3.62l2.22-3.93,1.26,4.55a1,1,0,0,0,2-.55l-1.82-6.51,4.61-8.18,2.63,5.61a2,2,0,1,0,3.4,1.47,2,2,0,0,0-.75-1.52l2-4.81,4.14,7.49-1.88,6.5a1,1,0,0,0,.7,1.27,1,1,0,0,0,1.26-.7l1.31-4.54,2.18,3.94a3.14,3.14,0,1,0,1.79-1l-2.13-3.84,4.54,1.29a1.07,1.07,0,0,0,.77-.09,1,1,0,0,0-.22-1.88l-6.48-1.84-4.68-8.48,7.1.62a2,2,0,0,0,3.64,0,2,2,0,0,0-2.94-2.62L533.29,489l8.65-.15,4.87,4.7a1,1,0,0,0,1.44,0,1,1,0,0,0,0-1.45l-3.4-3.28,4.5-.08a3.14,3.14,0,1,0,2.9-4.21Zm-18.17-2.78-3.54,5.06a6.75,6.75,0,0,0-2.55-4.23l0,0Zm-10.13,11a4.77,4.77,0,1,1,4.66-4.87A4.77,4.77,0,0,1,523.93,492.73ZM523.56,476l2.61,5.59a6.88,6.88,0,0,0-2.5-.42,6.77,6.77,0,0,0-2.43.52l0,0Zm-4.09,6.75a6.82,6.82,0,0,0-2.39,4.37l-3.76-4.9Zm-5.88,11.45L517,489.3h.16a6.79,6.79,0,0,0,2.43,4l-.06.12Zm10.5,5.75-2.62-5.59a6.71,6.71,0,0,0,2.5.42,6.48,6.48,0,0,0,2-.34l.24.44Zm10.24-6.22-6.16-.53a6.79,6.79,0,0,0,2.37-4.12h.21Z"/><path class="cls-1" d="M679.49,656.85a3.14,3.14,0,0,0-2.93,2.17l-4.39.08,3.26-3.4a1,1,0,0,0,.29-.72,1.09,1.09,0,0,0-.32-.73,1,1,0,0,0-1.44,0l-4.66,4.86-9.14.16,3.47-5a2,2,0,1,0-.27-3.64,2,2,0,0,0-.9,1.15l-6,.79,4.27-7.58,6.52-1.82a1,1,0,0,0-.55-2l-4.55,1.27,2.21-3.92a3.12,3.12,0,0,0,3.31-1.54,3.15,3.15,0,1,0-5.09.54l-2.15,3.82-1.29-4.53a1,1,0,0,0-.48-.61,1,1,0,0,0-.78-.09,1,1,0,0,0-.7,1.26l1.83,6.48-4.38,7.78-2.52-5.38a2,2,0,1,0-2.76.06l-2.18,5.26-4.3-7.79,1.89-6.46a1,1,0,1,0-2-.58l-1.32,4.52-2.13-3.84a3.14,3.14,0,1,0-1.79,1l2.18,3.94-4.54-1.31a1,1,0,0,0-1.26.7,1,1,0,0,0,.7,1.26l6.5,1.88,4.38,7.93-6.62-.58a2,2,0,0,0-.79-.72,2,2,0,0,0-2.74.92,2,2,0,0,0,.91,2.73,2,2,0,0,0,2.11-.18l3.48,4.53-9.41.16-4.83-4.69a1,1,0,0,0-1.44,0,1,1,0,0,0,0,1.45l3.37,3.28-4.39.08a3.14,3.14,0,1,0,0,2l4.5-.08-3.28,3.4a1,1,0,0,0,0,1.44,1,1,0,0,0,1.45,0l4.7-4.87,9.08-.15-3.29,4.7a2,2,0,0,0-1.72.16,2,2,0,1,0,3,2.18l5.77-.76L641,676l-6.49,1.79a1,1,0,1,0,.54,2l4.54-1.25-2.16,3.83a3.14,3.14,0,1,0,1.78,1l2.21-3.93,1.27,4.55a1,1,0,0,0,1.26.72,1,1,0,0,0,.71-1.26l-1.82-6.52,4.61-8.18,2.62,5.62a2,2,0,0,0-.67,1.55,2,2,0,1,0,3.33-1.61l2-4.81,4.14,7.5L657,683.47a1,1,0,1,0,2,.57l1.31-4.54,2.18,3.94a3.15,3.15,0,1,0,1.78-1l-2.12-3.85,4.53,1.29a1,1,0,0,0,.77-.09,1,1,0,0,0,.49-.62,1,1,0,0,0-.7-1.25l-6.48-1.84L656,667.62l7.11.61a2,2,0,0,0,.9.9,2,2,0,1,0,1.82-3.65,2,2,0,0,0-2,.12l-3.27-4.26,8.65-.15,4.86,4.71a1,1,0,0,0,1.45,0,1,1,0,0,0,0-1.44l-3.39-3.29,4.5-.07a3.14,3.14,0,1,0,2.89-4.22Zm-18.16-2.78-3.54,5.07a6.79,6.79,0,0,0-2.55-4.24l0,0Zm-10.14,11a4.76,4.76,0,1,1,4.66-4.87A4.76,4.76,0,0,1,651.19,665.05Zm-.37-16.74,2.62,5.6a6.71,6.71,0,0,0-2.5-.43,6.87,6.87,0,0,0-2.44.52l0,0Zm-4.08,6.76a6.8,6.8,0,0,0-2.39,4.37l-3.76-4.91Zm-5.89,11.44,3.42-4.89h.15a6.8,6.8,0,0,0,2.44,4l-.06.12Zm10.51,5.76-2.62-5.6a6.71,6.71,0,0,0,2.5.42,6.53,6.53,0,0,0,2-.34l.24.44Zm10.23-6.22-6.15-.53a6.82,6.82,0,0,0,2.36-4.13H658Z"/><path class="cls-1" d="M90.68,397.56a3.16,3.16,0,0,0-2.93,2.18l-4.39.08,3.26-3.41a1,1,0,0,0,.28-.72,1,1,0,0,0-.31-.72,1,1,0,0,0-1.45,0l-4.65,4.86-9.14.16,3.47-5a2,2,0,1,0-.27-3.64,2,2,0,0,0-.9,1.16l-6,.78L72,385.78,78.49,384a1,1,0,0,0,.71-1.26,1,1,0,0,0-1.26-.71l-4.55,1.27,2.21-3.93a3.14,3.14,0,1,0-1.78-1l-2.16,3.83-1.28-4.53a1,1,0,0,0-.48-.61,1.05,1.05,0,0,0-.78-.1,1,1,0,0,0-.7,1.26l1.83,6.48-4.38,7.79-2.52-5.39a2,2,0,0,0,.63-1.51,2,2,0,0,0-4.08.09,2,2,0,0,0,.69,1.48l-2.18,5.26-4.3-7.79L56,378.14a1,1,0,0,0-.7-1.27,1,1,0,0,0-1.26.7l-1.32,4.52-2.13-3.85a3.14,3.14,0,1,0-1.79,1L51,383.17l-4.54-1.31a1,1,0,0,0-.56,2l6.5,1.87,4.38,7.93-6.62-.58a2.09,2.09,0,0,0-.79-.71,2,2,0,1,0,.28,3.47l3.47,4.53-9.4.16-4.83-4.7a1,1,0,1,0-1.42,1.46l3.37,3.29-4.39.07a3.14,3.14,0,1,0,0,2l4.5-.07L37.69,406a1,1,0,1,0,1.47,1.42l4.7-4.86,9.07-.16-3.28,4.7a2,2,0,0,0-2.43,3,2,2,0,0,0,2.79.71,2,2,0,0,0,1-1.33l5.77-.75-4.54,8.06-6.5,1.78a1,1,0,0,0,.55,2l4.54-1.25-2.16,3.83a3.15,3.15,0,1,0,1.78,1l2.21-3.92,1.27,4.55a1,1,0,0,0,2-.55L54,417.62l4.61-8.18,2.62,5.62a2,2,0,0,0,1.41,3.55A2,2,0,0,0,63.92,415l2-4.81,4.14,7.5-1.87,6.5a1,1,0,0,0,2,.56l1.31-4.53,2.17,3.94a3.15,3.15,0,1,0,1.79-1l-2.12-3.84,4.53,1.28a1,1,0,0,0,.77-.09,1,1,0,0,0-.21-1.87l-6.48-1.84-4.69-8.48,7.11.61a2,2,0,0,0,.89.9A2,2,0,0,0,77,406.19a2,2,0,0,0-2,.13l-3.27-4.26,8.65-.15,4.86,4.7a1,1,0,0,0,1.45,0,1,1,0,0,0,0-1.44l-3.4-3.28,4.51-.08a3.14,3.14,0,1,0,2.89-4.22Zm-18.16-2.78L69,399.85a6.79,6.79,0,0,0-2.55-4.23l0,0Zm-10.14,11A4.77,4.77,0,1,1,67,400.9,4.77,4.77,0,0,1,62.38,405.77ZM62,389l2.62,5.59a6.71,6.71,0,0,0-2.5-.42,6.82,6.82,0,0,0-2.44.51l0,0Zm-4.08,6.75a6.85,6.85,0,0,0-2.4,4.37l-3.75-4.9ZM52,407.22l3.42-4.88h.15a6.78,6.78,0,0,0,2.44,4l-.07.11ZM62.54,413l-2.61-5.6a6.71,6.71,0,0,0,2.5.43,7.21,7.21,0,0,0,2-.34l.24.44Zm10.24-6.22-6.15-.53A6.82,6.82,0,0,0,69,402.1h.22Z"/><path class="cls-1" d="M675.44,369.46a3.14,3.14,0,0,0-2.93,2.17l-4.39.08,3.26-3.4a1,1,0,0,0,0-1.45,1,1,0,0,0-1.44,0l-4.66,4.86-9.14.16,3.47-5a2,2,0,1,0-.27-3.64,2,2,0,0,0-.9,1.15l-5.95.79,4.27-7.58,6.52-1.82a1,1,0,0,0-.55-2l-4.55,1.27,2.21-3.92a3.12,3.12,0,0,0,3.31-1.54,3.15,3.15,0,1,0-5.09.54l-2.15,3.82-1.29-4.53a1,1,0,0,0-.48-.61,1,1,0,0,0-.78-.09,1,1,0,0,0-.7,1.26l1.83,6.48-4.38,7.78L648.11,359a2,2,0,1,0-2.76.06l-2.18,5.26-4.3-7.79,1.89-6.46a1,1,0,0,0-2-.58L637.48,354l-2.13-3.84a3.14,3.14,0,1,0-1.79,1l2.18,3.94-4.54-1.31a1,1,0,0,0-1.26.7,1,1,0,0,0,.7,1.26l6.5,1.88,4.38,7.93L634.9,365a2,2,0,0,0-.79-.72,2,2,0,1,0-1.83,3.65,2,2,0,0,0,2.11-.18l3.48,4.53-9.41.16-4.83-4.69a1,1,0,0,0-1.44,0,1,1,0,0,0,0,1.45l3.37,3.28-4.39.08a3.14,3.14,0,1,0,0,2l4.5-.08-3.28,3.4a1,1,0,0,0,0,1.44,1,1,0,0,0,1.45,0l4.7-4.87,9.07-.15-3.28,4.7a2,2,0,0,0-1.72.16,2,2,0,1,0,2.09,3.51,2,2,0,0,0,.94-1.33l5.77-.76L637,388.62l-6.5,1.79a1,1,0,0,0-.71,1.25,1,1,0,0,0,1.26.72l4.54-1.25L633.38,395a3.14,3.14,0,1,0,1.78,1l2.21-3.93,1.27,4.55a1,1,0,0,0,2-.54l-1.82-6.52,4.61-8.18L646,387a2,2,0,0,0-.67,1.55,2,2,0,1,0,3.33-1.61l2-4.81,4.14,7.5-1.87,6.49a1,1,0,1,0,2,.57l1.31-4.54,2.18,3.94a3.16,3.16,0,1,0,1.79-1l-2.13-3.85,4.53,1.29a1,1,0,0,0,.77-.09,1,1,0,0,0,.49-.62,1,1,0,0,0-.7-1.25l-6.48-1.85L652,380.23l7.11.61a2,2,0,0,0,.9.9,2,2,0,1,0,1.82-3.65,2,2,0,0,0-2,.12L656.51,374l8.65-.15,4.86,4.7a1,1,0,0,0,1.45,0,1,1,0,0,0,0-1.44l-3.39-3.29,4.5-.07a3.14,3.14,0,1,0,2.89-4.22Zm-18.16-2.78-3.54,5.07a6.79,6.79,0,0,0-2.55-4.24l0,0Zm-10.13,11a4.76,4.76,0,1,1,4.65-4.87A4.77,4.77,0,0,1,647.15,377.66Zm-.38-16.74,2.62,5.6a6.71,6.71,0,0,0-2.5-.43,6.87,6.87,0,0,0-2.44.52l0,0Zm-4.08,6.76a6.8,6.8,0,0,0-2.39,4.37l-3.76-4.91Zm-5.89,11.44,3.42-4.89h.15a6.76,6.76,0,0,0,2.44,4l-.06.12Zm10.5,5.76-2.61-5.6a6.71,6.71,0,0,0,2.5.42,6.53,6.53,0,0,0,2-.34l.24.44Zm10.24-6.22-6.15-.53a6.85,6.85,0,0,0,2.36-4.13H654Z"/><path class="cls-1" d="M86.33,660.76a3.14,3.14,0,0,0-2.93,2.18L79,663l3.26-3.4a1.08,1.08,0,0,0,.28-.73,1,1,0,0,0-.32-.72,1,1,0,0,0-1.44,0l-4.66,4.87-9.13.16,3.46-5A2,2,0,0,0,73,655.34a2,2,0,0,0-3.7.44l-5.94.78L67.62,649l6.51-1.82a1,1,0,1,0-.55-2L69,646.47l2.21-3.92a3.15,3.15,0,1,0-1.77-1l-2.16,3.82L66,640.84a1,1,0,0,0-.47-.61,1,1,0,0,0-1.49,1.17l1.84,6.48-4.39,7.78L59,650.28a2,2,0,0,0,.62-1.51,2,2,0,1,0-4.08.09,2.07,2.07,0,0,0,.69,1.48l-2.18,5.26-4.3-7.79,1.89-6.46a1,1,0,0,0-2-.58l-1.32,4.52-2.12-3.84a3.15,3.15,0,1,0-1.79,1l2.18,3.94-4.54-1.31a1,1,0,1,0-.57,2l6.5,1.88,4.39,7.92-6.63-.57a2,2,0,0,0-.79-.72,2,2,0,1,0,.29,3.47l3.47,4.53-9.41.16L34.52,659a1,1,0,1,0-1.43,1.47l3.38,3.28-4.39.08a3.16,3.16,0,1,0,0,2l4.5-.08-3.28,3.4a1,1,0,0,0,1.47,1.42l4.7-4.87,9.08-.16-3.29,4.71a2,2,0,0,0-1.72.16,2,2,0,1,0,3,2.18l5.77-.76-4.55,8.06-6.49,1.79a1,1,0,0,0-.71,1.25,1,1,0,0,0,1.25.72l4.54-1.25-2.16,3.82a3.16,3.16,0,1,0,1.78,1l2.22-3.93,1.27,4.55a1,1,0,1,0,2-.55l-1.82-6.51,4.61-8.18,2.63,5.62a2,2,0,0,0-.68,1.55,2,2,0,1,0,4.08-.09,2,2,0,0,0-.75-1.53l2-4.8,4.14,7.49-1.88,6.5a1,1,0,0,0,.7,1.27,1,1,0,0,0,1.26-.7l1.31-4.54,2.18,3.94a3.14,3.14,0,1,0,1.79-1l-2.13-3.84,4.54,1.29a1.07,1.07,0,0,0,.77-.09,1,1,0,0,0-.21-1.88L67.54,680l-4.68-8.48,7.1.62a2.11,2.11,0,0,0,.9.9,2,2,0,1,0-.2-3.53l-3.26-4.26,8.64-.15,4.87,4.7a1,1,0,0,0,1.44,0,1,1,0,0,0,0-1.45l-3.4-3.28,4.5-.08a3.14,3.14,0,1,0,2.9-4.22ZM68.16,658l-3.54,5.07a6.75,6.75,0,0,0-2.55-4.24l0,0ZM58,669a4.76,4.76,0,1,1,4.66-4.87A4.77,4.77,0,0,1,58,669Zm-.37-16.74,2.61,5.6a6.68,6.68,0,0,0-2.5-.43,6.77,6.77,0,0,0-2.43.52l0,0ZM53.57,659a6.77,6.77,0,0,0-2.39,4.36l-3.76-4.9Zm-5.88,11.44,3.41-4.89h.16a6.79,6.79,0,0,0,2.43,4l-.06.12Zm10.5,5.75-2.62-5.59a6.71,6.71,0,0,0,2.5.42,6.48,6.48,0,0,0,2-.34l.24.44ZM68.43,670l-6.16-.54a6.79,6.79,0,0,0,2.37-4.12h.21Z"/><path class="cls-1" d="M193.13,22.09a2,2,0,0,0-1.91,1.42l-2.87,0,2.13-2.22a.66.66,0,0,0,.19-.47.73.73,0,0,0-.21-.47.66.66,0,0,0-.94,0l-3.05,3.17-6,.11,2.26-3.24a1.33,1.33,0,1,0-.17-2.38,1.3,1.3,0,0,0-.59.76l-3.89.51,2.79-5,4.26-1.19a.67.67,0,0,0,.46-.82.66.66,0,0,0-.82-.46l-3,.82,1.44-2.56a2.05,2.05,0,1,0-1.16-.65L180.71,12l-.84-3a.63.63,0,0,0-.31-.4.64.64,0,0,0-.51-.06.66.66,0,0,0-.46.82l1.2,4.23-2.87,5.09-1.64-3.52a1.32,1.32,0,0,0,.41-1,1.34,1.34,0,1,0-2.21,1l-1.43,3.43-2.81-5.08,1.24-4.23a.66.66,0,0,0-.46-.82.67.67,0,0,0-.83.45l-.86,3L167,9.47a2.05,2.05,0,0,0-2.52-3.17,2.05,2.05,0,0,0,1.35,3.82l1.42,2.57-3-.85a.66.66,0,1,0-.36,1.28l4.24,1.22L171,19.52l-4.32-.37a1.31,1.31,0,0,0-.52-.47,1.33,1.33,0,1,0-1.19,2.38,1.32,1.32,0,0,0,1.38-.12l2.27,3-6.15.11-3.15-3.07a.66.66,0,0,0-.94,0,.68.68,0,0,0,0,.95l2.2,2.14-2.86.05a2.07,2.07,0,1,0,0,1.33l2.94-.05-2.14,2.22a.68.68,0,0,0,0,.95.69.69,0,0,0,.95,0l3.07-3.18,5.93-.1-2.15,3.07a1.31,1.31,0,0,0-1.12.11,1.33,1.33,0,0,0-.47,1.83,1.34,1.34,0,0,0,1.83.46,1.36,1.36,0,0,0,.62-.87l3.77-.5-3,5.27-4.24,1.17a.66.66,0,1,0,.35,1.28l3-.81-1.41,2.5a2,2,0,0,0-2.16,1,2.06,2.06,0,1,0,3.32-.35l1.44-2.56.83,3a.67.67,0,1,0,1.29-.36l-1.19-4.25,3-5.35,1.72,3.67a1.32,1.32,0,0,0-.45,1,1.34,1.34,0,1,0,2.18-1.06l1.3-3.14,2.71,4.9-1.23,4.24a.67.67,0,1,0,1.28.37l.86-3L182,39.46a2.06,2.06,0,1,0,3.32.38,2,2,0,0,0-2.15-1l-1.39-2.51,3,.84a.68.68,0,0,0,.83-.46.66.66,0,0,0-.46-.82l-4.24-1.21-3.06-5.54,4.64.41a1.38,1.38,0,0,0,.59.58,1.33,1.33,0,1,0-.13-2.3L180.77,25l5.64-.1L189.59,28a.67.67,0,1,0,.93-1L188.3,24.9l2.94,0a2.05,2.05,0,1,0,1.89-2.76Zm-11.86-1.81L179,23.59a4.45,4.45,0,0,0-1.67-2.77v0Zm-6.62,7.17a3.11,3.11,0,1,1,3-3.18A3.11,3.11,0,0,1,174.65,27.45Zm-.25-10.93,1.71,3.65a4.37,4.37,0,0,0-1.63-.28,4.66,4.66,0,0,0-1.59.34v0Zm-2.66,4.41a4.43,4.43,0,0,0-1.57,2.85l-2.45-3.2Zm-3.85,7.47,2.23-3.19h.1a4.44,4.44,0,0,0,1.6,2.61l0,.07Zm6.86,3.76L173,28.51a4.49,4.49,0,0,0,2.93,0l.16.29Zm6.69-4.06-4-.35A4.45,4.45,0,0,0,179,25.06h.14Z"/><path class="cls-1" d="M560.2,626.29a2.06,2.06,0,0,0-1.92,1.42l-2.87,0,2.13-2.22a.66.66,0,0,0,.19-.47.68.68,0,0,0-.21-.47.66.66,0,0,0-.94,0l-3,3.18-6,.1,2.26-3.24a1.33,1.33,0,0,0,1.66-1.91,1.34,1.34,0,0,0-1.83-.47,1.3,1.3,0,0,0-.59.76l-3.88.51L548,618.6l4.26-1.19a.67.67,0,0,0,.46-.82.66.66,0,0,0-.82-.46l-3,.83,1.44-2.57a2.05,2.05,0,1,0-1.16-.65l-1.41,2.5-.84-3a.63.63,0,0,0-.31-.4.64.64,0,0,0-.51-.06.67.67,0,0,0-.46.82l1.2,4.23L544,623l-1.65-3.52a1.31,1.31,0,0,0,.41-1,1.33,1.33,0,1,0-2.66,0,1.29,1.29,0,0,0,.45,1l-1.43,3.44-2.81-5.09,1.24-4.22a.67.67,0,0,0-.45-.83.66.66,0,0,0-.83.45l-.87,2.95L534,613.67a2.05,2.05,0,1,0-1.17.65l1.42,2.57-3-.85a.67.67,0,1,0-.37,1.28l4.24,1.22,2.87,5.18-4.33-.37a1.25,1.25,0,0,0-.52-.47,1.33,1.33,0,1,0-1.19,2.38,1.3,1.3,0,0,0,1.38-.12l2.27,3-6.15.11-3.15-3.07a.66.66,0,0,0-.94,0,.68.68,0,0,0,0,1l2.21,2.14-2.87,0a2.06,2.06,0,1,0,0,1.34l2.94,0-2.14,2.21a.67.67,0,1,0,1,.93l3.07-3.18,5.93-.1-2.15,3.07a1.31,1.31,0,0,0-1.12.11,1.33,1.33,0,1,0,2,1.42l3.77-.49-3,5.26L530.81,640a.66.66,0,1,0,.35,1.28l3-.81-1.41,2.5a2.05,2.05,0,1,0,1.16.65l1.45-2.56.83,3a.67.67,0,0,0,.82.47.68.68,0,0,0,.46-.83l-1.19-4.25,3-5.35,1.72,3.67a1.33,1.33,0,0,0,.92,2.32,1.32,1.32,0,0,0,1.3-1.36,1.34,1.34,0,0,0-.49-1l1.3-3.14,2.71,4.9-1.22,4.25a.66.66,0,0,0,.45.82.65.65,0,0,0,.82-.46l.86-3,1.42,2.57a2.06,2.06,0,1,0,3.32.38,2,2,0,0,0-2.15-1l-1.39-2.51,3,.84a.69.69,0,0,0,.51-.06.65.65,0,0,0,.32-.4.67.67,0,0,0-.46-.82l-4.24-1.2-3.06-5.54,4.65.4a1.37,1.37,0,0,0,.58.59,1.33,1.33,0,0,0,1.19-2.39A1.32,1.32,0,0,0,550,632l-2.13-2.78,5.65-.1,3.17,3.07a.67.67,0,1,0,.93-1l-2.22-2.14,2.94-.05a2.06,2.06,0,0,0,4-.74A2.06,2.06,0,0,0,560.2,626.29Zm-11.87-1.81L546,627.79a4.41,4.41,0,0,0-1.67-2.77l0,0Zm-6.62,7.17a3.11,3.11,0,1,1,3-3.18A3.11,3.11,0,0,1,541.71,631.65Zm-.24-10.93,1.71,3.65a4.45,4.45,0,0,0-1.64-.28,4.71,4.71,0,0,0-1.59.34v0Zm-2.67,4.41a4.42,4.42,0,0,0-1.56,2.85l-2.46-3.2ZM535,632.6l2.22-3.19h.11a4.38,4.38,0,0,0,1.59,2.61l0,.07Zm6.85,3.76-1.7-3.65a4.23,4.23,0,0,0,1.63.27,4,4,0,0,0,1.29-.22l.16.29Zm6.69-4.06-4-.35a4.45,4.45,0,0,0,1.55-2.69h.14Z"/><path class="cls-1" d="M636.87,595.24a2,2,0,0,0-1.92,1.42l-2.87.05,2.13-2.22a.67.67,0,0,0,.19-.47.68.68,0,0,0-.21-.48.66.66,0,0,0-.94,0l-3,3.17-6,.1,2.26-3.24a1.32,1.32,0,0,0,1.19-.08,1.33,1.33,0,1,0-1.36-2.29,1.28,1.28,0,0,0-.59.75l-3.88.51,2.79-5,4.25-1.18a.68.68,0,0,0,.46-.83.66.66,0,0,0-.82-.46l-3,.83,1.44-2.56a2.05,2.05,0,1,0-1.42-3,2,2,0,0,0,.26,2.36l-1.41,2.5-.84-3a.66.66,0,0,0-.82-.46.68.68,0,0,0-.46.83l1.2,4.23-2.86,5.08L619,588.39a1.33,1.33,0,1,0-1.8,0l-1.43,3.43L613,586.77l1.24-4.22a.68.68,0,0,0-.45-.83.67.67,0,0,0-.83.46l-.86,3-1.39-2.51a2.05,2.05,0,1,0-3.32-.38,2,2,0,0,0,2.15,1l1.42,2.58-3-.86a.67.67,0,0,0-.83.46.68.68,0,0,0,.46.83l4.24,1.22,2.87,5.18-4.33-.38a1.29,1.29,0,0,0-.51-.47,1.34,1.34,0,1,0,.18,2.27l2.27,3-6.15.11L603,594.09a.66.66,0,0,0-.94,0,.66.66,0,0,0,0,.94l2.21,2.15-2.87,0a2.05,2.05,0,1,0-1.89,2.75,2,2,0,0,0,1.91-1.42l2.94-.05-2.14,2.22a.66.66,0,0,0,0,.94.66.66,0,0,0,.94,0l3.07-3.18,5.93-.1-2.15,3.07a1.3,1.3,0,0,0-1.12.1,1.34,1.34,0,1,0,1.36,2.3,1.33,1.33,0,0,0,.62-.87l3.77-.5-3,5.27-4.24,1.16a.67.67,0,0,0,.35,1.29l3-.82-1.41,2.5a2.07,2.07,0,1,0,1.16.66L612,610l.83,3a.66.66,0,1,0,1.28-.36l-1.19-4.26,3-5.34,1.72,3.67a1.3,1.3,0,0,0-.44,1,1.33,1.33,0,1,0,2.17-1l1.31-3.14,2.7,4.89-1.22,4.25a.67.67,0,1,0,1.28.37l.85-3,1.42,2.57a2.07,2.07,0,1,0,1.17-.64l-1.39-2.51,3,.84a.69.69,0,0,0,.51-.06.71.71,0,0,0,.32-.4.67.67,0,0,0-.46-.83l-4.23-1.2-3.06-5.54,4.64.4a1.27,1.27,0,0,0,.58.59,1.34,1.34,0,0,0,1.2-2.39,1.37,1.37,0,0,0-1.33.09l-2.13-2.79,5.65-.09,3.18,3.07a.66.66,0,0,0,.92-1L632,598l3,0a2,2,0,0,0,2,1.36,2.06,2.06,0,1,0-.07-4.11ZM625,593.42l-2.31,3.31A4.38,4.38,0,0,0,621,594l0,0Zm-6.62,7.18a3.12,3.12,0,1,1,3-3.18A3.12,3.12,0,0,1,618.38,600.6Zm-.24-10.94,1.71,3.66a4.45,4.45,0,0,0-1.64-.28,4.27,4.27,0,0,0-1.59.34v0Zm-2.67,4.41a4.47,4.47,0,0,0-1.56,2.86l-2.46-3.2Zm-3.84,7.48,2.22-3.19H614a4.4,4.4,0,0,0,1.59,2.61l0,.08Zm6.86,3.76-1.71-3.65a4.65,4.65,0,0,0,1.63.27,4.53,4.53,0,0,0,1.29-.22l.16.29Zm6.68-4.06-4-.35a4.45,4.45,0,0,0,1.55-2.7h.14Z"/><path class="cls-1" d="M194,277.66a2,2,0,0,0-1.91,1.42l-2.87.05,2.13-2.22a.61.61,0,0,0,.18-.47.67.67,0,0,0-.2-.47.66.66,0,0,0-.94,0l-3,3.17-6,.11,2.27-3.24a1.33,1.33,0,1,0-.18-2.38,1.4,1.4,0,0,0-.59.75l-3.88.52,2.79-4.95,4.26-1.19a.67.67,0,0,0,.46-.82.66.66,0,0,0-.82-.46l-3,.82,1.45-2.56a2.05,2.05,0,1,0-1.16-.65l-1.41,2.49-.84-3a.68.68,0,0,0-.31-.39.61.61,0,0,0-.51-.06.66.66,0,0,0-.46.82l1.2,4.23-2.87,5.08-1.64-3.51a1.32,1.32,0,0,0,.41-1,1.34,1.34,0,1,0-2.22,1l-1.42,3.43-2.81-5.08,1.24-4.23a.66.66,0,0,0-.46-.82.67.67,0,0,0-.83.45l-.86,2.95L167.8,265a2.05,2.05,0,1,0-3.32-.38,2.08,2.08,0,0,0,2.16,1l1.42,2.57-3-.85a.67.67,0,0,0-.37,1.28l4.25,1.22,2.86,5.18-4.32-.37a1.31,1.31,0,0,0-.52-.47,1.33,1.33,0,1,0,.19,2.26l2.27,3-6.15.11-3.15-3.07a.66.66,0,0,0-.94,0,.66.66,0,0,0,0,.94l2.2,2.15-2.87.05a2.05,2.05,0,1,0,0,1.33l2.94-.05-2.14,2.22a.66.66,0,1,0,1,.93l3.08-3.18,5.92-.1-2.14,3.07a1.33,1.33,0,1,0,.24,2.4,1.36,1.36,0,0,0,.62-.87l3.77-.5-3,5.27-4.25,1.17a.66.66,0,1,0,.36,1.28l3-.81-1.4,2.5a2.05,2.05,0,1,0,1.16.65l1.44-2.56.83,3a.67.67,0,0,0,1.29-.36l-1.19-4.26,3-5.34,1.71,3.67a1.33,1.33,0,1,0,2.23,1,1.33,1.33,0,0,0-.49-1l1.3-3.14,2.71,4.9-1.23,4.24a.67.67,0,1,0,1.28.37l.86-3,1.42,2.57a2.05,2.05,0,0,0-.28,2.37,2.06,2.06,0,1,0,3.6-2,2,2,0,0,0-2.15-1l-1.39-2.51,3,.84a.66.66,0,0,0,.5-.06.66.66,0,0,0-.13-1.22l-4.24-1.21-3.06-5.54,4.64.4a1.3,1.3,0,0,0,.59.59,1.33,1.33,0,1,0-.13-2.3l-2.14-2.78,5.65-.1,3.18,3.07a.67.67,0,1,0,.93-1l-2.22-2.14,2.94-.05a2.05,2.05,0,1,0,1.89-2.76Zm-11.86-1.81-2.32,3.31a4.44,4.44,0,0,0-1.66-2.77v0ZM175.51,283a3.11,3.11,0,1,1,3-3.18A3.11,3.11,0,0,1,175.51,283Zm-.25-10.93,1.71,3.65a4.4,4.4,0,0,0-1.63-.28,4.66,4.66,0,0,0-1.59.34l0,0Zm-2.66,4.41a4.43,4.43,0,0,0-1.57,2.85l-2.45-3.2ZM168.75,284l2.23-3.19h.1a4.48,4.48,0,0,0,1.59,2.61l0,.07Zm6.86,3.76-1.71-3.65a4.49,4.49,0,0,0,2.93.05l.16.29Zm6.69-4.06-4-.35a4.39,4.39,0,0,0,1.54-2.69H180Z"/><path class="cls-1" d="M345.34,448.51a2,2,0,0,0-1.91,1.42l-2.87.05,2.13-2.22a.74.74,0,0,0,.18-.48.64.64,0,0,0-.21-.47.67.67,0,0,0-.94,0l-3,3.18-6,.1,2.26-3.24a1.32,1.32,0,0,0,1.19-.08,1.33,1.33,0,1,0-1.36-2.29,1.32,1.32,0,0,0-.59.75l-3.88.51,2.79-4.95,4.25-1.18a.67.67,0,0,0,.46-.83.66.66,0,0,0-.82-.46l-3,.83,1.45-2.56a2.06,2.06,0,1,0-1.17-.66l-1.4,2.5-.84-3a.65.65,0,0,0-.32-.4.69.69,0,0,0-.51-.06.67.67,0,0,0-.46.82l1.2,4.24-2.86,5.08-1.64-3.51a1.35,1.35,0,0,0,.4-1,1.33,1.33,0,1,0-2.21,1l-1.42,3.43L321.44,440l1.24-4.22a.67.67,0,1,0-1.28-.37l-.86,2.95-1.39-2.51a2,2,0,0,0-2.51-3.17,2,2,0,0,0,1.34,3.81l1.42,2.58-3-.86a.68.68,0,0,0-.83.46.67.67,0,0,0,.46.82l4.25,1.23,2.86,5.18-4.33-.38a1.29,1.29,0,0,0-.51-.47,1.34,1.34,0,1,0,.18,2.27l2.27,3-6.14.1-3.16-3.07a.66.66,0,0,0-.94,0,.66.66,0,0,0,0,.94l2.2,2.15-2.87.05a2.06,2.06,0,1,0,0,1.33l2.94,0L310.72,454a.66.66,0,0,0,1,.92l3.07-3.17,5.93-.11-2.15,3.07a1.33,1.33,0,0,0-1.58,1.94,1.32,1.32,0,0,0,1.82.46,1.27,1.27,0,0,0,.62-.87l3.77-.49-3,5.27L316,462.19a.67.67,0,0,0-.47.82.68.68,0,0,0,.83.47l3-.82-1.41,2.5a2.05,2.05,0,1,0,1.42,3,2,2,0,0,0-.26-2.36l1.45-2.57.83,3a.66.66,0,1,0,1.28-.35l-1.19-4.26,3-5.34,1.72,3.67a1.33,1.33,0,1,0,2.22.95,1.25,1.25,0,0,0-.49-1l1.31-3.14,2.7,4.89-1.22,4.25a.67.67,0,1,0,1.28.37l.85-3,1.43,2.58a2,2,0,0,0,2.51,3.17,2.05,2.05,0,0,0-1.35-3.82L334,462.72l3,.84a.67.67,0,0,0,.5-.05.7.7,0,0,0,.32-.41.66.66,0,0,0-.46-.82l-4.23-1.2L330,455.54l4.64.4a1.27,1.27,0,0,0,.58.59,1.34,1.34,0,1,0-.13-2.31L333,451.44l5.65-.1,3.18,3.08a.67.67,0,0,0,.92-1l-2.21-2.14,2.94-.05a2.05,2.05,0,1,0,1.89-2.75Zm-11.87-1.82L331.16,450a4.46,4.46,0,0,0-1.66-2.77v0Zm-6.62,7.18a3.12,3.12,0,1,1,3-3.18A3.13,3.13,0,0,1,326.85,453.87Zm-.24-10.94,1.71,3.65a4.65,4.65,0,0,0-1.63-.27,4.28,4.28,0,0,0-1.6.34v0Zm-2.67,4.41a4.47,4.47,0,0,0-1.56,2.86L319.92,447Zm-3.84,7.48,2.23-3.19h.1a4.44,4.44,0,0,0,1.59,2.61l0,.08Zm6.86,3.76-1.71-3.66a4.44,4.44,0,0,0,1.63.28,4.53,4.53,0,0,0,1.29-.22l.16.28Zm6.69-4.07-4-.34a4.48,4.48,0,0,0,1.54-2.7h.14Z"/><path class="cls-1" d="M44.12,601.59A2.07,2.07,0,0,0,42.2,603l-2.87.05,2.13-2.23a.66.66,0,0,0,.19-.47.64.64,0,0,0-.21-.47.66.66,0,0,0-.94,0l-3,3.18-6,.1L33.75,600a1.33,1.33,0,1,0-.17-2.38,1.3,1.3,0,0,0-.59.76l-3.88.51,2.78-5,4.26-1.19a.66.66,0,1,0-.36-1.28l-3,.83,1.44-2.57A2.05,2.05,0,1,0,33.1,589l-1.41,2.5-.84-3a.63.63,0,0,0-.31-.4.69.69,0,0,0-.51-.06.67.67,0,0,0-.46.82l1.2,4.24-2.86,5.08-1.65-3.52a1.31,1.31,0,0,0,.41-1,1.33,1.33,0,1,0-2.66.06,1.31,1.31,0,0,0,.45,1L23,598.22l-2.81-5.09,1.24-4.22a.67.67,0,0,0-1.28-.38l-.86,3L17.93,589a2.05,2.05,0,1,0-3.32-.38,2,2,0,0,0,2.15,1l1.42,2.58-3-.86a.67.67,0,1,0-.37,1.28l4.24,1.23L22,599l-4.33-.38a1.29,1.29,0,0,0-.51-.47,1.34,1.34,0,1,0,.18,2.27l2.27,3-6.14.1-3.16-3.07a.66.66,0,0,0-.94,0,.68.68,0,0,0,0,.95l2.21,2.14-2.87.05a2.06,2.06,0,1,0,0,1.34l2.94,0L9.5,607.1a.66.66,0,0,0,0,.94.66.66,0,0,0,.94,0l3.07-3.17,5.93-.11-2.15,3.07a1.33,1.33,0,1,0,.24,2.4,1.27,1.27,0,0,0,.62-.87l3.77-.49-3,5.26-4.24,1.17a.66.66,0,0,0-.47.82.67.67,0,0,0,.82.47l3-.82-1.41,2.5a2.05,2.05,0,1,0,1.16.65l1.45-2.56.83,3a.66.66,0,0,0,.82.47.68.68,0,0,0,.46-.83l-1.19-4.25,3-5.34L24.9,613a1.34,1.34,0,0,0-.44,1,1.33,1.33,0,1,0,2.17-1l1.31-3.14,2.7,4.89L29.42,619a.67.67,0,0,0,1.28.37l.85-3L33,619a2.05,2.05,0,1,0,3.33.37,2.08,2.08,0,0,0-2.16-1l-1.38-2.51,3,.84a.67.67,0,0,0,.5-.06.65.65,0,0,0,.32-.4.67.67,0,0,0-.46-.82l-4.23-1.2-3.06-5.54,4.64.4a1.37,1.37,0,0,0,.58.59,1.34,1.34,0,1,0-.13-2.31l-2.13-2.78,5.65-.1,3.18,3.07a.66.66,0,1,0,.92-1l-2.22-2.14,2.95,0a2.05,2.05,0,1,0,1.89-2.76Zm-11.87-1.81-2.31,3.31a4.43,4.43,0,0,0-1.67-2.77l0,0ZM25.63,607a3.12,3.12,0,1,1,3.05-3.19A3.13,3.13,0,0,1,25.63,607ZM25.39,596l1.71,3.65a4.67,4.67,0,0,0-1.64-.27,4.47,4.47,0,0,0-1.59.33v0Zm-2.67,4.41a4.44,4.44,0,0,0-1.56,2.85l-2.46-3.2Zm-3.84,7.47,2.23-3.19h.1a4.43,4.43,0,0,0,1.59,2.61l0,.08Zm6.86,3.77L24,608a4.44,4.44,0,0,0,1.63.28,4.53,4.53,0,0,0,1.29-.22l.16.28Zm6.68-4.07-4-.34a4.47,4.47,0,0,0,1.55-2.7h.14Z"/><path class="cls-1" d="M140.38,246.5c5.24,0,5.24-8.12,0-8.12s-5.24,8.12,0,8.12Z"/><path class="cls-1" d="M13.67,360.75c5.24,0,5.24-8.12,0-8.12s-5.23,8.12,0,8.12Z"/><path class="cls-1" d="M77,450.77c2.61,0,2.61-4.06,0-4.06s-2.62,4.06,0,4.06Z"/><path class="cls-1" d="M466.88,173c2.62,0,2.62-4.06,0-4.06s-2.62,4.06,0,4.06Z"/><path class="cls-1" d="M624.45,160.41c5.24,0,5.24-8.12,0-8.12s-5.24,8.12,0,8.12Z"/><path class="cls-1" d="M650.44,179.5c2.62,0,2.62-4.06,0-4.06s-2.62,4.06,0,4.06Z"/><path class="cls-1" d="M475,22.34c5.24,0,5.24-8.13,0-8.13s-5.23,8.13,0,8.13Z"/><path class="cls-1" d="M411.65,67.82c5.24,0,5.24-8.12,0-8.12s-5.24,8.12,0,8.12Z"/><path class="cls-1" d="M689.42,403.66c2.62,0,2.62-4.06,0-4.06s-2.62,4.06,0,4.06Z"/><path class="cls-1" d="M622.82,462.55c5.24,0,5.24-8.13,0-8.13s-5.23,8.13,0,8.13Z"/><path class="cls-1" d="M575.18,591.41c5.23,0,5.23-8.12,0-8.12s-5.24,8.12,0,8.12Z"/><path class="cls-1" d="M658.56,559.6c2.62,0,2.62-4.06,0-4.06s-2.62,4.06,0,4.06Z"/><path class="cls-1" d="M97.06,576.93c2.62,0,2.62-4.06,0-4.06s-2.62,4.06,0,4.06Z"/><path class="cls-1" d="M112.13,205.69c5.24,0,5.24-8.13,0-8.13s-5.24,8.13,0,8.13Z"/><path class="cls-1" d="M92.73,284.41c5.24,0,5.24-8.13,0-8.13s-5.24,8.13,0,8.13Z"/><path class="cls-1" d="M130.54,110.39c5.23,0,5.23-8.12,0-8.12s-5.24,8.12,0,8.12Z"/><path class="cls-1" d="M217.27,260.58c5.23,0,5.23-8.12,0-8.12s-5.24,8.12,0,8.12Z"/><path class="cls-1" d="M479.06,4.06c2.62,0,2.62-4.06,0-4.06s-2.62,4.06,0,4.06Z"/><path class="cls-1" d="M506.41,69.44c5.24,0,5.24-8.12,0-8.12s-5.24,8.12,0,8.12Z"/><path class="cls-1" d="M510.47,51.17c2.62,0,2.62-4.06,0-4.06s-2.62,4.06,0,4.06Z"/><path class="cls-1" d="M677.51,492.33c5.24,0,5.24-8.12,0-8.12s-5.24,8.12,0,8.12Z"/><path class="cls-1" d="M614.16,537.81c5.24,0,5.24-8.12,0-8.12s-5.24,8.12,0,8.12Z"/><path class="cls-1" d="M683.47,619c5.24,0,5.24-8.12,0-8.12s-5.24,8.12,0,8.12Z"/><path class="cls-1" d="M681.57,474.05c2.62,0,2.62-4.06,0-4.06s-2.62,4.06,0,4.06Z"/><path class="cls-1" d="M583.3,680.76c5.24,0,5.24-8.12,0-8.12s-5.24,8.12,0,8.12Z"/><path class="cls-1" d="M587.36,662.48c2.62,0,2.62-4.06,0-4.06s-2.62,4.06,0,4.06Z"/><path class="cls-1" d="M154.18,252.59c2.62,0,2.62-4.06,0-4.06s-2.62,4.06,0,4.06Z"/><path class="cls-1" d="M537.81,112.22c5.24,0,5.24-8.12,0-8.12s-5.23,8.12,0,8.12Z"/><path class="cls-1" d="M478.25,89.48c5.24,0,5.24-8.12,0-8.12s-5.23,8.12,0,8.12Z"/><path class="cls-1" d="M515.07,174.49c5.24,0,5.24-8.12,0-8.12s-5.24,8.12,0,8.12Z"/><path class="cls-1" d="M551.62,118.31c2.62,0,2.62-4.06,0-4.06s-2.62,4.06,0,4.06Z"/><path class="cls-1" d="M61.32,242.17c5.24,0,5.24-8.12,0-8.12s-5.23,8.12,0,8.12Z"/><path class="cls-1" d="M75.13,248.26c2.62,0,2.62-4.06,0-4.06s-2.62,4.06,0,4.06Z"/><path class="cls-1" d="M210.23,243.66c2.61,0,2.61-4.06,0-4.06s-2.62,4.06,0,4.06Z"/><path class="cls-1" d="M242.71,116.14c2.62,0,2.62-4.06,0-4.06s-2.62,4.06,0,4.06Z"/><path class="cls-1" d="M292,74.05c2.62,0,2.62-4.07,0-4.07s-2.62,4.07,0,4.07Z"/><path class="cls-1" d="M245.15,129.14c2.62,0,2.62-4.06,0-4.06s-2.62,4.06,0,4.06Z"/><path class="cls-1" d="M584.38,299.7c2.62,0,2.62-4.06,0-4.06s-2.62,4.06,0,4.06Z"/><path class="cls-1" d="M566,416.52c2.62,0,2.62-4.06,0-4.06s-2.62,4.06,0,4.06Z"/><path class="cls-1" d="M604.69,296.45c2.61,0,2.61-4.06,0-4.06s-2.62,4.06,0,4.06Z"/><path class="cls-1" d="M56.45,562.31c2.62,0,2.62-4.06,0-4.06s-2.62,4.06,0,4.06Z"/><path class="cls-1" d="M41.83,546.47c5.24,0,5.24-8.12,0-8.12s-5.24,8.12,0,8.12Z"/><path class="cls-1" d="M104.64,628.78c5.24,0,5.24-8.12,0-8.12s-5.24,8.12,0,8.12Z"/><path class="cls-1" d="M18,454.43c5.23,0,5.23-8.13,0-8.13s-5.24,8.13,0,8.13Z"/><path class="cls-1" d="M18.55,693.35c2.62,0,2.62-4.06,0-4.06s-2.62,4.06,0,4.06Z"/><path class="cls-1" d="M3.93,677.51c5.24,0,5.24-8.12,0-8.12s-5.24,8.12,0,8.12Z"/><path class="cls-1" d="M597.38,322.85c5.23,0,5.23-8.12,0-8.12s-5.24,8.12,0,8.12Z"/><path class="cls-1" d="M541.06,391.07c5.24,0,5.24-8.12,0-8.12s-5.23,8.12,0,8.12Z"/><path class="cls-1" d="M677,265.59c-2.6.3-2.14,4.34.46,4s2.14-4.34-.46-4Z"/><path class="cls-1" d="M657.2,271.15c-2.6.3-2.14,4.33.46,4s2.14-4.33-.46-4Z"/><path class="cls-1" d="M661.44,244.09c-5.21.6-4.28,8.67.93,8.07s4.27-8.67-.93-8.07Z"/><path class="cls-1" d="M266,37.5c-5.21.6-4.28,8.67.93,8.06s4.27-8.66-.93-8.06Z"/><path class="cls-1" d="M586.27,210c5.24,0,5.24-8.12,0-8.12s-5.23,8.12,0,8.12Z"/><path class="cls-1" d="M223.49,180.71c5.24,0,5.24-8.12,0-8.12s-5.24,8.12,0,8.12Z"/></g></g></svg>