<svg xmlns="http://www.w3.org/2000/svg" xmlns:xlink="http://www.w3.org/1999/xlink" viewBox="0 0 717.55 558.11"><defs><style>.cls-1{fill:none;}.cls-2{fill:#ff5b00;}.cls-3,.cls-8{opacity:0.3;}.cls-3,.cls-6,.cls-8{isolation:isolate;}.cls-3{fill:url(#Безымянный_градиент_2);}.cls-4{opacity:0.6;}.cls-5,.cls-6{fill:#ffbc00;}.cls-6{opacity:0.2;}.cls-7{opacity:0.7;}.cls-8{fill:url(#Безымянный_градиент_2-2);}.cls-9{fill:#fbeccd;}.cls-10{clip-path:url(#clip-path);}.cls-11{fill:url(#Безымянный_градиент_3);}.cls-12{fill:#d3c9c2;}.cls-13{fill:#c27f25;}.cls-14{fill:#aa6925;}.cls-15{fill:#f41c21;}.cls-16{fill:#db1c21;}.cls-17{fill:#f7ecd8;}.cls-18{fill:#231f20;}.cls-19{fill:#625136;}.cls-20{fill:#fff;}.cls-21{fill:#f7e8d1;}</style><radialGradient id="Безымянный_градиент_2" cx="1040.81" cy="1114.82" r="50.95" gradientTransform="translate(-744.79 -760.02) rotate(9.23)" gradientUnits="userSpaceOnUse"><stop offset="0.04" stop-color="#d70b11"/><stop offset="1" stop-color="#b40b11"/></radialGradient><radialGradient id="Безымянный_градиент_2-2" cx="1050.99" cy="999.62" r="9.82" gradientTransform="matrix(0.98, 0.2, -0.2, 0.98, -719.13, -722.3)" xlink:href="#Безымянный_градиент_2"/><clipPath id="clip-path" transform="translate(-0.09 -0.17)"><rect class="cls-1" width="420" height="566"/></clipPath><linearGradient id="Безымянный_градиент_3" x1="1137.55" y1="1390.68" x2="1182.54" y2="1198.55" gradientTransform="translate(-561.71 -1307.14) rotate(16.32)" gradientUnits="userSpaceOnUse"><stop offset="0" stop-color="#c27f25"/><stop offset="0.06" stop-color="#bf7d22"/><stop offset="0.64" stop-color="#a76b0c"/><stop offset="1" stop-color="#9e6404"/></linearGradient></defs><g id="Слой_2" data-name="Слой 2"><g id="Слой_1-2" data-name="Слой 1"><g id="Слой_2-2" data-name="Слой 2"><g id="Слой_1-2-2" data-name="Слой 1-2"><path class="cls-2" d="M154.19,515.42a51.06,51.06,0,1,1-42.2-58.6h0a51.11,51.11,0,0,1,42.2,58.6Z" transform="translate(-0.09 -0.17)"/><path class="cls-3" d="M116.49,457.82A42.66,42.66,0,1,1,53.29,499h0a51.06,51.06,0,1,0,63.2-41.2Z" transform="translate(-0.09 -0.17)"/><g class="cls-4"><path class="cls-5" d="M127.49,541.52c-1.8-1.7-.5-6.2,3-10s7.8-5.7,9.7-4,.5,6.2-3,10S129.39,543.22,127.49,541.52Z" transform="translate(-0.09 -0.17)"/><path class="cls-5" d="M111.39,549.92c-.8-1.5,1.1-4,4.2-5.6s6.2-1.8,7-.3-1.1,4-4.2,5.6S112.19,551.42,111.39,549.92Z" transform="translate(-0.09 -0.17)"/></g><g class="cls-4"><path class="cls-5" d="M61,505.12c1.2-.6,3.2,1.1,4.4,3.7s1.2,5.2-.1,5.8-3.2-1.1-4.4-3.7S59.79,505.72,61,505.12Z" transform="translate(-0.09 -0.17)"/><path class="cls-5" d="M60.29,495.12c.9-.1,1.8,1.4,1.9,3.4s-.5,3.5-1.4,3.6-1.8-1.4-1.9-3.3S59.39,495.12,60.29,495.12Z" transform="translate(-0.09 -0.17)"/></g><path class="cls-6" d="M130.49,503A35.66,35.66,0,1,1,101,462.1h0a35.52,35.52,0,0,1,29.5,40.9Z" transform="translate(-0.09 -0.17)"/><g class="cls-7"><path class="cls-5" d="M115.89,556.72c0,.2-4.1.9-10.4.9a64.74,64.74,0,0,1-22.6-4.7A49.68,49.68,0,0,1,64.09,539a41.21,41.21,0,0,1-4.4-6.5l-1.5-2.6-1.1-2.8a56.42,56.42,0,0,1-3.9-18.1,51.47,51.47,0,0,1,.9-12.4,53.92,53.92,0,0,1,3.7-11.8,44,44,0,0,1,5.7-9.2,34.47,34.47,0,0,1,5.4-5.4c1.5-1.1,2.3-1.7,2.4-1.6.2.3-3,2.9-6.5,7.9a52.74,52.74,0,0,0-4.8,9.1A56.33,56.33,0,0,0,57,497a50.92,50.92,0,0,0-.3,11.7,56.69,56.69,0,0,0,1.8,10,42.3,42.3,0,0,0,2.4,6.8l1.2,2.6,1.3,2.4a46.71,46.71,0,0,0,3.8,6,46,46,0,0,0,17,13.6,67.29,67.29,0,0,0,21.5,5.8C111.79,556.52,115.89,556.32,115.89,556.72Z" transform="translate(-0.09 -0.17)"/></g><path class="cls-8" d="M126.29,467.42c-.7,3.1-6.7,4.6-13.5,3.2s-11.8-5-11.2-8.2,6.7-4.6,13.5-3.2S126.89,464.32,126.29,467.42Z" transform="translate(-0.09 -0.17)"/><path class="cls-5" d="M115.89,467.42c6.8-.5,14.7-16.4,12.5-22.5-1.4-4.1-7.3-4.7-11.1-5.1-4.4-.5-6.6-.2-7.8,4.3-1.4,5.4-3.3,15.6.3,20.4A7,7,0,0,0,115.89,467.42Z" transform="translate(-0.09 -0.17)"/><path class="cls-5" d="M128.39,444.92a5.25,5.25,0,0,0-1.9-2.5c-1.2,6.3-6.4,14.9-11,15.2a6.07,6.07,0,0,1-5.3-2.5,11.6,11.6,0,0,1-1.8-5.7c-.9,5.3-1.3,11.7,1.4,15.2a7,7,0,0,0,6,2.9C122.69,467,130.49,451,128.39,444.92Z" transform="translate(-0.09 -0.17)"/><path class="cls-5" d="M127.79,445c-.3,1.7-4.1,2.5-8.6,1.8s-7.9-2.7-7.6-4.4,4.1-2.5,8.6-1.8S128.09,443.32,127.79,445Z" transform="translate(-0.09 -0.17)"/><path class="cls-9" d="M121.49,443.32c-.3-.1.5-2.7,2.3-6.1s4.3-8,6.4-12.7a44.33,44.33,0,0,0,2.6-6.9c.6-2.2.9-4.4.4-5.7a2.94,2.94,0,0,0-2.1-2.2,5.73,5.73,0,0,0-1.4-.4,7.72,7.72,0,0,0-1.5-.2,10.23,10.23,0,0,0-3.9.5c-3.1.8-5.4,5.6-5.9,10.5a49.82,49.82,0,0,0,.3,13.9c.6,3.8,1.6,6.2,1.4,6.3s-1.7-2.2-2.7-6a44.24,44.24,0,0,1-1.5-14.5,21.79,21.79,0,0,1,1.9-7.9,14.61,14.61,0,0,1,2.2-3.3,9.45,9.45,0,0,1,3.1-2.1,10.24,10.24,0,0,1,3-.8,8.68,8.68,0,0,1,2.3-.1,13.55,13.55,0,0,1,2,.2l2.1.6a8.55,8.55,0,0,1,2.2,1.5,6.17,6.17,0,0,1,1.6,3.1,14.41,14.41,0,0,1-.8,7.4,38.55,38.55,0,0,1-3.2,7.2c-2.5,4.7-5.3,9-7.4,12.3S121.69,443.32,121.49,443.32Z" transform="translate(-0.09 -0.17)"/><g class="cls-10"><path class="cls-11" d="M159.49,222.52s-22.1,76.3-32.1,122.7-10.6,54-1.4,59.4c10.9,6.4,15.8,10.3,26.6-1.1a38.34,38.34,0,0,0,8.8-16.8c7.6-29.1,34.4-76.2,50.4-92.8,22.6-23.3,24.6-29,36.9-53.1s-67.4-32.1-67.4-32.1Z" transform="translate(-0.09 -0.17)"/><path class="cls-12" d="M139.49,402c-.6,6.7-7.2,15.1-3.2,29.1,1.6,5.7,3.5,10.8-3.4,2.5s-7-23.2-4.4-32C130.19,395.82,140.19,392.72,139.49,402Z" transform="translate(-0.09 -0.17)"/><path class="cls-12" d="M148.09,405.22c-.6,5.2-6,11.6-3.2,22.7,1.1,4.5,2.5,8.7-2.7,1.8s-4.9-18.6-2.6-25.4C141,400,148.89,397.92,148.09,405.22Z" transform="translate(-0.09 -0.17)"/><path class="cls-12" d="M129.79,394.92c-.6,6.7-7.2,15.1-3.2,29.1,1.6,5.6,3.5,10.8-3.4,2.5s-8.1-23-5.5-31.9C119.49,388.92,130.69,385.62,129.79,394.92Z" transform="translate(-0.09 -0.17)"/><path class="cls-13" d="M164.39,60.62c25.5,5,146.5,33.3,209.3,20.3,97.9-20.3,202.4-43.5,272.3-6.3,135.4,72.1,50.4,206.6-22.6,240.9-25.2,11.9-37.8,30.3-51.3,67.9-4.7,13.1-17.8,38.9-22.8,51.5-19.8,50.2-32.1,80.2-39.8,85.6-10,7.1-24.8.2-28.7-21.6-.8-4.3,8.4-43.4,9.4-48.3,9.5-43.9,10.9-69.8,13.6-89.5,3-21.8,6.6-35.6,4.1-48.6-4.8-24.8-18.8-38.3-45-42.9-30.8-5.4-86.6-12.7-131.1-17.5-19.6-2.1-24.1,42.6-41.5,79.5-13.5,28.4-24.1,39.8-39.6,61.5-39.7,56.1-43.1,58.3-56.4,70.7-16.8,15.5-29.8,9.1-32.9,5.9-7.3-7.6-3.2-19.5,8.6-41.2,22.3-41.1,65.7-105.4,59.5-158.7s-4.3-74.7-4.3-74.7S140.19,55.92,164.39,60.62Z" transform="translate(-0.09 -0.17)"/><path class="cls-14" d="M247.29,87.82c3.9-1.8,8.7-.1,12.7.7,2.1.4,3.1-2.8,1-3.3-5-1-10.4-2.6-15.3-.4-2,1-.3,3.9,1.6,3Z" transform="translate(-0.09 -0.17)"/><path class="cls-14" d="M318.09,212.12a101.16,101.16,0,0,1-3.3,47c-.8,2.3,2.8,3.3,3.5,1a105.22,105.22,0,0,0,3.3-48.9c-.3-2.4-3.9-1.5-3.5.9Z" transform="translate(-0.09 -0.17)"/><path class="cls-14" d="M269.09,107.62c5.6-.7,11.1-1.1,16.7.4,2.1.6,3.1-2.7,1-3.3-6.1-1.6-12.2-1.3-18.5-.4C266.09,104.62,266.89,107.92,269.09,107.62Z" transform="translate(-0.09 -0.17)"/><path class="cls-14" d="M289.89,100.22l15.1.9c2.2.1,2.2-3.3,0-3.4l-15.1-.9c-2.1-.2-2.2,3.2,0,3.4Z" transform="translate(-0.09 -0.17)"/><path class="cls-14" d="M295.79,106.72c5.5,1.6,11,2.6,16.6,3.7,2.1.4,3.1-2.9,1-3.3a158.85,158.85,0,0,1-16.6-3.7c-2.1-.6-3,2.7-1,3.3Z" transform="translate(-0.09 -0.17)"/><path class="cls-14" d="M296.49,116.32a10.57,10.57,0,0,0,5,0,1.64,1.64,0,0,0,1.2-2,1.74,1.74,0,0,0-2.1-1.2,8.6,8.6,0,0,1-3.2,0c-2.1-.6-3,2.7-.9,3.2Z" transform="translate(-0.09 -0.17)"/><path class="cls-14" d="M257.89,92.42l5.3,1.5a1.73,1.73,0,0,0,2.1-1.1,1.78,1.78,0,0,0-1.1-2.1l-5.3-1.5a1.63,1.63,0,0,0-2,1.3,1.43,1.43,0,0,0,1,1.9Z" transform="translate(-0.09 -0.17)"/><path class="cls-14" d="M237.29,234.92a39.33,39.33,0,0,0,2.2,13.2c.7,2.1,4,1.3,3.3-.8a37.56,37.56,0,0,1-2.1-12.4,1.7,1.7,0,0,0-3.4,0Z" transform="translate(-0.09 -0.17)"/><path class="cls-14" d="M246.19,243.82a41.51,41.51,0,0,1,4.9,14.5c.3,2.2,3.6,1.3,3.3-.8a45.47,45.47,0,0,0-5.2-15.3,1.79,1.79,0,0,0-2.3-.7,1.65,1.65,0,0,0-.7,2.3Z" transform="translate(-0.09 -0.17)"/><path class="cls-14" d="M239.59,267.32a19.81,19.81,0,0,1,4.6,16.3c-.3,2.1,2.9,3.1,3.3,1,1.1-7.1-.4-14.2-5.4-19.6-1.5-1.6-3.9.7-2.5,2.3Z" transform="translate(-0.09 -0.17)"/><path class="cls-14" d="M249,279.62a20.79,20.79,0,0,1-2.6,11.7c-1.1,1.9,1.8,3.7,2.9,1.8a24.13,24.13,0,0,0,3.1-13.4C252.29,277.52,248.89,277.42,249,279.62Z" transform="translate(-0.09 -0.17)"/><path class="cls-14" d="M227.19,401.52a24.74,24.74,0,0,1-6.2,12c-1.5,1.6.9,4.1,2.3,2.5a28.68,28.68,0,0,0,7.2-13.5c.4-2.2-2.9-3.2-3.3-1Z" transform="translate(-0.09 -0.17)"/><path class="cls-14" d="M234.19,393.52l-2.2,7.6a1.68,1.68,0,0,0,3.2,1h0l2.2-7.6a1.68,1.68,0,0,0-3.2-1Z" transform="translate(-0.09 -0.17)"/><path class="cls-14" d="M200.19,286.12a15.23,15.23,0,0,1-4.6,8.4c-1.6,1.5.7,4,2.3,2.5a18.13,18.13,0,0,0,5.5-9.9c.5-2.2-2.7-3.1-3.2-1Z" transform="translate(-0.09 -0.17)"/><path class="cls-14" d="M198.69,297.32c-3.1,3.8-6.5,7.2-8.7,11.6-1,2,1.9,3.8,2.9,1.8,2.1-4.2,5.2-7.4,8.1-11C202.49,298.12,200.09,295.62,198.69,297.32Z" transform="translate(-0.09 -0.17)"/><path class="cls-14" d="M418.69,102.92a46.72,46.72,0,0,1,15.8-1.1c2.2.2,2.2-3.2,0-3.4a46.88,46.88,0,0,0-16.7,1.2c-2.1.5-1.3,3.8.9,3.3Z" transform="translate(-0.09 -0.17)"/><path class="cls-14" d="M343.19,244.42a65,65,0,0,0,12.2,2.7c2.2.2,2.2-3.2.1-3.4a62.83,62.83,0,0,1-11.4-2.6,1.61,1.61,0,0,0-2.1,1.1,1.73,1.73,0,0,0,1.2,2.2Z" transform="translate(-0.09 -0.17)"/><path class="cls-14" d="M352.69,238.52l14.5,4.2a1.68,1.68,0,1,0,1-3.2h0l-14.5-4.2a1.63,1.63,0,0,0-2,1.3,1.58,1.58,0,0,0,1,1.9Z" transform="translate(-0.09 -0.17)"/><path class="cls-14" d="M367.49,234.92a41.89,41.89,0,0,1,7.4,8.3c1.3,1.8,3.8-.6,2.5-2.3a45.07,45.07,0,0,0-8.1-8.8c-1.8-1.5-3.5,1.5-1.8,2.8Z" transform="translate(-0.09 -0.17)"/><path class="cls-14" d="M379,239.12a11,11,0,0,1,8.5,5.2c1.1,1.9,4.1.3,3-1.6-2.5-4.2-6.7-6.4-11.5-7-2.1-.3-2.2,3.1,0,3.4Z" transform="translate(-0.09 -0.17)"/><path class="cls-14" d="M325.09,120.72c2.5-2.1,5.5-2.9,8.6-3.5,2.2-.4,1.3-3.7-.8-3.3a21.52,21.52,0,0,0-10.2,4.3c-1.6,1.4.7,3.9,2.4,2.5Z" transform="translate(-0.09 -0.17)"/><path class="cls-14" d="M428.39,413a25.54,25.54,0,0,0-1.1,5.5c-.2,2.2,3.2,2.2,3.4,0a22.58,22.58,0,0,1,1-4.5,1.61,1.61,0,0,0-1.1-2.1,1.85,1.85,0,0,0-2.2,1.1Z" transform="translate(-0.09 -0.17)"/><path class="cls-14" d="M427,429.52c-1.4,4.3-1.8,9.7.7,13.6,1.2,1.9,4.1.2,3-1.6-2-3.2-1.5-7.6-.4-11,.6-2.1-2.6-3-3.3-1Z" transform="translate(-0.09 -0.17)"/><path class="cls-14" d="M198.09,449.52a30.29,30.29,0,0,1-5.6,7.2c-1.5,1.6.8,4,2.3,2.5a36.09,36.09,0,0,0,6.2-7.8c1-2.1-1.9-3.9-2.9-1.9Z" transform="translate(-0.09 -0.17)"/><path class="cls-14" d="M189,448.22a7,7,0,0,1-2.8,3.1c-1.9,1.1-.3,4.1,1.6,3a11.31,11.31,0,0,0,4.1-4.3c1-1.9-1.9-3.7-2.9-1.8Z" transform="translate(-0.09 -0.17)"/><path class="cls-14" d="M184.49,305.72a22.77,22.77,0,0,0-5.2,10.4c-.4,2.1,2.8,3.1,3.3,1a21.1,21.1,0,0,1,4.3-8.9c1.3-1.7-1-4.1-2.4-2.5Z" transform="translate(-0.09 -0.17)"/><path class="cls-14" d="M281.79,328.92c-3.2,4.8-6.5,11.1-11.4,14.4-1.8,1.2-.2,4.2,1.6,3,5.4-3.6,9.1-10.2,12.7-15.5a1.74,1.74,0,0,0-2.9-1.9Z" transform="translate(-0.09 -0.17)"/><path class="cls-12" d="M165.39,459.12c-5.6,3.3-10.6,11.9-23.9,14.7-5.4,1.1-10.4,1.9-1,3.6s22.1-4.4,28.9-10.1C173.69,463.62,173.09,454.62,165.39,459.12Z" transform="translate(-0.09 -0.17)"/><path class="cls-12" d="M158,455.22c-4,3-7,10-17.3,13.5-4.2,1.4-8.1,2.5-.3,2.8s17.3-5.7,21.9-10.7C165.29,457.72,163.69,451,158,455.22Z" transform="translate(-0.09 -0.17)"/><path class="cls-12" d="M177.59,461.12c-5.4,3.5-10,12.4-23,15.9-5.3,1.4-10.3,2.4-.8,3.7s22.1-4.7,28.5-10.7C186.39,466.12,185.09,456.22,177.59,461.12Z" transform="translate(-0.09 -0.17)"/><path class="cls-15" d="M248.59,81.22c15.5,34.8,2.9,49.2-.8,69.4s-17.8,34.9-33.2,51.6c-15.7,16.9-39.9,30.1-63.3,40.7-1.6.7-.3,6.7,2.8,10,12.2,13,27.7,14.3,31.3,16.5,21.8,13.7,31.6,9.8,44.7,1.2,39.2-25.5,63.6-76.9,66.6-99.5,10.6-81.9-23.6-108-28.1-108C261.19,63.12,246.59,76.72,248.59,81.22Z" transform="translate(-0.09 -0.17)"/><path class="cls-16" d="M275.59,65.72c-1.9-1.3-5.5-3.2-6.9-2.6,14.5,12.5,37.2,37.3,28,107.9-3,22.6-27.4,74-66.6,99.5-6.5,4.3-12.2,7.4-19,7.7,10.3,2.2,17.5-1.4,26.3-7.1,39.2-25.5,63.6-76.9,66.6-99.6C314.59,89.92,280.09,68.92,275.59,65.72Z" transform="translate(-0.09 -0.17)"/><path class="cls-16" d="M205.69,266.52c-5.7,2.3-12.5.6-3.6-6.1s14.4-21.5,14.4-21.5-14.4,13.2-18.6,16.9c-8.2,7.3-16.4,9.7-22.7,10.2,4.8,1.6,8.6,2.4,10.2,3.4a73.25,73.25,0,0,0,14,7C206.19,269.52,205.69,266.52,205.69,266.52Z" transform="translate(-0.09 -0.17)"/><path class="cls-17" d="M368.49,182.22a113.48,113.48,0,0,1,14.6,7.8c2.3,1.6,4.5-2.1,2.2-3.7a134.89,134.89,0,0,0-14.5-7.8c-2.4-1.1-4.7,2.5-2.3,3.7Z" transform="translate(-0.09 -0.17)"/><path class="cls-17" d="M372.29,174.72a25.51,25.51,0,0,1,11.2,4.5c2.3,1.6,4.5-2.1,2.3-3.7a27.15,27.15,0,0,0-12.2-4.9C370.79,170.12,369.49,174.22,372.29,174.72Z" transform="translate(-0.09 -0.17)"/><path class="cls-17" d="M376.29,165.12c5,.3,10,2.2,14.5,4.3,2.5,1.1,3.7-3,1.2-4.1-4.9-2.2-10.2-4.2-15.6-4.4C373.69,160.72,373.59,165,376.29,165.12Z" transform="translate(-0.09 -0.17)"/><path class="cls-17" d="M378,154.72c4.3.9,8.5,2.4,13,2.6,2.8.1,2.9-4.1.1-4.3-4-.2-7.9-1.6-11.9-2.4-2.6-.5-3.9,3.6-1.2,4.1Z" transform="translate(-0.09 -0.17)"/><path class="cls-17" d="M380.29,145.42A116.56,116.56,0,0,1,397,147c2.7.5,4-3.6,1.2-4.1a132.4,132.4,0,0,0-17.8-1.7c-2.7-.2-2.9,4.1-.1,4.2Z" transform="translate(-0.09 -0.17)"/><path class="cls-17" d="M380.09,136.62a38.84,38.84,0,0,1,12.7.7c2.7.6,4-3.6,1.2-4.1a46.13,46.13,0,0,0-14.8-.8c-2.8.4-1.9,4.6.9,4.2Z" transform="translate(-0.09 -0.17)"/><path class="cls-17" d="M380.29,128a29.56,29.56,0,0,1,9.8,1.1,2.14,2.14,0,0,0,1.2-4.1,35.93,35.93,0,0,0-10.8-1.3C377.69,123.82,377.49,128.12,380.29,128Z" transform="translate(-0.09 -0.17)"/><path class="cls-17" d="M340.89,197.22a100.11,100.11,0,0,0,7.5,7.1c2.2,1.7,4.4-2,2.3-3.7a79.52,79.52,0,0,1-6.6-6.4C342,192.32,338.89,195.32,340.89,197.22Z" transform="translate(-0.09 -0.17)"/><path class="cls-17" d="M346,191.52c4.3,3.1,8.6,6.1,12.9,9.3,2.2,1.7,4.4-2,2.3-3.7-4.2-3.2-8.6-6.2-12.9-9.3C346,186.22,343.79,189.82,346,191.52Z" transform="translate(-0.09 -0.17)"/><path class="cls-17" d="M350.59,184.32c2.9,2.7,6.8,3.6,10,5.8,2.3,1.6,4.5-2.1,2.3-3.7-2.9-1.9-6.5-2.7-9.1-5-2.1-1.9-5.3,1-3.2,2.9Z" transform="translate(-0.09 -0.17)"/><path class="cls-16" d="M342.29,198.12a116.54,116.54,0,0,1-12.1-8.2c-19.3-13.7-41.7-30.6-68.1-35.9-7.1-1.4-16.3-5.6-12-11.2a11.37,11.37,0,0,0-1.6,1.5c-5.7,5.9,4,10.4,11.4,11.9,26.4,5.3,48.8,22.2,68.1,35.9a116.54,116.54,0,0,0,12.1,8.2,3.72,3.72,0,0,0,2.3.5,2.9,2.9,0,0,0,2.3-1l1.1-1.4a5,5,0,0,1-1.2.2A3.57,3.57,0,0,1,342.29,198.12Z" transform="translate(-0.09 -0.17)"/><path class="cls-15" d="M276,132.92c-9.2.7-20,3.7-25.3,9.2-5.7,5.9,4,10.4,11.4,11.9,26.4,5.3,48.8,22.2,68.1,35.9a116.54,116.54,0,0,0,12.1,8.2,3.72,3.72,0,0,0,2.3.5,2.9,2.9,0,0,0,2.3-1c10.5-12.8,23.8-34.9,1.6-47.8-10.7-6.3-25.8-9.1-38.4-11.9C299.09,135.52,287.29,132.12,276,132.92Z" transform="translate(-0.09 -0.17)"/><path class="cls-16" d="M367.39,182.42c-18.5-6.9-35.5-15.8-53.8-23-19.3-7.6-41.2-14.7-62.4-11.5a5.34,5.34,0,0,1-2.2-.2,2.37,2.37,0,0,1-1.8-1.8c-.9-3.9,5.9-20.7,6.4-24.3-7.9,6.6-13.1,17.6-7.4,28.8a3.19,3.19,0,0,0,1.8,1.8,4.22,4.22,0,0,0,2.2.3c21.2-3.2,43.1,3.9,62.3,11.5,18.3,7.2,35.3,16.1,53.8,23.1,1.7.6,3.7-.2,4.1-1.3a144.52,144.52,0,0,0,8.8-27.5,155.68,155.68,0,0,1-7.8,23C371.09,182.12,369,183,367.39,182.42Z" transform="translate(-0.09 -0.17)"/><path class="cls-15" d="M325.89,112.52c-19.2-2-39.8-3.7-57.8.8-19.2,4.8-25.8,21.7-20.9,32.4a3.19,3.19,0,0,0,1.8,1.8,3.36,3.36,0,0,0,2.2.2c21.2-3.2,43.1,3.9,62.3,11.5,18.3,7.2,35.3,16.1,53.8,23,1.7.6,3.7-.2,4.1-1.3a146,146,0,0,0,9.1-28.8c1.6-8.3,4.5-26.3.5-28.3a91.25,91.25,0,0,0-24.1-7.5C346.79,114.72,336.29,113.62,325.89,112.52Z" transform="translate(-0.09 -0.17)"/><path class="cls-13" d="M124,53.92c.4-6.7,3.7-14.2,5-19.9,2.6,4,8.2,7.2,11.7,13.2,4.3-8.4,11.5-15.6,16.7-23-1.3,5.7,1.1,14.5-.3,21.1,8.8-7,21.4-3.8,37.9-3.2-3,1.7-4.8,3.5-8.8,6.1,8.3,3.5,36.3,6.9,58.6,26.6,2.2,2,11.1,9.4,12.2,12.3,0,0-2.2.7-1.1,3.2,9.8,22.3,26,23,15.4,87.3-3,1.4-4.4-2.8-5.1,3.3-.9,8.4-6.4,20.7-6.4,20.7-20.8,35.2-44.5,30.1-74,45.1-29.4-13.6-34.5-6-59.3-8.4-38.2-3.2-46.8-20-66.3-49-3.5-4.8-4.3-3.8-7-4.2-4.5-13.4-1.1-45.5.9-49,.5-.8-2.8-1.7-2.8-1.7-1.5.3-.1-6.8.8-10,8.8-32.2,32.5-64.1,71.9-70.5" transform="translate(-0.09 -0.17)"/><path class="cls-17" d="M157,90.72c19.1-16.3,47.2-12.2,69.8,2.6a45.2,45.2,0,0,1,11.4,10.4l-1.3,2.6a30.63,30.63,0,0,1,8.3,8.9c3.1,5.6,3.1,5.4,4.9,10.9,11.6,34.8-7,90-27.8,91.2-4.2,5.1-14.5,14.2-18.6,14.4,0,0,.1-1.2-.7-1.5-29.6,14.9-54.1,13.8-85.6.4-23.2-9.9-29.5-19.1-40.7-36.9-.3-.4-3.1-.1-3.1-.1a95.32,95.32,0,0,1-9-33.1c-2.4-30.9,8.2-63.3,38.2-73.2-.8-.3-1.7-1.7-3-2.6,5.4-5.6,42.9-10.1,57.2,6" transform="translate(-0.09 -0.17)"/><path class="cls-18" d="M158.59,157c-8.8-.5-25.6-.8-23.1,11,1.4,6.5,9.9,15.5,21.5,16.4h0c11.6.4,21.1-7.5,23.3-13.8C184.09,159.12,167.39,157.52,158.59,157Z" transform="translate(-0.09 -0.17)"/><path class="cls-19" d="M100.19,113.52c36.7-29.8,43.7,10.8,37.2,23.6-7.4,14.5-22.4,8.9-36.6,11.7-12.4,2.5-23.4,6.8-31.3,12.3-20.5,14.8-11.2-7.1-6.7-14.6C72.69,130,84.89,125.92,100.19,113.52Z" transform="translate(-0.09 -0.17)"/><path class="cls-18" d="M100.59,129.52a12,12,0,1,1,11.3,12.7h0A11.93,11.93,0,0,1,100.59,129.52Z" transform="translate(-0.09 -0.17)"/><path class="cls-20" d="M114.19,126.82c.8-2.1.1-4.2-1.5-4.8s-3.5.6-4.3,2.6-.1,4.2,1.5,4.8S113.39,128.92,114.19,126.82Z" transform="translate(-0.09 -0.17)"/><path class="cls-20" d="M112.09,136.82a1.56,1.56,0,1,0,2.2,2.2,1.55,1.55,0,0,0,.1-2.1A1.7,1.7,0,0,0,112.09,136.82Z" transform="translate(-0.09 -0.17)"/><path class="cls-19" d="M223.69,120.72c-39.1-35.4-44.7,5.7-39.7,19.1,5.7,15.3,21.2,11.4,35,15.9,12,3.9,22.4,9.4,29.7,15.9,18.7,17.1,11.9-5.8,8.4-13.7C249,140.32,238.19,133.92,223.69,120.72Z" transform="translate(-0.09 -0.17)"/><path class="cls-18" d="M221.39,136.62a12,12,0,1,0-12.7,11.3,12.05,12.05,0,0,0,12.7-11.3Z" transform="translate(-0.09 -0.17)"/><path class="cls-20" d="M208.19,132.32c-.5-2.1.4-4.2,2-4.6s3.4,1,4,3.1-.4,4.2-2,4.6S208.69,134.42,208.19,132.32Z" transform="translate(-0.09 -0.17)"/><path class="cls-20" d="M209.09,142.52a1.68,1.68,0,0,1-.2,2.2,1.58,1.58,0,0,1-2.2-.2,1.46,1.46,0,0,1,.2-2.1A1.49,1.49,0,0,1,209.09,142.52Z" transform="translate(-0.09 -0.17)"/><ellipse class="cls-19" cx="157.41" cy="207.65" rx="25.1" ry="11.3" transform="translate(-75.85 91.18) rotate(-26.33)"/></g><path class="cls-15" d="M114.19.22c-13.1,1.7-37.3,9.2-59.5,35.8-6.7,8-16.3,34.6-27.2,44.5-7,6.4,8.5,2.7,10.7.7,5.7-5.3,15.7-21.5,10-4.6-1.2,3.7.2,5.4,3.6,5.7,3,.3,7.6-.6,13.2-2.3,19.4-5.9,51.3-21.3,75.9-32.9a91,91,0,0,1,35.9-8.6c1.8,0,10.8,1.8,11.2,1.2C191.39,34.82,126-1.38,114.19.22Z" transform="translate(-0.09 -0.17)"/><path class="cls-21" d="M.89,102.5A18.76,18.76,0,1,1,24.29,115h-.1A18.72,18.72,0,0,1,.89,102.5Z" transform="translate(-0.09 -0.17)"/><path class="cls-9" d="M45.89,82.62a50.58,50.58,0,0,0,6,45.1s36.3-38.4,64.1-52.2c37.8-18.7,61.2-28.2,81.8-23.8,0,0-.9-11.7-18.6-24,0,0-13.6-10.7-72.7,12.2C89.69,46.52,51.79,72.22,45.89,82.62Z" transform="translate(-0.09 -0.17)"/></g></g></g></g></svg>