<?xml version="1.0" encoding="UTF-8" standalone="no"?>
<svg
   xmlns:dc="http://purl.org/dc/elements/1.1/"
   xmlns:cc="http://creativecommons.org/ns#"
   xmlns:rdf="http://www.w3.org/1999/02/22-rdf-syntax-ns#"
   xmlns:svg="http://www.w3.org/2000/svg"
   xmlns="http://www.w3.org/2000/svg"
   xmlns:xlink="http://www.w3.org/1999/xlink"
   xmlns:sodipodi="http://sodipodi.sourceforge.net/DTD/sodipodi-0.dtd"
   xmlns:inkscape="http://www.inkscape.org/namespaces/inkscape"
   viewBox="0 0 420.00944 558.11916"
   version="1.1"
   id="svg196"
   sodipodi:docname="sloth-2.svg"
   width="420.00943"
   height="558.11914"
   inkscape:version="1.0.1 (0767f8302a, 2020-10-17)">
  <metadata
     id="metadata200">
    <rdf:RDF>
      <cc:Work
         rdf:about="">
        <dc:format>image/svg+xml</dc:format>
        <dc:type
           rdf:resource="http://purl.org/dc/dcmitype/StillImage" />
      </cc:Work>
    </rdf:RDF>
  </metadata>
  <sodipodi:namedview
     pagecolor="#ffffff"
     bordercolor="#666666"
     borderopacity="1"
     objecttolerance="10"
     gridtolerance="10"
     guidetolerance="10"
     inkscape:pageopacity="0"
     inkscape:pageshadow="2"
     inkscape:window-width="1920"
     inkscape:window-height="1050"
     id="namedview198"
     showgrid="false"
     inkscape:zoom="0.55493143"
     inkscape:cx="-68.970743"
     inkscape:cy="310.6004"
     inkscape:window-x="0"
     inkscape:window-y="0"
     inkscape:window-maximized="1"
     inkscape:current-layer="Слой_1-2" />
  <defs
     id="defs22">
    <style
       id="style2">.cls-1{fill:none;}.cls-2{fill:#ff5b00;}.cls-3,.cls-8{opacity:0.3;}.cls-3,.cls-6,.cls-8{isolation:isolate;}.cls-3{fill:url(#Безымянный_градиент_2);}.cls-4{opacity:0.6;}.cls-5,.cls-6{fill:#ffbc00;}.cls-6{opacity:0.2;}.cls-7{opacity:0.7;}.cls-8{fill:url(#Безымянный_градиент_2-2);}.cls-9{fill:#fbeccd;}.cls-10{clip-path:url(#clip-path);}.cls-11{fill:url(#Безымянный_градиент_3);}.cls-12{fill:#d3c9c2;}.cls-13{fill:#c27f25;}.cls-14{fill:#aa6925;}.cls-15{fill:#f41c21;}.cls-16{fill:#db1c21;}.cls-17{fill:#f7ecd8;}.cls-18{fill:#231f20;}.cls-19{fill:#625136;}.cls-20{fill:#fff;}.cls-21{fill:#f7e8d1;}</style>
    <radialGradient
       id="Безымянный_градиент_2"
       cx="1040.8101"
       cy="1114.8199"
       r="50.950001"
       gradientTransform="rotate(9.23,4335.2675,-4993.3359)"
       gradientUnits="userSpaceOnUse">
      <stop
         offset="0.04"
         stop-color="#d70b11"
         id="stop4" />
      <stop
         offset="1"
         stop-color="#b40b11"
         id="stop6" />
    </radialGradient>
    <radialGradient
       id="Безымянный_градиент_2-2"
       cx="1050.99"
       cy="999.62"
       r="9.8199997"
       gradientTransform="matrix(0.98,0.2,-0.2,0.98,-719.13,-722.3)"
       xlink:href="#%D0%91%D0%B5%D0%B7%D1%8B%D0%BC%D1%8F%D0%BD%D0%BD%D1%8B%D0%B9_%D0%B3%D1%80%D0%B0%D0%B4%D0%B8%D0%B5%D0%BD%D1%82_2" />
    <clipPath
       id="clip-path"
       transform="translate(-0.09 -0.17)">
      <rect
         class="cls-1"
         width="420"
         height="566"
         id="rect10"
         x="0"
         y="0" />
    </clipPath>
    <linearGradient
       id="Безымянный_градиент_3"
       x1="1137.55"
       y1="1390.6801"
       x2="1182.54"
       y2="1198.55"
       gradientTransform="rotate(16.32,4277.145,-2612.254)"
       gradientUnits="userSpaceOnUse">
      <stop
         offset="0"
         stop-color="#c27f25"
         id="stop13" />
      <stop
         offset="0.06"
         stop-color="#bf7d22"
         id="stop15" />
      <stop
         offset="0.64"
         stop-color="#a76b0c"
         id="stop17" />
      <stop
         offset="1"
         stop-color="#9e6404"
         id="stop19" />
    </linearGradient>
    <radialGradient
       inkscape:collect="always"
       xlink:href="#Безымянный_градиент_2"
       id="radialGradient206"
       gradientUnits="userSpaceOnUse"
       gradientTransform="rotate(9.23,4335.2675,-4993.3359)"
       cx="1040.8101"
       cy="1114.8199"
       r="50.950001" />
  </defs>
  <g
     id="Слой_2"
     data-name="Слой 2"
     transform="translate(0.00942104,0.00146848)">
    <g
       id="Слой_1-2"
       data-name="Слой 1">
      <g
         id="Слой_2-2"
         data-name="Слой 2">
        <g
           id="Слой_1-2-2"
           data-name="Слой 1-2">
          <path
             class="cls-2"
             d="m 154.19,515.42 a 51.06,51.06 0 1 1 -42.2,-58.6 v 0 a 51.11,51.11 0 0 1 42.2,58.6 z"
             transform="translate(-0.09,-0.17)"
             id="path24" />
          <path
             class="cls-3"
             d="M 116.49,457.82 A 42.66,42.66 0 1 1 53.29,499 v 0 a 51.06,51.06 0 1 0 63.2,-41.2 z"
             transform="translate(-0.09,-0.17)"
             id="path26"
             style="fill:url(#radialGradient206)" />
          <g
             class="cls-4"
             id="g32">
            <path
               class="cls-5"
               d="m 127.49,541.52 c -1.8,-1.7 -0.5,-6.2 3,-10 3.5,-3.8 7.8,-5.7 9.7,-4 1.9,1.7 0.5,6.2 -3,10 -3.5,3.8 -7.8,5.7 -9.7,4 z"
               transform="translate(-0.09,-0.17)"
               id="path28" />
            <path
               class="cls-5"
               d="m 111.39,549.92 c -0.8,-1.5 1.1,-4 4.2,-5.6 3.1,-1.6 6.2,-1.8 7,-0.3 0.8,1.5 -1.1,4 -4.2,5.6 -3.1,1.6 -6.2,1.8 -7,0.3 z"
               transform="translate(-0.09,-0.17)"
               id="path30" />
          </g>
          <g
             class="cls-4"
             id="g38">
            <path
               class="cls-5"
               d="m 61,505.12 c 1.2,-0.6 3.2,1.1 4.4,3.7 1.2,2.6 1.2,5.2 -0.1,5.8 -1.3,0.6 -3.2,-1.1 -4.4,-3.7 -1.2,-2.6 -1.11,-5.2 0.1,-5.8 z"
               transform="translate(-0.09,-0.17)"
               id="path34" />
            <path
               class="cls-5"
               d="m 60.29,495.12 c 0.9,-0.1 1.8,1.4 1.9,3.4 0.1,2 -0.5,3.5 -1.4,3.6 -0.9,0.1 -1.8,-1.4 -1.9,-3.3 -0.1,-1.9 0.5,-3.7 1.4,-3.7 z"
               transform="translate(-0.09,-0.17)"
               id="path36" />
          </g>
          <path
             class="cls-6"
             d="M 130.49,503 A 35.66,35.66 0 1 1 101,462.1 v 0 a 35.52,35.52 0 0 1 29.5,40.9 z"
             transform="translate(-0.09,-0.17)"
             id="path40" />
          <g
             class="cls-7"
             id="g44">
            <path
               class="cls-5"
               d="m 115.89,556.72 c 0,0.2 -4.1,0.9 -10.4,0.9 a 64.74,64.74 0 0 1 -22.6,-4.7 49.68,49.68 0 0 1 -18.8,-13.92 41.21,41.21 0 0 1 -4.4,-6.5 l -1.5,-2.6 -1.1,-2.8 a 56.42,56.42 0 0 1 -3.9,-18.1 51.47,51.47 0 0 1 0.9,-12.4 53.92,53.92 0 0 1 3.7,-11.8 44,44 0 0 1 5.7,-9.2 34.47,34.47 0 0 1 5.4,-5.4 c 1.5,-1.1 2.3,-1.7 2.4,-1.6 0.2,0.3 -3,2.9 -6.5,7.9 a 52.74,52.74 0 0 0 -4.8,9.1 56.33,56.33 0 0 0 -2.99,11.4 50.92,50.92 0 0 0 -0.3,11.7 56.69,56.69 0 0 0 1.8,10 42.3,42.3 0 0 0 2.4,6.8 l 1.2,2.6 1.3,2.4 a 46.71,46.71 0 0 0 3.8,6 46,46 0 0 0 17,13.6 67.29,67.29 0 0 0 21.5,5.8 c 6.09,0.62 10.19,0.42 10.19,0.82 z"
               transform="translate(-0.09,-0.17)"
               id="path42" />
          </g>
          <path
             class="cls-8"
             d="m 126.29,467.42 c -0.7,3.1 -6.7,4.6 -13.5,3.2 -6.8,-1.4 -11.8,-5 -11.2,-8.2 0.6,-3.2 6.7,-4.6 13.5,-3.2 6.8,1.4 11.8,5.1 11.2,8.2 z"
             transform="translate(-0.09,-0.17)"
             id="path46"
             style="fill:url(#%D0%91%D0%B5%D0%B7%D1%8B%D0%BC%D1%8F%D0%BD%D0%BD%D1%8B%D0%B9_%D0%B3%D1%80%D0%B0%D0%B4%D0%B8%D0%B5%D0%BD%D1%82_2-2)" />
          <path
             class="cls-5"
             d="m 115.89,467.42 c 6.8,-0.5 14.7,-16.4 12.5,-22.5 -1.4,-4.1 -7.3,-4.7 -11.1,-5.1 -4.4,-0.5 -6.6,-0.2 -7.8,4.3 -1.4,5.4 -3.3,15.6 0.3,20.4 a 7,7 0 0 0 6.1,2.9 z"
             transform="translate(-0.09,-0.17)"
             id="path48" />
          <path
             class="cls-5"
             d="m 128.39,444.92 a 5.25,5.25 0 0 0 -1.9,-2.5 c -1.2,6.3 -6.4,14.9 -11,15.2 a 6.07,6.07 0 0 1 -5.3,-2.5 11.6,11.6 0 0 1 -1.8,-5.7 c -0.9,5.3 -1.3,11.7 1.4,15.2 a 7,7 0 0 0 6,2.9 c 6.9,-0.52 14.7,-16.52 12.6,-22.6 z"
             transform="translate(-0.09,-0.17)"
             id="path50" />
          <path
             class="cls-5"
             d="m 127.79,445 c -0.3,1.7 -4.1,2.5 -8.6,1.8 -4.5,-0.7 -7.9,-2.7 -7.6,-4.4 0.3,-1.7 4.1,-2.5 8.6,-1.8 4.5,0.7 7.9,2.72 7.6,4.4 z"
             transform="translate(-0.09,-0.17)"
             id="path52" />
          <path
             class="cls-9"
             d="m 121.49,443.32 c -0.3,-0.1 0.5,-2.7 2.3,-6.1 1.8,-3.4 4.3,-8 6.4,-12.7 a 44.33,44.33 0 0 0 2.6,-6.9 c 0.6,-2.2 0.9,-4.4 0.4,-5.7 a 2.94,2.94 0 0 0 -2.1,-2.2 5.73,5.73 0 0 0 -1.4,-0.4 7.72,7.72 0 0 0 -1.5,-0.2 10.23,10.23 0 0 0 -3.9,0.5 c -3.1,0.8 -5.4,5.6 -5.9,10.5 a 49.82,49.82 0 0 0 0.3,13.9 c 0.6,3.8 1.6,6.2 1.4,6.3 -0.2,0.1 -1.7,-2.2 -2.7,-6 a 44.24,44.24 0 0 1 -1.5,-14.5 21.79,21.79 0 0 1 1.9,-7.9 14.61,14.61 0 0 1 2.2,-3.3 9.45,9.45 0 0 1 3.1,-2.1 10.24,10.24 0 0 1 3,-0.8 8.68,8.68 0 0 1 2.3,-0.1 13.55,13.55 0 0 1 2,0.2 l 2.1,0.6 a 8.55,8.55 0 0 1 2.2,1.5 6.17,6.17 0 0 1 1.6,3.1 14.41,14.41 0 0 1 -0.8,7.4 38.55,38.55 0 0 1 -3.2,7.2 c -2.5,4.7 -5.3,9 -7.4,12.3 -2.1,3.3 -3.2,5.4 -3.4,5.4 z"
             transform="translate(-0.09,-0.17)"
             id="path54" />
          <g
             class="cls-10"
             clip-path="url(#clip-path)"
             id="g184">
            <path
               class="cls-11"
               d="m 159.49,222.52 c 0,0 -22.1,76.3 -32.1,122.7 -10,46.4 -10.6,54 -1.4,59.4 10.9,6.4 15.8,10.3 26.6,-1.1 a 38.34,38.34 0 0 0 8.8,-16.8 c 7.6,-29.1 34.4,-76.2 50.4,-92.8 22.6,-23.3 24.6,-29 36.9,-53.1 12.3,-24.1 -67.4,-32.1 -67.4,-32.1 z"
               transform="translate(-0.09,-0.17)"
               id="path56"
               style="fill:url(#%D0%91%D0%B5%D0%B7%D1%8B%D0%BC%D1%8F%D0%BD%D0%BD%D1%8B%D0%B9_%D0%B3%D1%80%D0%B0%D0%B4%D0%B8%D0%B5%D0%BD%D1%82_3)" />
            <path
               class="cls-12"
               d="m 139.49,402 c -0.6,6.7 -7.2,15.1 -3.2,29.1 1.6,5.7 3.5,10.8 -3.4,2.5 -6.9,-8.3 -7,-23.2 -4.4,-32 1.7,-5.78 11.7,-8.88 11,0.4 z"
               transform="translate(-0.09,-0.17)"
               id="path58" />
            <path
               class="cls-12"
               d="m 148.09,405.22 c -0.6,5.2 -6,11.6 -3.2,22.7 1.1,4.5 2.5,8.7 -2.7,1.8 -5.2,-6.9 -4.9,-18.6 -2.6,-25.4 1.41,-4.32 9.3,-6.4 8.5,0.9 z"
               transform="translate(-0.09,-0.17)"
               id="path60" />
            <path
               class="cls-12"
               d="m 129.79,394.92 c -0.6,6.7 -7.2,15.1 -3.2,29.1 1.6,5.6 3.5,10.8 -3.4,2.5 -6.9,-8.3 -8.1,-23 -5.5,-31.9 1.8,-5.7 13,-9 12.1,0.3 z"
               transform="translate(-0.09,-0.17)"
               id="path62" />
            <path
               class="cls-13"
               d="m 164.39,60.62 c 25.5,5 146.5,33.3 209.3,20.3 97.9,-20.3 202.4,-43.5 272.3,-6.3 135.4,72.1 50.4,206.6 -22.6,240.9 -25.2,11.9 -37.8,30.3 -51.3,67.9 -4.7,13.1 -17.8,38.9 -22.8,51.5 -19.8,50.2 -32.1,80.2 -39.8,85.6 -10,7.1 -24.8,0.2 -28.7,-21.6 -0.8,-4.3 8.4,-43.4 9.4,-48.3 9.5,-43.9 10.9,-69.8 13.6,-89.5 3,-21.8 6.6,-35.6 4.1,-48.6 -4.8,-24.8 -18.8,-38.3 -45,-42.9 -30.8,-5.4 -86.6,-12.7 -131.1,-17.5 -19.6,-2.1 -24.1,42.6 -41.5,79.5 -13.5,28.4 -24.1,39.8 -39.6,61.5 -39.7,56.1 -43.1,58.3 -56.4,70.7 -16.8,15.5 -29.8,9.1 -32.9,5.9 -7.3,-7.6 -3.2,-19.5 8.6,-41.2 22.3,-41.1 65.7,-105.4 59.5,-158.7 -6.2,-53.3 -4.3,-74.7 -4.3,-74.7 0,0 -85,-139.2 -60.8,-134.5 z"
               transform="translate(-0.09,-0.17)"
               id="path64" />
            <path
               class="cls-14"
               d="m 247.29,87.82 c 3.9,-1.8 8.7,-0.1 12.7,0.7 2.1,0.4 3.1,-2.8 1,-3.3 -5,-1 -10.4,-2.6 -15.3,-0.4 -2,1 -0.3,3.9 1.6,3 z"
               transform="translate(-0.09,-0.17)"
               id="path66" />
            <path
               class="cls-14"
               d="m 318.09,212.12 a 101.16,101.16 0 0 1 -3.3,47 c -0.8,2.3 2.8,3.3 3.5,1 a 105.22,105.22 0 0 0 3.3,-48.9 c -0.3,-2.4 -3.9,-1.5 -3.5,0.9 z"
               transform="translate(-0.09,-0.17)"
               id="path68" />
            <path
               class="cls-14"
               d="m 269.09,107.62 c 5.6,-0.7 11.1,-1.1 16.7,0.4 2.1,0.6 3.1,-2.7 1,-3.3 -6.1,-1.6 -12.2,-1.3 -18.5,-0.4 -2.2,0.3 -1.4,3.6 0.8,3.3 z"
               transform="translate(-0.09,-0.17)"
               id="path70" />
            <path
               class="cls-14"
               d="m 289.89,100.22 15.1,0.9 c 2.2,0.1 2.2,-3.3 0,-3.4 l -15.1,-0.9 c -2.1,-0.2 -2.2,3.2 0,3.4 z"
               transform="translate(-0.09,-0.17)"
               id="path72" />
            <path
               class="cls-14"
               d="m 295.79,106.72 c 5.5,1.6 11,2.6 16.6,3.7 2.1,0.4 3.1,-2.9 1,-3.3 a 158.85,158.85 0 0 1 -16.6,-3.7 c -2.1,-0.6 -3,2.7 -1,3.3 z"
               transform="translate(-0.09,-0.17)"
               id="path74" />
            <path
               class="cls-14"
               d="m 296.49,116.32 a 10.57,10.57 0 0 0 5,0 1.64,1.64 0 0 0 1.2,-2 1.74,1.74 0 0 0 -2.1,-1.2 8.6,8.6 0 0 1 -3.2,0 c -2.1,-0.6 -3,2.7 -0.9,3.2 z"
               transform="translate(-0.09,-0.17)"
               id="path76" />
            <path
               class="cls-14"
               d="m 257.89,92.42 5.3,1.5 a 1.73,1.73 0 0 0 2.1,-1.1 1.78,1.78 0 0 0 -1.1,-2.1 l -5.3,-1.5 a 1.63,1.63 0 0 0 -2,1.3 1.43,1.43 0 0 0 1,1.9 z"
               transform="translate(-0.09,-0.17)"
               id="path78" />
            <path
               class="cls-14"
               d="m 237.29,234.92 a 39.33,39.33 0 0 0 2.2,13.2 c 0.7,2.1 4,1.3 3.3,-0.8 a 37.56,37.56 0 0 1 -2.1,-12.4 1.7,1.7 0 0 0 -3.4,0 z"
               transform="translate(-0.09,-0.17)"
               id="path80" />
            <path
               class="cls-14"
               d="m 246.19,243.82 a 41.51,41.51 0 0 1 4.9,14.5 c 0.3,2.2 3.6,1.3 3.3,-0.8 a 45.47,45.47 0 0 0 -5.2,-15.3 1.79,1.79 0 0 0 -2.3,-0.7 1.65,1.65 0 0 0 -0.7,2.3 z"
               transform="translate(-0.09,-0.17)"
               id="path82" />
            <path
               class="cls-14"
               d="m 239.59,267.32 a 19.81,19.81 0 0 1 4.6,16.3 c -0.3,2.1 2.9,3.1 3.3,1 1.1,-7.1 -0.4,-14.2 -5.4,-19.6 -1.5,-1.6 -3.9,0.7 -2.5,2.3 z"
               transform="translate(-0.09,-0.17)"
               id="path84" />
            <path
               class="cls-14"
               d="m 249,279.62 a 20.79,20.79 0 0 1 -2.6,11.7 c -1.1,1.9 1.8,3.7 2.9,1.8 a 24.13,24.13 0 0 0 3.1,-13.4 c -0.11,-2.2 -3.51,-2.3 -3.4,-0.1 z"
               transform="translate(-0.09,-0.17)"
               id="path86" />
            <path
               class="cls-14"
               d="m 227.19,401.52 a 24.74,24.74 0 0 1 -6.2,12 c -1.5,1.6 0.9,4.1 2.3,2.5 a 28.68,28.68 0 0 0 7.2,-13.5 c 0.4,-2.2 -2.9,-3.2 -3.3,-1 z"
               transform="translate(-0.09,-0.17)"
               id="path88" />
            <path
               class="cls-14"
               d="m 234.19,393.52 -2.2,7.6 a 1.68,1.68 0 0 0 3.2,1 v 0 l 2.2,-7.6 a 1.68,1.68 0 0 0 -3.2,-1 z"
               transform="translate(-0.09,-0.17)"
               id="path90" />
            <path
               class="cls-14"
               d="m 200.19,286.12 a 15.23,15.23 0 0 1 -4.6,8.4 c -1.6,1.5 0.7,4 2.3,2.5 a 18.13,18.13 0 0 0 5.5,-9.9 c 0.5,-2.2 -2.7,-3.1 -3.2,-1 z"
               transform="translate(-0.09,-0.17)"
               id="path92" />
            <path
               class="cls-14"
               d="m 198.69,297.32 c -3.1,3.8 -6.5,7.2 -8.7,11.6 -1,2 1.9,3.8 2.9,1.8 2.1,-4.2 5.2,-7.4 8.1,-11 1.5,-1.6 -0.9,-4.1 -2.3,-2.4 z"
               transform="translate(-0.09,-0.17)"
               id="path94" />
            <path
               class="cls-14"
               d="m 418.69,102.92 a 46.72,46.72 0 0 1 15.8,-1.1 c 2.2,0.2 2.2,-3.2 0,-3.4 a 46.88,46.88 0 0 0 -16.7,1.2 c -2.1,0.5 -1.3,3.8 0.9,3.3 z"
               transform="translate(-0.09,-0.17)"
               id="path96" />
            <path
               class="cls-14"
               d="m 343.19,244.42 a 65,65 0 0 0 12.2,2.7 c 2.2,0.2 2.2,-3.2 0.1,-3.4 a 62.83,62.83 0 0 1 -11.4,-2.6 1.61,1.61 0 0 0 -2.1,1.1 1.73,1.73 0 0 0 1.2,2.2 z"
               transform="translate(-0.09,-0.17)"
               id="path98" />
            <path
               class="cls-14"
               d="m 352.69,238.52 14.5,4.2 a 1.68,1.68 0 1 0 1,-3.2 v 0 l -14.5,-4.2 a 1.63,1.63 0 0 0 -2,1.3 1.58,1.58 0 0 0 1,1.9 z"
               transform="translate(-0.09,-0.17)"
               id="path100" />
            <path
               class="cls-14"
               d="m 367.49,234.92 a 41.89,41.89 0 0 1 7.4,8.3 c 1.3,1.8 3.8,-0.6 2.5,-2.3 a 45.07,45.07 0 0 0 -8.1,-8.8 c -1.8,-1.5 -3.5,1.5 -1.8,2.8 z"
               transform="translate(-0.09,-0.17)"
               id="path102" />
            <path
               class="cls-14"
               d="m 379,239.12 a 11,11 0 0 1 8.5,5.2 c 1.1,1.9 4.1,0.3 3,-1.6 -2.5,-4.2 -6.7,-6.4 -11.5,-7 -2.1,-0.3 -2.2,3.1 0,3.4 z"
               transform="translate(-0.09,-0.17)"
               id="path104" />
            <path
               class="cls-14"
               d="m 325.09,120.72 c 2.5,-2.1 5.5,-2.9 8.6,-3.5 2.2,-0.4 1.3,-3.7 -0.8,-3.3 a 21.52,21.52 0 0 0 -10.2,4.3 c -1.6,1.4 0.7,3.9 2.4,2.5 z"
               transform="translate(-0.09,-0.17)"
               id="path106" />
            <path
               class="cls-14"
               d="m 428.39,413 a 25.54,25.54 0 0 0 -1.1,5.5 c -0.2,2.2 3.2,2.2 3.4,0 a 22.58,22.58 0 0 1 1,-4.5 1.61,1.61 0 0 0 -1.1,-2.1 1.85,1.85 0 0 0 -2.2,1.1 z"
               transform="translate(-0.09,-0.17)"
               id="path108" />
            <path
               class="cls-14"
               d="m 427,429.52 c -1.4,4.3 -1.8,9.7 0.7,13.6 1.2,1.9 4.1,0.2 3,-1.6 -2,-3.2 -1.5,-7.6 -0.4,-11 0.6,-2.1 -2.6,-3 -3.3,-1 z"
               transform="translate(-0.09,-0.17)"
               id="path110" />
            <path
               class="cls-14"
               d="m 198.09,449.52 a 30.29,30.29 0 0 1 -5.6,7.2 c -1.5,1.6 0.8,4 2.3,2.5 a 36.09,36.09 0 0 0 6.2,-7.8 c 1,-2.1 -1.9,-3.9 -2.9,-1.9 z"
               transform="translate(-0.09,-0.17)"
               id="path112" />
            <path
               class="cls-14"
               d="m 189,448.22 a 7,7 0 0 1 -2.8,3.1 c -1.9,1.1 -0.3,4.1 1.6,3 a 11.31,11.31 0 0 0 4.1,-4.3 c 1,-1.9 -1.9,-3.7 -2.9,-1.8 z"
               transform="translate(-0.09,-0.17)"
               id="path114" />
            <path
               class="cls-14"
               d="m 184.49,305.72 a 22.77,22.77 0 0 0 -5.2,10.4 c -0.4,2.1 2.8,3.1 3.3,1 a 21.1,21.1 0 0 1 4.3,-8.9 c 1.3,-1.7 -1,-4.1 -2.4,-2.5 z"
               transform="translate(-0.09,-0.17)"
               id="path116" />
            <path
               class="cls-14"
               d="m 281.79,328.92 c -3.2,4.8 -6.5,11.1 -11.4,14.4 -1.8,1.2 -0.2,4.2 1.6,3 5.4,-3.6 9.1,-10.2 12.7,-15.5 a 1.74,1.74 0 0 0 -2.9,-1.9 z"
               transform="translate(-0.09,-0.17)"
               id="path118" />
            <path
               class="cls-12"
               d="m 165.39,459.12 c -5.6,3.3 -10.6,11.9 -23.9,14.7 -5.4,1.1 -10.4,1.9 -1,3.6 9.4,1.7 22.1,-4.4 28.9,-10.1 4.3,-3.7 3.7,-12.7 -4,-8.2 z"
               transform="translate(-0.09,-0.17)"
               id="path120" />
            <path
               class="cls-12"
               d="m 158,455.22 c -4,3 -7,10 -17.3,13.5 -4.2,1.4 -8.1,2.5 -0.3,2.8 7.8,0.3 17.3,-5.7 21.9,-10.7 2.99,-3.1 1.39,-9.82 -4.3,-5.6 z"
               transform="translate(-0.09,-0.17)"
               id="path122" />
            <path
               class="cls-12"
               d="m 177.59,461.12 c -5.4,3.5 -10,12.4 -23,15.9 -5.3,1.4 -10.3,2.4 -0.8,3.7 9.5,1.3 22.1,-4.7 28.5,-10.7 4.1,-3.9 2.8,-13.8 -4.7,-8.9 z"
               transform="translate(-0.09,-0.17)"
               id="path124" />
            <path
               class="cls-15"
               d="m 248.59,81.22 c 15.5,34.8 2.9,49.2 -0.8,69.4 -3.7,20.2 -17.8,34.9 -33.2,51.6 -15.7,16.9 -39.9,30.1 -63.3,40.7 -1.6,0.7 -0.3,6.7 2.8,10 12.2,13 27.7,14.3 31.3,16.5 21.8,13.7 31.6,9.8 44.7,1.2 39.2,-25.5 63.6,-76.9 66.6,-99.5 10.6,-81.9 -23.6,-108 -28.1,-108 -7.4,0 -22,13.6 -20,18.1 z"
               transform="translate(-0.09,-0.17)"
               id="path126" />
            <path
               class="cls-16"
               d="m 275.59,65.72 c -1.9,-1.3 -5.5,-3.2 -6.9,-2.6 14.5,12.5 37.2,37.3 28,107.9 -3,22.6 -27.4,74 -66.6,99.5 -6.5,4.3 -12.2,7.4 -19,7.7 10.3,2.2 17.5,-1.4 26.3,-7.1 39.2,-25.5 63.6,-76.9 66.6,-99.6 10.6,-81.6 -23.9,-102.6 -28.4,-105.8 z"
               transform="translate(-0.09,-0.17)"
               id="path128" />
            <path
               class="cls-16"
               d="m 205.69,266.52 c -5.7,2.3 -12.5,0.6 -3.6,-6.1 8.9,-6.7 14.4,-21.5 14.4,-21.5 0,0 -14.4,13.2 -18.6,16.9 -8.2,7.3 -16.4,9.7 -22.7,10.2 4.8,1.6 8.6,2.4 10.2,3.4 a 73.25,73.25 0 0 0 14,7 c 6.8,-6.9 6.3,-9.9 6.3,-9.9 z"
               transform="translate(-0.09,-0.17)"
               id="path130" />
            <path
               class="cls-17"
               d="m 368.49,182.22 a 113.48,113.48 0 0 1 14.6,7.8 c 2.3,1.6 4.5,-2.1 2.2,-3.7 a 134.89,134.89 0 0 0 -14.5,-7.8 c -2.4,-1.1 -4.7,2.5 -2.3,3.7 z"
               transform="translate(-0.09,-0.17)"
               id="path132" />
            <path
               class="cls-17"
               d="m 372.29,174.72 a 25.51,25.51 0 0 1 11.2,4.5 c 2.3,1.6 4.5,-2.1 2.3,-3.7 a 27.15,27.15 0 0 0 -12.2,-4.9 c -2.8,-0.5 -4.1,3.6 -1.3,4.1 z"
               transform="translate(-0.09,-0.17)"
               id="path134" />
            <path
               class="cls-17"
               d="m 376.29,165.12 c 5,0.3 10,2.2 14.5,4.3 2.5,1.1 3.7,-3 1.2,-4.1 -4.9,-2.2 -10.2,-4.2 -15.6,-4.4 -2.7,-0.2 -2.8,4.08 -0.1,4.2 z"
               transform="translate(-0.09,-0.17)"
               id="path136" />
            <path
               class="cls-17"
               d="m 378,154.72 c 4.3,0.9 8.5,2.4 13,2.6 2.8,0.1 2.9,-4.1 0.1,-4.3 -4,-0.2 -7.9,-1.6 -11.9,-2.4 -2.6,-0.5 -3.9,3.6 -1.2,4.1 z"
               transform="translate(-0.09,-0.17)"
               id="path138" />
            <path
               class="cls-17"
               d="M 380.29,145.42 A 116.56,116.56 0 0 1 397,147 c 2.7,0.5 4,-3.6 1.2,-4.1 a 132.4,132.4 0 0 0 -17.8,-1.7 c -2.7,-0.2 -2.9,4.1 -0.1,4.2 z"
               transform="translate(-0.09,-0.17)"
               id="path140" />
            <path
               class="cls-17"
               d="m 380.09,136.62 a 38.84,38.84 0 0 1 12.7,0.7 c 2.7,0.6 4,-3.6 1.2,-4.1 a 46.13,46.13 0 0 0 -14.8,-0.8 c -2.8,0.4 -1.9,4.6 0.9,4.2 z"
               transform="translate(-0.09,-0.17)"
               id="path142" />
            <path
               class="cls-17"
               d="m 380.29,128 a 29.56,29.56 0 0 1 9.8,1.1 2.14,2.14 0 0 0 1.2,-4.1 35.93,35.93 0 0 0 -10.8,-1.3 c -2.8,0.12 -3,4.42 -0.2,4.3 z"
               transform="translate(-0.09,-0.17)"
               id="path144" />
            <path
               class="cls-17"
               d="m 340.89,197.22 a 100.11,100.11 0 0 0 7.5,7.1 c 2.2,1.7 4.4,-2 2.3,-3.7 a 79.52,79.52 0 0 1 -6.6,-6.4 c -2.09,-1.9 -5.2,1.1 -3.2,3 z"
               transform="translate(-0.09,-0.17)"
               id="path146" />
            <path
               class="cls-17"
               d="m 346,191.52 c 4.3,3.1 8.6,6.1 12.9,9.3 2.2,1.7 4.4,-2 2.3,-3.7 -4.2,-3.2 -8.6,-6.2 -12.9,-9.3 -2.3,-1.6 -4.51,2 -2.3,3.7 z"
               transform="translate(-0.09,-0.17)"
               id="path148" />
            <path
               class="cls-17"
               d="m 350.59,184.32 c 2.9,2.7 6.8,3.6 10,5.8 2.3,1.6 4.5,-2.1 2.3,-3.7 -2.9,-1.9 -6.5,-2.7 -9.1,-5 -2.1,-1.9 -5.3,1 -3.2,2.9 z"
               transform="translate(-0.09,-0.17)"
               id="path150" />
            <path
               class="cls-16"
               d="m 342.29,198.12 a 116.54,116.54 0 0 1 -12.1,-8.2 c -19.3,-13.7 -41.7,-30.6 -68.1,-35.9 -7.1,-1.4 -16.3,-5.6 -12,-11.2 a 11.37,11.37 0 0 0 -1.6,1.5 c -5.7,5.9 4,10.4 11.4,11.9 26.4,5.3 48.8,22.2 68.1,35.9 a 116.54,116.54 0 0 0 12.1,8.2 3.72,3.72 0 0 0 2.3,0.5 2.9,2.9 0 0 0 2.3,-1 l 1.1,-1.4 a 5,5 0 0 1 -1.2,0.2 3.57,3.57 0 0 1 -2.3,-0.5 z"
               transform="translate(-0.09,-0.17)"
               id="path152" />
            <path
               class="cls-15"
               d="m 276,132.92 c -9.2,0.7 -20,3.7 -25.3,9.2 -5.7,5.9 4,10.4 11.4,11.9 26.4,5.3 48.8,22.2 68.1,35.9 a 116.54,116.54 0 0 0 12.1,8.2 3.72,3.72 0 0 0 2.3,0.5 2.9,2.9 0 0 0 2.3,-1 c 10.5,-12.8 23.8,-34.9 1.6,-47.8 -10.7,-6.3 -25.8,-9.1 -38.4,-11.9 -11.01,-2.4 -22.81,-5.8 -34.1,-5 z"
               transform="translate(-0.09,-0.17)"
               id="path154" />
            <path
               class="cls-16"
               d="m 367.39,182.42 c -18.5,-6.9 -35.5,-15.8 -53.8,-23 -19.3,-7.6 -41.2,-14.7 -62.4,-11.5 a 5.34,5.34 0 0 1 -2.2,-0.2 2.37,2.37 0 0 1 -1.8,-1.8 c -0.9,-3.9 5.9,-20.7 6.4,-24.3 -7.9,6.6 -13.1,17.6 -7.4,28.8 a 3.19,3.19 0 0 0 1.8,1.8 4.22,4.22 0 0 0 2.2,0.3 c 21.2,-3.2 43.1,3.9 62.3,11.5 18.3,7.2 35.3,16.1 53.8,23.1 1.7,0.6 3.7,-0.2 4.1,-1.3 a 144.52,144.52 0 0 0 8.8,-27.5 155.68,155.68 0 0 1 -7.8,23 c -0.3,0.8 -2.39,1.68 -4,1.1 z"
               transform="translate(-0.09,-0.17)"
               id="path156" />
            <path
               class="cls-15"
               d="m 325.89,112.52 c -19.2,-2 -39.8,-3.7 -57.8,0.8 -19.2,4.8 -25.8,21.7 -20.9,32.4 a 3.19,3.19 0 0 0 1.8,1.8 3.36,3.36 0 0 0 2.2,0.2 c 21.2,-3.2 43.1,3.9 62.3,11.5 18.3,7.2 35.3,16.1 53.8,23 1.7,0.6 3.7,-0.2 4.1,-1.3 a 146,146 0 0 0 9.1,-28.8 c 1.6,-8.3 4.5,-26.3 0.5,-28.3 a 91.25,91.25 0 0 0 -24.1,-7.5 c -10.1,-1.6 -20.6,-2.7 -31,-3.8 z"
               transform="translate(-0.09,-0.17)"
               id="path158" />
            <path
               class="cls-13"
               d="m 124,53.92 c 0.4,-6.7 3.7,-14.2 5,-19.9 2.6,4 8.2,7.2 11.7,13.2 4.3,-8.4 11.5,-15.6 16.7,-23 -1.3,5.7 1.1,14.5 -0.3,21.1 8.8,-7 21.4,-3.8 37.9,-3.2 -3,1.7 -4.8,3.5 -8.8,6.1 8.3,3.5 36.3,6.9 58.6,26.6 2.2,2 11.1,9.4 12.2,12.3 0,0 -2.2,0.7 -1.1,3.2 9.8,22.3 26,23 15.4,87.3 -3,1.4 -4.4,-2.8 -5.1,3.3 -0.9,8.4 -6.4,20.7 -6.4,20.7 -20.8,35.2 -44.5,30.1 -74,45.1 -29.4,-13.6 -34.5,-6 -59.3,-8.4 -38.2,-3.2 -46.8,-20 -66.3,-49 -3.5,-4.8 -4.3,-3.8 -7,-4.2 -4.5,-13.4 -1.1,-45.5 0.9,-49 0.5,-0.8 -2.8,-1.7 -2.8,-1.7 -1.5,0.3 -0.1,-6.8 0.8,-10 8.8,-32.2 32.5,-64.1 71.9,-70.5"
               transform="translate(-0.09,-0.17)"
               id="path160" />
            <path
               class="cls-17"
               d="m 157,90.72 c 19.1,-16.3 47.2,-12.2 69.8,2.6 a 45.2,45.2 0 0 1 11.4,10.4 l -1.3,2.6 a 30.63,30.63 0 0 1 8.3,8.9 c 3.1,5.6 3.1,5.4 4.9,10.9 11.6,34.8 -7,90 -27.8,91.2 -4.2,5.1 -14.5,14.2 -18.6,14.4 0,0 0.1,-1.2 -0.7,-1.5 -29.6,14.9 -54.1,13.8 -85.6,0.4 -23.2,-9.9 -29.5,-19.1 -40.7,-36.9 -0.3,-0.4 -3.1,-0.1 -3.1,-0.1 a 95.32,95.32 0 0 1 -9,-33.1 c -2.4,-30.9 8.2,-63.3 38.2,-73.2 -0.8,-0.3 -1.7,-1.7 -3,-2.6 5.4,-5.6 42.9,-10.1 57.2,6"
               transform="translate(-0.09,-0.17)"
               id="path162" />
            <path
               class="cls-18"
               d="m 158.59,157 c -8.8,-0.5 -25.6,-0.8 -23.1,11 1.4,6.5 9.9,15.5 21.5,16.4 v 0 c 11.6,0.4 21.1,-7.5 23.3,-13.8 3.8,-11.48 -12.9,-13.08 -21.7,-13.6 z"
               transform="translate(-0.09,-0.17)"
               id="path164" />
            <path
               class="cls-19"
               d="m 100.19,113.52 c 36.7,-29.8 43.7,10.8 37.2,23.6 -7.4,14.5 -22.4,8.9 -36.6,11.7 -12.4,2.5 -23.4,6.8 -31.3,12.3 -20.5,14.8 -11.2,-7.1 -6.7,-14.6 9.9,-16.52 22.1,-20.6 37.4,-33 z"
               transform="translate(-0.09,-0.17)"
               id="path166" />
            <path
               class="cls-18"
               d="m 100.59,129.52 a 12,12 0 1 1 11.3,12.7 v 0 a 11.93,11.93 0 0 1 -11.3,-12.7 z"
               transform="translate(-0.09,-0.17)"
               id="path168" />
            <path
               class="cls-20"
               d="m 114.19,126.82 c 0.8,-2.1 0.1,-4.2 -1.5,-4.8 -1.6,-0.6 -3.5,0.6 -4.3,2.6 -0.8,2 -0.1,4.2 1.5,4.8 1.6,0.6 3.5,-0.5 4.3,-2.6 z"
               transform="translate(-0.09,-0.17)"
               id="path170" />
            <path
               class="cls-20"
               d="m 112.09,136.82 a 1.56,1.56 0 1 0 2.2,2.2 1.55,1.55 0 0 0 0.1,-2.1 1.7,1.7 0 0 0 -2.3,-0.1 z"
               transform="translate(-0.09,-0.17)"
               id="path172" />
            <path
               class="cls-19"
               d="m 223.69,120.72 c -39.1,-35.4 -44.7,5.7 -39.7,19.1 5.7,15.3 21.2,11.4 35,15.9 12,3.9 22.4,9.4 29.7,15.9 18.7,17.1 11.9,-5.8 8.4,-13.7 -8.09,-17.6 -18.9,-24 -33.4,-37.2 z"
               transform="translate(-0.09,-0.17)"
               id="path174" />
            <path
               class="cls-18"
               d="m 221.39,136.62 a 12,12 0 1 0 -12.7,11.3 12.05,12.05 0 0 0 12.7,-11.3 z"
               transform="translate(-0.09,-0.17)"
               id="path176" />
            <path
               class="cls-20"
               d="m 208.19,132.32 c -0.5,-2.1 0.4,-4.2 2,-4.6 1.6,-0.4 3.4,1 4,3.1 0.6,2.1 -0.4,4.2 -2,4.6 -1.6,0.4 -3.5,-1 -4,-3.1 z"
               transform="translate(-0.09,-0.17)"
               id="path178" />
            <path
               class="cls-20"
               d="m 209.09,142.52 a 1.68,1.68 0 0 1 -0.2,2.2 1.58,1.58 0 0 1 -2.2,-0.2 1.46,1.46 0 0 1 0.2,-2.1 1.49,1.49 0 0 1 2.2,0.1 z"
               transform="translate(-0.09,-0.17)"
               id="path180" />
            <ellipse
               class="cls-19"
               cx="157.41"
               cy="207.64999"
               rx="25.1"
               ry="11.3"
               transform="rotate(-26.33,156.98444,207.72951)"
               id="ellipse182" />
          </g>
          <path
             class="cls-15"
             d="m 114.19,0.22 c -13.1,1.7 -37.3,9.2 -59.5,35.8 -6.7,8 -16.3,34.6 -27.2,44.5 -7,6.4 8.5,2.7 10.7,0.7 5.7,-5.3 15.7,-21.5 10,-4.6 -1.2,3.7 0.2,5.4 3.6,5.7 3,0.3 7.6,-0.6 13.2,-2.3 19.4,-5.9 51.3,-21.3 75.9,-32.9 a 91,91 0 0 1 35.9,-8.6 c 1.8,0 10.8,1.8 11.2,1.2 3.4,-4.9 -61.99,-41.1 -73.8,-39.5 z"
             transform="translate(-0.09,-0.17)"
             id="path186" />
          <path
             class="cls-21"
             d="m 0.89,102.5 a 18.76,18.76 0 1 1 23.4,12.5 h -0.1 A 18.72,18.72 0 0 1 0.89,102.5 Z"
             transform="translate(-0.09,-0.17)"
             id="path188" />
          <path
             class="cls-9"
             d="m 45.89,82.62 a 50.58,50.58 0 0 0 6,45.1 c 0,0 36.3,-38.4 64.1,-52.2 37.8,-18.7 61.2,-28.2 81.8,-23.8 0,0 -0.9,-11.7 -18.6,-24 0,0 -13.6,-10.7 -72.7,12.2 -16.8,6.6 -54.7,32.3 -60.6,42.7 z"
             transform="translate(-0.09,-0.17)"
             id="path190" />
        </g>
      </g>
    </g>
  </g>
</svg>
