<svg xmlns="http://www.w3.org/2000/svg" xmlns:xlink="http://www.w3.org/1999/xlink" viewBox="0 0 102.13 152.71"><defs><style>.cls-1{isolation:isolate;}.cls-2{fill:#0071bc;}.cls-3{opacity:0.6;}.cls-10,.cls-3,.cls-5{mix-blend-mode:screen;}.cls-4,.cls-7{fill:#ffbc00;}.cls-5{opacity:0.7;}.cls-6{opacity:0.3;fill:url(#radial-gradient);}.cls-6,.cls-7{mix-blend-mode:multiply;}.cls-8{fill:#fbeccd;}.cls-9{fill:#012f49;}.cls-10,.cls-9{opacity:0.2;}.cls-10{fill:#fff;}</style><radialGradient id="radial-gradient" cx="314.54" cy="-441.17" r="9.81" gradientTransform="translate(-334.14 429.79) rotate(11.38)" gradientUnits="userSpaceOnUse"><stop offset="0.04" stop-color="#d70b11"/><stop offset="1" stop-color="#b40b11"/></radialGradient></defs><g class="cls-1"><g id="Слой_2" data-name="Слой 2"><g id="Слой_1-2" data-name="Слой 1"><path class="cls-2" d="M101.46,109.83A51.06,51.06,0,1,1,59.25,51.25,51,51,0,0,1,101.46,109.83Z"/><g class="cls-3"><path class="cls-4" d="M74.82,135.91c-1.85-1.66-.5-6.15,3-10s7.83-5.65,9.67-4,.51,6.15-3,10S76.66,137.59,74.82,135.91Z"/><path class="cls-4" d="M58.73,144.35c-.79-1.46,1.08-4,4.15-5.62s6.2-1.77,7-.3-1.08,4-4.16,5.61S59.51,145.82,58.73,144.35Z"/></g><g class="cls-3"><path class="cls-4" d="M8.32,99.51c1.24-.57,3.23,1.1,4.43,3.72s1.16,5.22-.09,5.79-3.23-1.09-4.43-3.72S7.06,100.08,8.32,99.51Z"/><path class="cls-4" d="M7.55,89.49c.92-.08,1.78,1.42,2,3.34S9,96.37,8.12,96.44,6.34,95,6.18,93.1,6.63,89.56,7.55,89.49Z"/></g><g class="cls-5"><path class="cls-4" d="M63.22,151.1c0,.22-4.1.94-10.39.87a62.81,62.81,0,0,1-22.6-4.72,49.19,49.19,0,0,1-18.77-13.91,44.6,44.6,0,0,1-4.4-6.46c-.93-1.65-1.45-2.6-1.45-2.6l-1.09-2.74a56.92,56.92,0,0,1-2.33-7.36A57.92,57.92,0,0,1,.62,103.4,54.23,54.23,0,0,1,1.54,91,53.15,53.15,0,0,1,5.27,79.17,48.88,48.88,0,0,1,11,70a38.14,38.14,0,0,1,5.35-5.36c1.46-1.1,2.32-1.67,2.41-1.56.24.28-3,2.9-6.46,7.89a47.75,47.75,0,0,0-7.8,20.5,52.62,52.62,0,0,0-.38,11.71,54.71,54.71,0,0,0,1.84,10A57,57,0,0,0,8.29,120l1.09,2.5,1.26,2.41A41.12,41.12,0,0,0,14.47,131a46.91,46.91,0,0,0,17,13.6,66.18,66.18,0,0,0,21.49,5.79C59.05,150.91,63.21,150.74,63.22,151.1Z"/></g><path class="cls-6" d="M73.59,61.85c-.64,3.15-6.68,4.6-13.5,3.23S48.26,60,48.9,56.89s6.67-4.61,13.49-3.24S74.22,58.69,73.59,61.85Z"/><path class="cls-4" d="M63.16,61.84C70,61.38,77.83,45.4,75.68,39.34c-1.45-4.11-7.31-4.66-11.07-5.07-4.46-.47-6.63-.19-7.79,4.31C55.44,44,53.48,54.19,57.12,59A7,7,0,0,0,63.16,61.84Z"/><path class="cls-7" d="M75.68,39.34a5.39,5.39,0,0,0-1.89-2.53c-1.17,6.3-6.37,14.89-11,15.21a6.11,6.11,0,0,1-5.29-2.5,10.68,10.68,0,0,1-1.75-5.74c-.91,5.29-1.25,11.7,1.41,15.21a7,7,0,0,0,6,2.85C70,61.38,77.83,45.4,75.68,39.34Z"/><path class="cls-7" d="M75.11,39.42c-.28,1.71-4.14,2.52-8.62,1.79s-7.88-2.71-7.61-4.42S63,34.26,67.51,35,75.39,37.7,75.11,39.42Z"/><path class="cls-8" d="M68.78,37.69c-.32-.08.48-2.7,2.3-6.14s4.31-8,6.41-12.69a45.81,45.81,0,0,0,2.6-6.93c.58-2.2.85-4.36.41-5.73A3.16,3.16,0,0,0,78.42,4a8.32,8.32,0,0,0-1.35-.36,12.38,12.38,0,0,0-1.53-.18,10.15,10.15,0,0,0-3.93.45c-3.08.81-5.39,5.6-5.94,10.53A49,49,0,0,0,66,28.32c.57,3.82,1.61,6.18,1.37,6.31s-1.69-2.16-2.7-6a43.88,43.88,0,0,1-1.48-14.48,21.72,21.72,0,0,1,1.88-7.85A13.08,13.08,0,0,1,67.28,3,9.92,9.92,0,0,1,70.38.9a8.84,8.84,0,0,1,3-.77A12,12,0,0,1,75.67,0a15.18,15.18,0,0,1,2,.16,10.79,10.79,0,0,1,2.08.65A7,7,0,0,1,82,2.31a6.57,6.57,0,0,1,1.65,3.08c.57,2.43,0,4.93-.75,7.37A46.49,46.49,0,0,1,79.72,20c-2.46,4.66-5.33,9-7.45,12.28S68.94,37.7,68.78,37.69Z"/><path class="cls-9" d="M63.82,52.23A42.64,42.64,0,1,1,.68,93.4a.15.15,0,0,0,0,.06A51.06,51.06,0,1,0,63.82,52.23Z"/><path class="cls-10" d="M77.84,97.14A35.67,35.67,0,1,1,48.35,56.21,35.67,35.67,0,0,1,77.84,97.14Z"/></g></g></g></svg>